{
.appVersion = "3306";
.formatVersion = 3;
DisplayStrings = (
"̉"
);
axes = (
{
name = Weight;
tag = wght;
}
);
customParameters = (
{
name = fsType;
value = (
);
},
{
name = "Use Typo Metrics";
value = 1;
}
);
date = "2025-02-23 21:11:37 +0000";
familyName = "Elms Sans";
featurePrefixes = (
{
automatic = 1;
code = "languagesystem DFLT dflt;

languagesystem latn dflt;
languagesystem latn AZE;
languagesystem latn CRT;
languagesystem latn KAZ;
languagesystem latn TAT;
languagesystem latn TRK;
languagesystem latn ROM;
languagesystem latn MOL;
languagesystem latn MAH;
languagesystem latn NLD;
";
name = Languagesystems;
}
);
features = (
{
automatic = 1;
code = "feature ss01;
feature lnum;
feature locl;
feature sups;
feature ordn;
";
tag = aalt;
},
{
automatic = 1;
code = "";
tag = ccmp;
},
{
automatic = 1;
code = "sub G by G.ss01;
sub j by j.ss01;
sub l by l.ss01;
sub t by t.ss01;
";
labels = (
{
language = dflt;
value = "Alternative characters for some of the letters";
}
);
tag = ss01;
},
{
automatic = 1;
code = "";
tag = lnum;
},
{
automatic = 1;
code = "";
tag = locl;
},
{
automatic = 1;
code = "sub one by onesuperior;
sub two by twosuperior;
sub three by threesuperior;
";
tag = sups;
},
{
automatic = 1;
code = "sub [zero one two three four five six seven eight nine] [A a]' by ordfeminine;
sub [zero one two three four five six seven eight nine] [O o]' by ordmasculine;
";
tag = ordn;
}
);
fontMaster = (
{
axesValues = (
100
);
iconName = Light;
id = m01;
metricValues = (
{
over = 16;
pos = 720;
},
{
over = 16;
pos = 700;
},
{
over = 16;
pos = 480;
},
{
over = -16;
},
{
over = -16;
pos = -280;
},
{
}
);
name = Thin;
stemValues = (
28,
22,
22,
24
);
userData = {
GSCornerRadius = 30;
GSExtrudeAngle = 0;
GSExtrudeDontSubtract = 1;
GSExtrudeOffset = 15;
GSOffsetHorizontal = -30;
GSOffsetKeepCompatible = 1;
GSOffsetProportional = 1;
GSOffsetVertical = -50;
};
visible = 1;
},
{
axesValues = (
400
);
id = m002;
metricValues = (
{
over = 16;
pos = 720;
},
{
over = 16;

glyphs = (
{
glyphname = A;
kernLeft = A;
kernRight = A;
lastChange = "2025-04-04 18:29:01 +0000";
layers = (
{
anchors = (
{
name = bottom;
pos = (302,0);
},
{
name = ogonek;
pos = (544,10);
},
{
name = top;
pos = (302,700);
}
);
layerId = m01;
shapes = (
{
closed = 1;
nodes = (
(40,0,l),
(309,682,l),
(297,682,l),
(564,0,l),
(594,0,l),
(319,700,l),
(287,700,l),
(10,0,l)
);
},
{
closed = 1;
nodes = (
(499,184,l),
(499,206,l),
(104,206,l),
(104,184,l)
);
}
);
width = 604;
},
{
anchors = (
{
name = bottom;
pos = (336,0);
},
{
name = ogonek;
pos = (604,10);
},
{
name = top;
pos = (336,700);
}
);
layerId = m002;
shapes = (
{
closed = 1;
nodes = (
(105,0,l),
(349,642,l),
(323,642,l),
(566,0,l),
(661,0,l),
(386,700,l),
(286,700,l),
(10,0,l)
);
},
{
closed = 1;
nodes = (
(547,156,l),
(547,234,l),
(127,234,l),
(127,156,l)
);
}
);
width = 671;
},
{
anchors = (
{
name = bottom;
pos = (381,0);
},
{
name = ogonek;
pos = (685,10);
},
{
name = top;
pos = (381,700);
}
);
layerId = m003;
shapes = (
{
closed = 1;
nodes = (
(185,0,l),
(429,642,l),
(333,642,l),
(576,0,l),
(751,0,l),
(476,700,l),
(286,700,l),
(10,0,l)
);
},
{
closed = 1;
nodes = (
(587,137,l),
(587,253,l),
(167,253,l),
(167,137,l)
);
}
);
width = 761;
}
);
unicode = 65;
},
{
glyphname = AE;
kernLeft = A;
kernRight = E;
lastChange = "2025-05-21 11:28:56 +0000";
layers = (
{
anchors = (
{
name = bottom;
pos = (362,0);
},
{
name = top;
pos = (362,700);
}
);
layerId = m01;
shapes = (
{
closed = 1;
nodes = (
(40,0,l),
(309,700,l),
(284,700,l),
(10,0,l)
);
},
{
closed = 1;
nodes = (
(381,183,l),
(381,207,l),
(106,207,l),
(106,183,l)
);
},
{
closed = 1;
nodes = (
(726,0,l),
(726,26,l),
(407,26,l),
(407,0,l)
);
},
{
closed = 1;
nodes = (
(428,0,l),
(318,700,l),
(290,700,l),
(400,0,l)
);
},
{
closed = 1;
nodes = (
(689,349,l),
(689,374,l),
(351,374,l),
(351,349,l)
);
},
{
closed = 1;
nodes = (
(668,675,l),
(668,700,l),
(310,700,l),
(310,675,l)
);
}
);
width = 761;
},
{
anchors = (
{
name = bottom;
pos = (388,0);
},
{
name = top;
pos = (388,700);
}
);
layerId = m002;
shapes = (
{
closed = 1;
nodes = (
(105,0,l),
(371,700,l),
(286,700,l),
(10,0,l)
);
},
{
closed = 1;
nodes = (
(447,156,l),
(447,234,l),
(127,234,l),
(127,156,l)
);
},
{
closed = 1;
nodes = (
(752,0,l),
(752,80,l),
(473,80,l),
(473,0,l)
);
},
{
closed = 1;
nodes = (
(504,0,l),
(394,700,l),
(306,700,l),
(416,0,l)
);
},
{
closed = 1;
nodes = (
(722,322,l),
(722,400,l),
(413,400,l),
(413,322,l)
);
},
{
closed = 1;
nodes = (
(694,622,l),
(694,700,l),
(382,700,l),
(382,622,l)
);
}
);
width = 775;
},
{
anchors = (
{
name = bottom;
pos = (468,0);
},
{
name = top;
pos = (468,700);
}
);
layerId = m003;
shapes = (
{
closed = 1;
nodes = (
(180,0,l),
(446,700,l),
(286,700,l),
(10,0,l)
);
},
{
closed = 1;
nodes = (
(527,147,l),
(527,263,l),
(207,263,l),
(207,147,l)
);
},
{
closed = 1;
nodes = (
(832,0,l),
(832,160,l),
(553,160,l),
(553,0,l)
);
},
{
closed = 1;
nodes = (
(639,0,l),
(499,700,l),
(342,700,l),
(482,0,l)
);
},
{
closed = 1;
nodes = (
(812,285,l),
(812,437,l),
(493,437,l),
(493,285,l)
);
},
{
closed = 1;
nodes = (
(794,548,l),
(794,700,l),
(462,700,l),
(462,548,l)
);
}
);
width = 855;
}
);
metricLeft = A;
metricRight = E;
unicode = 198;
},
{
glyphname = B;
kernLeft = H;
kernRight = B;
lastChange = "2025-04-04 18:29:01 +0000";
layers = (
{
anchors = (
{
name = bottom;
pos = (304,0);
},
{
name = center;
pos = (152,175);
},
{
name = top;
pos = (304,700);
}
);
layerId = m01;
shapes = (
{
closed = 1;
nodes = (
(361,0,ls),
(479,0,o),
(572,89,o),
(572,203,cs),
(572,318,o),
(479,407,o),
(361,406,c),
(82,406,l),
(82,382,l),
(365,382,ls),
(464,382,o),
(542,304,o),
(542,204,cs),
(542,104,o),
(464,26,o),
(365,26,cs),
(83,26,l),
(83,0,l)
);
},
{
closed = 1;
nodes = (
(98,0,l),
(98,700,l),
(70,700,l),
(70,0,l)
);
},
{
closed = 1;
nodes = (
(362,387,ls),
(457,387,o),
(532,457,o),
(532,545,cs),
(532,633,o),
(464,701,o),
(377,700,c),
(82,700,l),
(82,674,l),
(368,674,ls),
(443,674,o),
(502,615,o),
(502,540,cs),
(502,465,o),
(443,406,o),
(368,406,cs),
(82,406,l),
(82,387,l)
);
}
);
width = 607;
},
{
anchors = (
{
name = bottom;
pos = (300,0);
},
{
name = center;
pos = (150,175);
},
{
name = top;
pos = (300,700);
}
);
layerId = m002;
shapes = (
{
closed = 1;
nodes = (
(366,0,ls),
(487,0,o),
(577,86,o),
(577,203,cs),
(577,321,o),
(487,407,o),
(366,406,c),
(72,406,l),
(72,324,l),
(366,324,ls),
(435,324,o),
(487,272,o),
(487,203,cs),
(487,134,o),
(435,82,o),
(366,82,cs),
(72,82,l),
(72,0,l)
);
},
{
closed = 1;
nodes = (
(133,0,l),
(133,700,l),
(45,700,l),
(45,0,l)
);
},
{
closed = 1;
nodes = (
(271,348,ls),
(424,348,o),
(537,423,o),
(537,524,cs),
(537,626,o),
(454,701,o),
(341,700,c),
(87,700,l),
(87,618,l),
(341,618,ls),
(402,618,o),
(447,573,o),
(447,512,cs),
(447,451,o),
(402,406,o),
(341,406,cs),
(87,406,l),
(87,348,l)
);
}
);
width = 600;
},
{
anchors = (
{
name = bottom;
pos = (319,0);
},
{
name = center;
pos = (160,175);
},
{
name = top;
pos = (319,700);
}
);
layerId = m003;
shapes = (
{
closed = 1;
nodes = (
(392,0,ls),
(517,0,o),
(615,97,o),
(615,220,cs),
(615,344,o),
(517,441,o),
(392,440,c),
(110,440,l),
(110,298,l),
(384,298,ls),
(429,298,o),
(465,264,o),
(465,220,cs),
(465,176,o),
(429,142,o),
(384,142,cs),
(110,142,l),
(110,0,l)
);
},
{
closed = 1;
nodes = (
(209,0,l),
(209,700,l),
(45,700,l),
(45,0,l)
);
},
{
closed = 1;
nodes = (
(319,338,ls),
(462,338,o),
(575,420,o),
(575,525,cs),
(575,624,o),
(493,701,o),
(389,700,c),
(125,700,l),
(125,558,l),
(369,558,ls),
(400,558,o),
(425,535,o),
(425,505,cs),
(425,469,o),
(400,440,o),
(369,440,cs),
(125,440,l),
(125,338,l)
);
}
);
width = 638;
}
);
metricLeft = H;
metricRight = "=H/2";
unicode = 66;
},
{
glyphname = Bstroke;
lastChange = "2025-05-21 11:28:56 +0000";
layers = (
{
layerId = m01;
shapes = (
{
closed = 1;
nodes = (
(308,193,l),
(308,215,l),
(10,215,l),
(10,193,l)
);
},
{
pos = (70,0);
ref = B;
}
);
width = 677;
},
{
layerId = m002;
shapes = (
{
closed = 1;
nodes = (
(238,164,l),
(238,242,l),
(-60,242,l),
(-60,164,l)
);
},
{
ref = B;
}
);
width = 600;
},
{
layerId = m003;
shapes = (
{
closed = 1;
nodes = (
(276,162,l),
(276,278,l),
(-22,278,l),
(-22,162,l)
);
},
{
ref = B;
}
);
width = 638;
}
);
metricRight = B;
unicode = 579;
},
{
glyphname = C;
kernLeft = O;
kernRight = O;
lastChange = "2025-05-16 21:41:51 +0000";
layers = (
{
anchors = (
{
name = bottom;
pos = (390,0);
},
{
name = top;
pos = (390,700);
}
);
layerId = m01;
shapes = (
{
closed = 1;
nodes = (
(562,-16,o),
(689,74,o),
(744,205,c),
(719,218,l),
(670,94,o),
(551,8,o),
(411,8,cs),
(223,8,o),
(75,158,o),
(75,350,cs),
(75,542,o),
(223,692,o),
(411,692,cs),
(538,692,o),
(648,620,o),
(705,512,c),
(730,526,l),
(669,640,o),
(549,716,o),
(411,716,cs),
(206,716,o),
(45,555,o),
(45,350,cs),
(45,145,o),
(206,-16,o),
(411,-16,cs)
);
}
);
width = 779;
},
{
anchors = (
{
name = bottom;
pos = (373,0);
},
{
name = top;
pos = (373,700);
}
);
layerId = m002;
shapes = (
{
closed = 1;
nodes = (
(547,-16,o),
(672,71,o),
(723,207,c),
(647,243,l),
(609,135,o),
(511,66,o),
(386,66,cs),
(224,66,o),
(110,183,o),
(110,350,cs),
(110,517,o),
(224,634,o),
(386,634,cs),
(498,634,o),
(589,578,o),
(634,487,c),
(705,534,l),
(645,646,o),
(529,716,o),
(386,716,cs),
(171,716,o),
(20,565,o),
(20,350,cs),
(20,135,o),
(171,-16,o),
(386,-16,cs)
);
}
);
width = 746;
},
{
anchors = (
{
name = bottom;
pos = (367,0);
},
{
name = top;
pos = (367,700);
}
);
layerId = m003;
shapes = (
{
closed = 1;
nodes = (
(528,-16,o),
(657,76,o),
(711,208,c),
(562,278,l),
(535,198,o),
(462,142,o),
(376,142,cs),
(264,142,o),
(176,234,o),
(176,350,cs),
(176,466,o),
(264,558,o),
(376,558,cs),
(455,558,o),
(523,511,o),
(554,442,c),
(692,532,l),
(629,643,o),
(512,716,o),
(376,716,cs),
(171,716,o),
(10,555,o),
(10,350,cs),
(10,145,o),
(171,-16,o),
(376,-16,cs)
);
}
);
width = 734;
}
);
metricLeft = O;
metricRight = "=H/2";
unicode = 67;
},
{
glyphname = D;
kernLeft = H;
kernRight = O;
lastChange = "2025-05-19 07:58:16 +0000";
layers = (
{
anchors = (
{
name = bottom;
pos = (366,0);
},
{
name = center;
pos = (183,350);
},
{
name = top;
pos = (366,700);
}
);
layerId = m01;
shapes = (
{
closed = 1;
nodes = (
(328,0,ls),
(528,0,o),
(686,154,o),
(686,350,cs),
(686,547,o),
(527,701,o),
(325,700,c),
(82,700,l),
(82,676,l),
(316,676,ls),
(506,676,o),
(656,533,o),
(656,350,cs),
(656,167,o),
(508,24,o),
(319,24,cs),
(82,24,l),
(82,0,l),
(98,0,l),
(98,700,l),
(70,700,l),
(70,0,l)
);
}
);
width = 731;
},
{
anchors = (
{
name = bottom;
pos = (356,0);
},
{
name = center;
pos = (178,350);
},
{
name = top;
pos = (356,700);
}
);
layerId = m002;
shapes = (
{
closed = 1;
nodes = (
(333,0,ls),
(538,0,o),
(691,154,o),
(691,350,cs),
(691,547,o),
(537,701,o),
(330,700,c),
(87,700,l),
(87,618,l),
(341,618,ls),
(487,618,o),
(601,500,o),
(601,350,cs),
(601,200,o),
(488,82,o),
(344,82,cs),
(87,82,l),
(87,0,l),
(133,0,l),
(133,700,l),
(45,700,l),
(45,0,l)
);
}
);
width = 711;
},
{
anchors = (
{
name = bottom;
pos = (370,0);
},
{
name = center;
pos = (185,350);
},
{
name = top;
pos = (370,700);
}
);
layerId = m003;
shapes = (
{
closed = 1;
nodes = (
(371,0,ls),
(571,0,o),
(729,154,o),
(729,350,cs),
(729,547,o),
(570,701,o),
(368,700,c),
(125,700,l),
(125,544,l),
(369,544,ls),
(478,544,o),
(563,459,o),
(563,350,cs),
(563,241,o),
(478,156,o),
(369,156,cs),
(125,156,l),
(125,0,l),
(209,0,l),
(209,700,l),
(45,700,l),
(45,0,l)
);
}
);
width = 739;
}
);
metricLeft = H;
metricRight = O;
unicode = 68;
},
{
glyphname = Dtail;
lastChange = "2025-05-21 11:28:56 +0000";
layers = (
{
layerId = m01;
shapes = (
{
pos = (70,0);
ref = D;
},
{
closed = 1;
nodes = (
(308,339,l),
(308,361,l),
(10,361,l),
(10,339,l)
);
}
);
width = 801;
},
{
layerId = m002;
shapes = (
{
pos = (60,0);
ref = D;
},
{
closed = 1;
nodes = (
(298,311,l),
(298,389,l),
(0,389,l),
(0,311,l)
);
}
);
width = 771;
},
{
layerId = m003;
shapes = (
{
pos = (22,0);
ref = D;
},
{
closed = 1;
nodes = (
(298,292,l),
(298,408,l),
(0,408,l),
(0,292,l)
);
}
);
width = 761;
}
);
metricRight = D;
unicode = 393;
},
{
glyphname = Eth;
lastChange = "2025-05-21 11:28:56 +0000";
layers = (
{
anchors = (
{
name = bottom;
pos = (441,0);
},
{
name = center;
pos = (258,350);
},
{
name = top;
pos = (441,700);
}
);
layerId = m01;
shapes = (
{
closed = 1;
nodes = (
(353,0,ls),
(574,0,o),
(711,134,o),
(711,350,cs),
(711,567,o),
(573,701,o),
(350,700,c),
(157,700,l),
(157,676,l),
(341,676,ls),
(551,676,o),
(681,551,o),
(681,350,cs),
(681,149,o),
(552,24,o),
(344,24,cs),
(157,24,l),
(157,0,l),
(173,0,l),
(173,700,l),
(145,700,l),
(145,0,l)
);
},
{
closed = 1;
nodes = (
(303,339,l),
(303,361,l),
(10,361,l),
(10,339,l)
);
}
);
width = 756;
},
{
anchors = (
{
name = bottom;
pos = (416,0);
},
{
name = center;
pos = (238,350);
},
{
name = top;
pos = (416,700);
}
);
layerId = m002;
shapes = (
{
closed = 1;
nodes = (
(363,0,ls),
(584,0,o),
(721,134,o),
(721,350,cs),
(721,567,o),
(583,701,o),
(360,700,c),
(147,700,l),
(147,618,l),
(371,618,ls),
(531,618,o),
(631,515,o),
(631,350,cs),
(631,185,o),
(533,82,o),
(374,82,cs),
(147,82,l),
(147,0,l),
(193,0,l),
(193,700,l),
(105,700,l),
(105,0,l)
);
},
{
closed = 1;
nodes = (
(298,311,l),
(298,389,l),
(0,389,l),
(0,311,l)
);
}
);
width = 741;
},
{
anchors = (
{
name = bottom;
pos = (392,0);
},
{
name = center;
pos = (207,350);
},
{
name = top;
pos = (392,700);
}
);
layerId = m003;
shapes = (
{
closed = 1;
nodes = (
(363,0,ls),
(584,0,o),
(721,134,o),
(721,350,cs),
(721,567,o),
(583,701,o),
(360,700,c),
(147,700,l),
(147,544,l),
(361,544,ls),
(481,544,o),
(555,470,o),
(555,350,cs),
(555,230,o),
(481,156,o),
(361,156,cs),
(147,156,l),
(147,0,l),
(231,0,l),
(231,700,l),
(67,700,l),
(67,0,l)
);
},
{
closed = 1;
nodes = (
(298,292,l),
(298,408,l),
(0,408,l),
(0,292,l)
);
}
);
width = 731;
}
);
metricRight = D;
unicode = 208;
},
{
glyphname = E;
kernLeft = H;
kernRight = E;
lastChange = "2025-05-17 13:35:44 +0000";
layers = (
{
anchors = (
{
name = bottom;
pos = (271,0);
},
{
name = ogonek;
pos = (527,10);
},
{
name = top;
pos = (271,700);
},
{
name = topleft;
pos = (20,700);
}
);
layerId = m01;
shapes = (
{
closed = 1;
nodes = (
(98,0,l),
(98,700,l),
(70,700,l),
(70,0,l)
);
},
{
closed = 1;
nodes = (
(506,0,l),
(506,27,l),
(87,27,l),
(87,0,l)
);
},
{
closed = 1;
nodes = (
(486,349,l),
(486,375,l),
(87,375,l),
(87,349,l)
);
},
{
closed = 1;
nodes = (
(498,674,l),
(498,700,l),
(86,700,l),
(86,674,l)
);
}
);
width = 541;
},
{
anchors = (
{
name = bottom;
pos = (272,0);
},
{
name = ogonek;
pos = (540,10);
},
{
name = top;
pos = (272,700);
},
{
name = topleft;
pos = (20,700);
}
);
layerId = m002;
shapes = (
{
closed = 1;
nodes = (
(133,0,l),
(133,700,l),
(45,700,l),
(45,0,l)
);
},
{
closed = 1;
nodes = (
(521,0,l),
(521,82,l),
(102,82,l),
(102,0,l)
);
},
{
closed = 1;
nodes = (
(501,321,l),
(501,401,l),
(102,401,l),
(102,321,l)
);
},
{
closed = 1;
nodes = (
(513,620,l),
(513,700,l),
(101,700,l),
(101,620,l)
);
}
);
width = 544;
},
{
anchors = (
{
name = bottom;
pos = (291,0);
},
{
name = ogonek;
pos = (574,10);
},
{
name = top;
pos = (291,700);
},
{
name = topleft;
pos = (20,700);
}
);
layerId = m003;
shapes = (
{
closed = 1;
nodes = (
(209,0,l),
(209,700,l),
(45,700,l),
(45,0,l)
);
},
{
closed = 1;
nodes = (
(559,0,l),
(559,160,l),
(140,160,l),
(140,0,l)
);
},
{
closed = 1;
nodes = (
(539,284,l),
(539,436,l),
(140,436,l),
(140,284,l)
);
},
{
closed = 1;
nodes = (
(551,548,l),
(551,700,l),
(139,700,l),
(139,548,l)
);
}
);
width = 582;
}
);
metricLeft = H;
metricRight = "=H/2";
unicode = 69;
},
{
glyphname = Esh;
lastChange = "2025-05-21 11:28:56 +0000";
layers = (
{
anchors = (
{
name = bottom;
pos = (271,0);
},
{
name = ogonek;
pos = (527,10);
},
{
name = top;
pos = (271,700);
},
{
name = topleft;
pos = (20,700);
}
);
layerId = m01;
shapes = (
{
closed = 1;
nodes = (
(328,350,l),
(98,675,l),
(70,675,l),
(300,350,l)
);
},
{
closed = 1;
nodes = (
(506,0,l),
(506,26,l),
(70,26,l),
(70,0,l)
);
},
{
closed = 1;
nodes = (
(498,675,l),
(498,700,l),
(70,700,l),
(70,675,l)
);
},
{
closed = 1;
nodes = (
(300,350,l),
(70,26,l),
(98,26,l),
(328,350,l)
);
}
);
width = 541;
},
{
anchors = (
{
name = bottom;
pos = (272,0);
},
{
name = ogonek;
pos = (540,10);
},
{
name = top;
pos = (272,700);
},
{
name = topleft;
pos = (20,700);
}
);
layerId = m002;
shapes = (
{
closed = 1;
nodes = (
(363,350,l),
(143,620,l),
(45,620,l),
(265,350,l)
);
},
{
closed = 1;
nodes = (
(521,0,l),
(521,82,l),
(45,82,l),
(45,0,l)
);
},
{
closed = 1;
nodes = (
(513,620,l),
(513,700,l),
(45,700,l),
(45,620,l)
);
},
{
closed = 1;
nodes = (
(265,350,l),
(45,82,l),
(143,82,l),
(363,350,l)
);
}
);
width = 544;
},
{
anchors = (
{
name = bottom;
pos = (291,0);
},
{
name = ogonek;
pos = (574,10);
},
{
name = top;
pos = (291,700);
},
{
name = topleft;
pos = (20,700);
}
);
layerId = m003;
shapes = (
{
closed = 1;
nodes = (
(388,350,l),
(238,548,l),
(64,548,l),
(214,350,l)
);
},
{
closed = 1;
nodes = (
(559,0,l),
(559,160,l),
(64,160,l),
(64,0,l)
);
},
{
closed = 1;
nodes = (
(551,548,l),
(551,700,l),
(64,700,l),
(64,548,l)
);
},
{
closed = 1;
nodes = (
(214,350,l),
(64,160,l),
(238,160,l),
(388,350,l)
);
}
);
width = 582;
}
);
unicode = 425;
},
{
glyphname = F;
kernLeft = H;
kernRight = F;
lastChange = "2025-04-04 18:29:01 +0000";
layers = (
{
anchors = (
{
name = bottom;
pos = (266,0);
},
{
name = top;
pos = (266,700);
}
);
layerId = m01;
shapes = (
{
closed = 1;
nodes = (
(98,0,l),
(98,700,l),
(70,700,l),
(70,0,l)
);
},
{
closed = 1;
nodes = (
(496,317,l),
(496,341,l),
(87,341,l),
(87,317,l)
);
},
{
closed = 1;
nodes = (
(495,676,l),
(495,700,l),
(86,700,l),
(86,676,l)
);
}
);
width = 531;
},
{
anchors = (
{
name = bottom;
pos = (267,0);
},
{
name = top;
pos = (267,700);
}
);
layerId = m002;
shapes = (
{
closed = 1;
nodes = (
(133,0,l),
(133,700,l),
(45,700,l),
(45,0,l)
);
},
{
closed = 1;
nodes = (
(511,290,l),
(511,368,l),
(102,368,l),
(102,290,l)
);
},
{
closed = 1;
nodes = (
(510,622,l),
(510,700,l),
(101,700,l),
(101,622,l)
);
}
);
width = 534;
},
{
anchors = (
{
name = bottom;
pos = (286,0);
},
{
name = top;
pos = (286,700);
}
);
layerId = m003;
shapes = (
{
closed = 1;
nodes = (
(209,0,l),
(209,700,l),
(45,700,l),
(45,0,l)
);
},
{
closed = 1;
nodes = (
(534,243,l),
(534,395,l),
(140,395,l),
(140,243,l)
);
},
{
closed = 1;
nodes = (
(548,548,l),
(548,700,l),
(139,700,l),
(139,548,l)
);
}
);
width = 571;
}
);
metricLeft = H;
metricRight = "=H/2";
unicode = 70;
},
{
glyphname = Fhook;
kernLeft = Fhook;
kernRight = Fhook;
lastChange = "2025-05-21 11:28:56 +0000";
layers = (
{
layerId = m01;
shapes = (
{
closed = 1;
nodes = (
(138,-178,ls),
(217,-178,o),
(279,-110,o),
(279,-24,cs),
(279,700,l),
(251,700,l),
(251,-24,ls),
(251,-97,o),
(202,-154,o),
(140,-154,cs),
(55,-154,l),
(55,-178,l)
);
},
{
closed = 1;
nodes = (
(687,317,l),
(687,341,l),
(268,341,l),
(268,317,l)
);
},
{
closed = 1;
nodes = (
(686,676,l),
(686,700,l),
(267,700,l),
(267,676,l)
);
}
);
width = 722;
},
{
layerId = m002;
shapes = (
{
closed = 1;
nodes = (
(123,-207,ls),
(213,-207,o),
(294,-126,o),
(294,-24,cs),
(294,700,l),
(206,700,l),
(206,-24,ls),
(206,-81,o),
(166,-125,o),
(125,-125,cs),
(40,-125,l),
(40,-207,l)
);
},
{
closed = 1;
nodes = (
(672,290,l),
(672,368,l),
(263,368,l),
(263,290,l)
);
},
{
closed = 1;
nodes = (
(671,622,l),
(671,700,l),
(262,700,l),
(262,622,l)
);
}
);
width = 695;
},
{
layerId = m003;
shapes = (
{
closed = 1;
nodes = (
(123,-244,ls),
(240,-244,o),
(332,-147,o),
(332,-24,cs),
(332,700,l),
(168,700,l),
(168,-24,ls),
(168,-60,o),
(149,-88,o),
(125,-88,cs),
(40,-88,l),
(40,-244,l)
);
},
{
closed = 1;
nodes = (
(672,211,l),
(672,367,l),
(263,367,l),
(263,211,l)
);
},
{
closed = 1;
nodes = (
(671,544,l),
(671,700,l),
(262,700,l),
(262,544,l)
);
}
);
width = 695;
}
);
metricLeft = florin;
metricRight = F;
unicode = 401;
},
{
glyphname = G;
kernLeft = O;
kernRight = O;
lastChange = "2025-04-04 18:29:01 +0000";
layers = (
{
anchors = (
{
name = bottom;
pos = (417,0);
},
{
name = top;
pos = (417,700);
}
);
layerId = m01;
shapes = (
{
closed = 1;
nodes = (
(614,-16,o),
(773,150,o),
(773,362,c),
(743,362,l),
(743,164,o),
(597,8,o),
(411,8,cs),
(223,8,o),
(75,161,o),
(75,355,cs),
(75,544,o),
(223,692,o),
(411,692,cs),
(498,692,o),
(605,649,o),
(655,594,c),
(671,614,l),
(614,671,o),
(499,716,o),
(411,716,cs),
(206,716,o),
(45,557,o),
(45,355,cs),
(45,147,o),
(206,-16,o),
(411,-16,cs)
);
},
{
closed = 1;
nodes = (
(768,357,l),
(773,361,l),
(773,381,l),
(461,381,l),
(461,357,l)
);
}
);
width = 833;
},
{
anchors = (
{
name = bottom;
pos = (392,0);
},
{
name = top;
pos = (392,700);
}
);
layerId = m002;
shapes = (
{
closed = 1;
nodes = (
(595,-16,o),
(744,131,o),
(748,341,c),
(658,341,l),
(658,187,o),
(516,66,o),
(386,66,cs),
(224,66,o),
(110,183,o),
(110,350,cs),
(110,517,o),
(224,634,o),
(386,634,cs),
(470,634,o),
(543,602,o),
(593,547,c),
(646,614,l),
(582,678,o),
(491,716,o),
(386,716,cs),
(171,716,o),
(20,565,o),
(20,350,cs),
(20,135,o),
(171,-16,o),
(386,-16,cs)
);
},
{
closed = 1;
nodes = (
(736,327,l),
(748,341,l),
(748,407,l),
(436,407,l),
(436,327,l)
);
}
);
width = 783;
},
{
anchors = (
{
name = bottom;
pos = (387,0);
},
{
name = top;
pos = (387,700);
}
);
layerId = m003;
shapes = (
{
closed = 1;
nodes = (
(583,-16,o),
(734,141,o),
(738,341,c),
(595,341,l),
(595,228,o),
(507,140,o),
(394,140,cs),
(272,140,o),
(176,232,o),
(176,350,cs),
(176,468,o),
(272,560,o),
(394,560,cs),
(463,560,o),
(525,528,o),
(560,485,c),
(655,603,l),
(594,669,o),
(502,716,o),
(394,716,cs),
(179,716,o),
(10,555,o),
(10,350,cs),
(10,145,o),
(179,-16,o),
(394,-16,cs)
);
},
{
closed = 1;
nodes = (
(713,304,l),
(738,341,l),
(738,420,l),
(378,420,l),
(378,304,l)
);
}
);
width = 773;
}
);
metricLeft = O;
metricRight = "=H-10";
unicode = 71;
},
{
glyphname = G.ss01;
kernLeft = O;
kernRight = O;
lastChange = "2025-04-04 18:29:01 +0000";
layers = (
{
anchors = (
{
name = bottom;
pos = (417,0);
},
{
name = top;
pos = (417,700);
}
);
layerId = m01;
shapes = (
{
closed = 1;
nodes = (
(614,-16,o),
(773,150,o),
(773,362,c),
(743,362,l),
(743,164,o),
(597,8,o),
(411,8,cs),
(223,8,o),
(75,161,o),
(75,355,cs),
(75,544,o),
(223,692,o),
(411,692,cs),
(498,692,o),
(605,649,o),
(655,594,c),
(671,614,l),
(614,671,o),
(499,716,o),
(411,716,cs),
(206,716,o),
(45,557,o),
(45,355,cs),
(45,147,o),
(206,-16,o),
(411,-16,cs)
);
},
{
closed = 1;
nodes = (
(773,361,l),
(773,381,l),
(461,381,l),
(461,367,l),
(762,311,l)
);
}
);
width = 833;
},
{
anchors = (
{
name = bottom;
pos = (392,0);
},
{
name = top;
pos = (392,700);
}
);
layerId = m002;
shapes = (
{
closed = 1;
nodes = (
(595,-16,o),
(744,131,o),
(748,341,c),
(658,341,l),
(658,187,o),
(516,66,o),
(386,66,cs),
(224,66,o),
(110,183,o),
(110,350,cs),
(110,517,o),
(224,634,o),
(386,634,cs),
(470,634,o),
(543,602,o),
(593,547,c),
(646,614,l),
(582,678,o),
(491,716,o),
(386,716,cs),
(171,716,o),
(20,565,o),
(20,350,cs),
(20,135,o),
(171,-16,o),
(386,-16,cs)
);
},
{
closed = 1;
nodes = (
(748,341,l),
(748,407,l),
(436,407,l),
(436,377,l),
(736,276,l)
);
}
);
width = 783;
},
{
anchors = (
{
name = bottom;
pos = (387,0);
},
{
name = top;
pos = (387,700);
}
);
layerId = m003;
shapes = (
{
closed = 1;
nodes = (
(583,-16,o),
(734,141,o),
(738,341,c),
(595,341,l),
(595,228,o),
(507,140,o),
(394,140,cs),
(272,140,o),
(176,232,o),
(176,350,cs),
(176,468,o),
(272,560,o),
(394,560,cs),
(463,560,o),
(525,528,o),
(560,485,c),
(655,603,l),
(594,669,o),
(502,716,o),
(394,716,cs),
(179,716,o),
(10,555,o),
(10,350,cs),
(10,145,o),
(179,-16,o),
(394,-16,cs)
);
},
{
closed = 1;
nodes = (
(738,341,l),
(738,420,l),
(378,420,l),
(378,354,l),
(693,211,l)
);
}
);
width = 773;
}
);
metricLeft = G;
metricRight = G;
},
{
glyphname = H;
kernLeft = H;
kernRight = H;
lastChange = "2025-04-04 18:29:01 +0000";
layers = (
{
anchors = (
{
name = bottom;
pos = (355,0);
},
{
name = center;
pos = (355,525);
},
{
name = top;
pos = (355,700);
},
{
name = topleft;
pos = (20,700);
}
);
layerId = m01;
shapes = (
{
closed = 1;
nodes = (
(640,0,l),
(640,700,l),
(612,700,l),
(612,0,l)
);
},
{
closed = 1;
nodes = (
(98,0,l),
(98,700,l),
(70,700,l),
(70,0,l)
);
},
{
closed = 1;
nodes = (
(626,352,l),
(626,374,l),
(93,374,l),
(93,352,l)
);
}
);
width = 710;
},
{
anchors = (
{
name = bottom;
pos = (360,0);
},
{
name = center;
pos = (360,525);
},
{
name = top;
pos = (360,700);
},
{
name = topleft;
pos = (20,700);
}
);
layerId = m002;
shapes = (
{
closed = 1;
nodes = (
(675,0,l),
(675,700,l),
(587,700,l),
(587,0,l)
);
},
{
closed = 1;
nodes = (
(133,0,l),
(133,700,l),
(45,700,l),
(45,0,l)
);
},
{
closed = 1;
nodes = (
(631,324,l),
(631,402,l),
(98,402,l),
(98,324,l)
);
}
);
width = 720;
},
{
anchors = (
{
name = bottom;
pos = (366,0);
},
{
name = center;
pos = (366,525);
},
{
name = top;
pos = (366,700);
},
{
name = topleft;
pos = (20,700);
}
);
layerId = m003;
shapes = (
{
closed = 1;
nodes = (
(687,0,l),
(687,700,l),
(523,700,l),
(523,0,l)
);
},
{
closed = 1;
nodes = (
(209,0,l),
(209,700,l),
(45,700,l),
(45,0,l)
);
},
{
closed = 1;
nodes = (
(637,285,l),
(637,441,l),
(104,441,l),
(104,285,l)
);
}
);
width = 732;
}
);
unicode = 72;
},
{
glyphname = Hturned;
lastChange = "2025-05-21 11:28:56 +0000";
layers = (
{
anchors = (
{
name = bottom;
pos = (355,0);
},
{
name = center;
pos = (355,525);
},
{
name = top;
pos = (355,700);
},
{
name = topleft;
pos = (20,700);
}
);
layerId = m01;
shapes = (
{
closed = 1;
nodes = (
(640,0,l),
(640,700,l),
(612,700,l),
(612,0,l)
);
},
{
closed = 1;
nodes = (
(98,352,l),
(98,700,l),
(70,700,l),
(70,352,l)
);
},
{
closed = 1;
nodes = (
(626,352,l),
(626,374,l),
(93,374,l),
(93,352,l)
);
}
);
width = 710;
},
{
anchors = (
{
name = bottom;
pos = (360,0);
},
{
name = center;
pos = (360,525);
},
{
name = top;
pos = (360,700);
},
{
name = topleft;
pos = (20,700);
}
);
layerId = m002;
shapes = (
{
closed = 1;
nodes = (
(675,0,l),
(675,700,l),
(587,700,l),
(587,0,l)
);
},
{
closed = 1;
nodes = (
(133,324,l),
(133,700,l),
(45,700,l),
(45,324,l)
);
},
{
closed = 1;
nodes = (
(631,324,l),
(631,402,l),
(98,402,l),
(98,324,l)
);
}
);
width = 720;
},
{
anchors = (
{
name = bottom;
pos = (366,0);
},
{
name = center;
pos = (366,525);
},
{
name = top;
pos = (366,700);
},
{
name = topleft;
pos = (20,700);
}
);
layerId = m003;
shapes = (
{
closed = 1;
nodes = (
(687,0,l),
(687,700,l),
(523,700,l),
(523,0,l)
);
},
{
closed = 1;
nodes = (
(209,285,l),
(209,700,l),
(45,700,l),
(45,285,l)
);
},
{
closed = 1;
nodes = (
(637,285,l),
(637,441,l),
(104,441,l),
(104,285,l)
);
}
);
width = 732;
}
);
unicode = 42893;
},
{
glyphname = I;
kernLeft = H;
kernRight = H;
lastChange = "2025-04-04 18:29:01 +0000";
layers = (
{
anchors = (
{
name = bottom;
pos = (84,0);
},
{
name = ogonek;
pos = (151,10);
},
{
name = top;
pos = (84,700);
},
{
name = topleft;
pos = (20,700);
}
);
layerId = m01;
shapes = (
{
closed = 1;
nodes = (
(98,0,l),
(98,700,l),
(70,700,l),
(70,0,l)
);
}
);
width = 168;
},
{
anchors = (
{
name = bottom;
pos = (89,0);
},
{
name = ogonek;
pos = (160,10);
},
{
name = top;
pos = (89,700);
},
{
name = topleft;
pos = (20,700);
}
);
layerId = m002;
shapes = (
{
closed = 1;
nodes = (
(133,0,l),
(133,700,l),
(45,700,l),
(45,0,l)
);
}
);
width = 178;
},
{
anchors = (
{
name = bottom;
pos = (127,0);
},
{
name = ogonek;
pos = (229,10);
},
{
name = top;
pos = (127,700);
},
{
name = topleft;
pos = (20,700);
}
);
layerId = m003;
shapes = (
{
closed = 1;
nodes = (
(209,0,l),
(209,700,l),
(45,700,l),
(45,0,l)
);
}
);
width = 254;
}
);
metricLeft = H;
metricRight = H;
unicode = 73;
},
{
glyphname = J;
kernLeft = J;
kernRight = U;
lastChange = "2025-05-19 17:03:30 +0000";
layers = (
{
anchors = (
{
name = bottom;
pos = (293,0);
},
{
name = top;
pos = (293,700);
}
);
layerId = m01;
shapes = (
{
closed = 1;
nodes = (
(403,-16,o),
(515,105,o),
(515,259,cs),
(515,700,l),
(487,700,l),
(487,259,l),
(487,118,o),
(387,8,o),
(260,8,cs),
(117,8,o),
(18,145,o),
(34,319,c),
(99,219,l),
(-31,219,l),
(6,317,l),
(-9,131,o),
(103,-16,o),
(260,-16,cs)
);
}
);
width = 585;
},
{
anchors = (
{
name = bottom;
pos = (282,0);
},
{
name = top;
pos = (282,700);
}
);
layerId = m002;
shapes = (
{
closed = 1;
nodes = (
(419,-16,o),
(518,95,o),
(518,289,cs),
(518,700,l),
(430,700,l),
(430,289,l),
(430,151,o),
(370,64,o),
(263,64,cs),
(147,64,o),
(82,156,o),
(97,319,c),
(132,219,l),
(-28,219,l),
(9,317,l),
(-7,113,o),
(85,-16,o),
(263,-16,cs)
);
}
);
width = 563;
},
{
anchors = (
{
name = bottom;
pos = (317,0);
},
{
name = top;
pos = (317,700);
}
);
layerId = m003;
shapes = (
{
closed = 1;
nodes = (
(460,-16,o),
(589,118,o),
(589,289,cs),
(589,700,l),
(425,700,l),
(425,289,l),
(425,207,o),
(368,142,o),
(296,142,cs),
(215,142,o),
(159,220,o),
(168,319,c),
(203,219,l),
(-33,219,l),
(4,317,l),
(-11,131,o),
(118,-16,o),
(296,-16,cs)
);
}
);
width = 634;
}
);
metricLeft = A;
metricRight = H;
unicode = 74;
},
{
glyphname = K;
kernLeft = H;
kernRight = K;
lastChange = "2025-05-21 11:09:08 +0000";
layers = (
{
anchors = (
{
name = bottom;
pos = (229,0);
},
{
name = top;
pos = (229,700);
}
);
layerId = m01;
shapes = (
{
closed = 1;
nodes = (
(497,0,l),
(130,375,l),
(101,367,l),
(461,0,l)
);
},
{
closed = 1;
nodes = (
(98,0,l),
(98,700,l),
(70,700,l),
(70,0,l)
);
},
{
closed = 1;
nodes = (
(117,349,l),
(475,700,l),
(441,700,l),
(78,349,l)
);
}
);
width = 507;
},
{
anchors = (
{
name = bottom;
pos = (295,0);
},
{
name = top;
pos = (295,700);
}
);
layerId = m002;
shapes = (
{
closed = 1;
nodes = (
(579,0,l),
(248,380,l),
(138,380,l),
(469,0,l)
);
},
{
closed = 1;
nodes = (
(133,0,l),
(133,700,l),
(45,700,l),
(45,0,l)
);
},
{
closed = 1;
nodes = (
(219,349,l),
(547,700,l),
(439,700,l),
(106,349,l)
);
}
);
width = 589;
},
{
anchors = (
{
name = bottom;
pos = (349,0);
},
{
name = top;
pos = (349,700);
}
);
layerId = m003;
shapes = (
{
closed = 1;
nodes = (
(687,0,l),
(391,380,l),
(191,380,l),
(487,0,l)
);
},
{
closed = 1;
nodes = (
(209,0,l),
(209,700,l),
(45,700,l),
(45,0,l)
);
},
{
closed = 1;
nodes = (
(367,349,l),
(665,700,l),
(467,700,l),
(164,349,l)
);
}
);
width = 697;
}
);
metricLeft = H;
metricRight = A;
unicode = 75;
},
{
glyphname = Khook;
kernLeft = Khook;
kernRight = Khook;
lastChange = "2025-05-21 11:28:56 +0000";
layers = (
{
anchors = (
{
name = bottom;
pos = (247,0);
},
{
name = top;
pos = (247,700);
}
);
layerId = m01;
shapes = (
{
closed = 1;
nodes = (
(483,0,l),
(135,369,l),
(359,624,ls),
(386,654,o),
(417,674,o),
(457,674,cs),
(472,674,l),
(472,700,l),
(447,700,ls),
(412,700,o),
(378,685,o),
(342,645,cs),
(78,349,l),
(116,349,l),
(447,0,l)
);
},
{
closed = 1;
nodes = (
(98,0,l),
(98,700,l),
(70,700,l),
(70,0,l)
);
}
);
width = 493;
},
{
anchors = (
{
name = bottom;
pos = (300,0);
},
{
name = top;
pos = (300,700);
}
);
layerId = m002;
shapes = (
{
closed = 1;
nodes = (
(589,0,l),
(252,386,l),
(436,589,ls),
(458,614,o),
(483,624,o),
(516,624,cs),
(555,624,l),
(555,700,l),
(477,700,ls),
(444,700,o),
(420,690,o),
(397,665,cs),
(106,349,l),
(181,349,l),
(477,0,l)
);
},
{
closed = 1;
nodes = (
(133,0,l),
(133,700,l),
(45,700,l),
(45,0,l)
);
}
);
width = 599;
},
{
anchors = (
{
name = bottom;
pos = (345,0);
},
{
name = top;
pos = (345,700);
}
);
layerId = m003;
shapes = (
{
closed = 1;
nodes = (
(679,0,l),
(344,383,l),
(418,474,ls),
(461,527,o),
(506,544,o),
(582,544,cs),
(631,544,l),
(631,700,l),
(557,700,ls),
(460,700,o),
(404,685,o),
(329,601,cs),
(106,349,l),
(171,349,l),
(467,0,l)
);
},
{
closed = 1;
nodes = (
(161,0,l),
(161,700,l),
(-3,700,l),
(-3,0,l)
);
}
);
width = 689;
}
);
metricRight = K;
unicode = 408;
},
{
glyphname = L;
kernLeft = H;
kernRight = L;
lastChange = "2025-04-04 18:29:01 +0000";
layers = (
{
anchors = (
{
name = bottom;
pos = (249,0);
},
{
name = center;
pos = (249,350);
},
{
name = top;
pos = (249,700);
},
{
name = topright;
pos = (477,700);
}
);
layerId = m01;
shapes = (
{
closed = 1;
nodes = (
(98,0,l),
(98,700,l),
(70,700,l),
(70,0,l)
);
},
{
closed = 1;
nodes = (
(492,0,l),
(492,24,l),
(87,24,l),
(87,0,l)
);
}
);
width = 497;
},
{
anchors = (
{
name = bottom;
pos = (256,0);
},
{
name = center;
pos = (256,350);
},
{
name = top;
pos = (256,700);
},
{
name = topright;
pos = (492,700);
}
);
layerId = m002;
shapes = (
{
closed = 1;
nodes = (
(133,0,l),
(133,700,l),
(45,700,l),
(45,0,l)
);
},
{
closed = 1;
nodes = (
(507,0,l),
(507,80,l),
(102,80,l),
(102,0,l)
);
}
);
width = 512;
},
{
anchors = (
{
name = bottom;
pos = (260,0);
},
{
name = center;
pos = (260,350);
},
{
name = top;
pos = (260,700);
},
{
name = topright;
pos = (500,700);
}
);
layerId = m003;
shapes = (
{
closed = 1;
nodes = (
(209,0,l),
(209,700,l),
(45,700,l),
(45,0,l)
);
},
{
closed = 1;
nodes = (
(515,0,l),
(515,156,l),
(110,156,l),
(110,0,l)
);
}
);
width = 520;
}
);
metricLeft = H;
metricRight = "=A-5";
unicode = 76;
},
{
glyphname = Lslash;
lastChange = "2025-05-21 11:28:56 +0000";
layers = (
{
layerId = m01;
shapes = (
{
closed = 1;
nodes = (
(288,417,l),
(288,440,l),
(10,357,l),
(10,334,l)
);
},
{
pos = (35,0);
ref = L;
}
);
width = 532;
},
{
layerId = m002;
shapes = (
{
closed = 1;
nodes = (
(318,392,l),
(318,470,l),
(10,377,l),
(10,299,l)
);
},
{
pos = (55,0);
ref = L;
}
);
width = 567;
},
{
layerId = m003;
shapes = (
{
closed = 1;
nodes = (
(346,374,l),
(346,490,l),
(10,390,l),
(10,274,l)
);
},
{
pos = (31,0);
ref = L;
}
);
width = 551;
}
);
metricRight = L;
unicode = 321;
},
{
glyphname = M;
kernLeft = H;
kernRight = H;
lastChange = "2025-04-04 18:29:01 +0000";
layers = (
{
anchors = (
{
name = bottom;
pos = (356,0);
},
{
name = top;
pos = (356,700);
}
);
layerId = m01;
shapes = (
{
closed = 1;
nodes = (
(641,0,l),
(641,700,l),
(613,700,l),
(613,0,l)
);
},
{
closed = 1;
nodes = (
(93,0,l),
(93,700,l),
(65,700,l),
(65,0,l)
);
},
{
pos = (58,0);
ref = V;
}
);
width = 711;
},
{
anchors = (
{
name = bottom;
pos = (386,0);
},
{
name = top;
pos = (386,700);
}
);
layerId = m002;
shapes = (
{
closed = 1;
nodes = (
(726,0,l),
(726,700,l),
(638,700,l),
(638,0,l)
);
},
{
closed = 1;
nodes = (
(128,0,l),
(128,700,l),
(40,700,l),
(40,0,l)
);
},
{
pos = (55,0);
ref = V;
}
);
width = 771;
},
{
anchors = (
{
name = bottom;
pos = (432,0);
},
{
name = top;
pos = (432,700);
}
);
layerId = m003;
shapes = (
{
closed = 1;
nodes = (
(818,0,l),
(818,700,l),
(654,700,l),
(654,0,l)
);
},
{
closed = 1;
nodes = (
(204,0,l),
(204,700,l),
(40,700,l),
(40,0,l)
);
},
{
pos = (71,0);
ref = V;
}
);
width = 863;
}
);
metricLeft = "=H-5";
metricRight = H;
unicode = 77;
},
{
glyphname = N;
kernLeft = H;
kernRight = H;
lastChange = "2025-05-16 16:58:58 +0000";
layers = (
{
anchors = (
{
name = bottom;
pos = (327,0);
},
{
name = top;
pos = (327,700);
}
);
layerId = m01;
shapes = (
{
closed = 1;
nodes = (
(584,0,l),
(101,700,l),
(70,700,l),
(551,0,l)
);
},
{
closed = 1;
nodes = (
(93,0,l),
(93,700,l),
(65,700,l),
(65,0,l)
);
},
{
closed = 1;
nodes = (
(589,0,l),
(589,700,l),
(561,700,l),
(561,0,l)
);
}
);
width = 654;
},
{
anchors = (
{
name = bottom;
pos = (345,0);
},
{
name = top;
pos = (345,700);
}
);
layerId = m002;
shapes = (
{
closed = 1;
nodes = (
(649,0,l),
(144,700,l),
(40,700,l),
(545,0,l)
);
},
{
closed = 1;
nodes = (
(128,0,l),
(128,700,l),
(40,700,l),
(40,0,l)
);
},
{
closed = 1;
nodes = (
(649,0,l),
(649,700,l),
(561,700,l),
(561,0,l)
);
}
);
width = 689;
},
{
anchors = (
{
name = bottom;
pos = (363,0);
},
{
name = top;
pos = (363,700);
}
);
layerId = m003;
shapes = (
{
closed = 1;
nodes = (
(651,0,l),
(236,700,l),
(74,700,l),
(489,0,l)
);
},
{
closed = 1;
nodes = (
(204,0,l),
(204,700,l),
(40,700,l),
(40,0,l)
);
},
{
closed = 1;
nodes = (
(685,0,l),
(685,700,l),
(521,700,l),
(521,0,l)
);
}
);
width = 725;
}
);
metricLeft = "=H-5";
metricRight = "=H-5";
unicode = 78;
},
{
glyphname = O;
kernLeft = O;
kernRight = O;
lastChange = "2025-04-04 18:58:06 +0000";
layers = (
{
anchors = (
{
name = bottom;
pos = (411,0);
},
{
name = center;
pos = (411,350);
},
{
name = ogonek;
pos = (740,10);
},
{
name = top;
pos = (411,700);
},
{
name = topleft;
pos = (20,700);
},
{
name = topright;
pos = (802,700);
}
);
layerId = m01;
shapes = (
{
closed = 1;
nodes = (
(616,-16,o),
(777,145,o),
(777,350,cs),
(777,555,o),
(616,716,o),
(411,716,cs),
(206,716,o),
(45,555,o),
(45,350,cs),
(45,145,o),
(206,-16,o),
(411,-16,cs)
);
},
{
closed = 1;
nodes = (
(223,8,o),
(75,158,o),
(75,350,cs),
(75,542,o),
(223,692,o),
(411,692,cs),
(599,692,o),
(747,542,o),
(747,350,cs),
(747,158,o),
(599,8,o),
(411,8,cs)
);
}
);
width = 822;
},
{
anchors = (
{
name = bottom;
pos = (386,0);
},
{
name = center;
pos = (386,350);
},
{
name = ogonek;
pos = (695,10);
},
{
name = top;
pos = (386,700);
},
{
name = topleft;
pos = (20,700);
},
{
name = topright;
pos = (752,700);
}
);
layerId = m002;
shapes = (
{
closed = 1;
nodes = (
(591,-16,o),
(752,145,o),
(752,350,cs),
(752,555,o),
(591,716,o),
(386,716,cs),
(181,716,o),
(20,555,o),
(20,350,cs),
(20,145,o),
(181,-16,o),
(386,-16,cs)
);
},
{
closed = 1;
nodes = (
(221,66,o),
(110,177,o),
(110,350,cs),
(110,523,o),
(221,634,o),
(386,634,cs),
(551,634,o),
(662,523,o),
(662,350,cs),
(662,177,o),
(551,66,o),
(386,66,cs)
);
}
);
width = 772;
},
{
anchors = (
{
name = bottom;
pos = (386,0);
},
{
name = center;
pos = (386,350);
},
{
name = ogonek;
pos = (695,10);
},
{
name = top;
pos = (386,700);
},
{
name = topleft;
pos = (20,700);
},
{
name = topright;
pos = (752,700);
}
);
layerId = m003;
shapes = (
{
closed = 1;
nodes = (
(597,-16,o),
(762,145,o),
(762,350,cs),
(762,555,o),
(597,716,o),
(386,716,cs),
(175,716,o),
(10,555,o),
(10,350,cs),
(10,145,o),
(175,-16,o),
(386,-16,cs)
);
},
{
closed = 1;
nodes = (
(268,142,o),
(176,234,o),
(176,350,cs),
(176,466,o),
(268,558,o),
(386,558,cs),
(504,558,o),
(596,466,o),
(596,350,cs),
(596,234,o),
(504,142,o),
(386,142,cs)
);
}
);
width = 772;
}
);
unicode = 79;
},
{
glyphname = Oopen;
lastChange = "2025-05-21 11:28:56 +0000";
layers = (
{
anchors = (
{
name = bottom;
pos = (169,0);
},
{
name = center;
pos = (169,350);
},
{
name = ogonek;
pos = (498,10);
},
{
name = top;
pos = (169,700);
},
{
name = topleft;
pos = (-222,700);
},
{
name = topright;
pos = (560,700);
}
);
layerId = m01;
shapes = (
{
closed = 1;
nodes = (
(35,665,l),
(76,682,o),
(121,692,o),
(169,692,cs),
(357,692,o),
(505,542,o),
(505,350,cs),
(505,158,o),
(357,8,o),
(169,8,cs),
(121,8,o),
(76,18,o),
(35,35,c),
(35,8,l),
(77,-7,o),
(122,-16,o),
(169,-16,cs),
(374,-16,o),
(535,145,o),
(535,350,cs),
(535,555,o),
(374,716,o),
(169,716,cs),
(122,716,o),
(77,707,o),
(35,692,c)
);
}
);
width = 580;
},
{
anchors = (
{
name = bottom;
pos = (182,0);
},
{
name = center;
pos = (182,350);
},
{
name = ogonek;
pos = (491,10);
},
{
name = top;
pos = (182,700);
},
{
name = topleft;
pos = (-184,700);
},
{
name = topright;
pos = (548,700);
}
);
layerId = m002;
shapes = (
{
closed = 1;
nodes = (
(23,590,l),
(67,619,o),
(121,634,o),
(182,634,cs),
(347,634,o),
(458,523,o),
(458,350,cs),
(458,177,o),
(347,66,o),
(182,66,cs),
(121,66,o),
(67,81,o),
(23,110,c),
(23,19,l),
(71,-3,o),
(125,-16,o),
(182,-16,cs),
(387,-16,o),
(548,145,o),
(548,350,cs),
(548,555,o),
(387,716,o),
(182,716,cs),
(125,716,o),
(71,703,o),
(23,681,c)
);
}
);
width = 568;
},
{
anchors = (
{
name = bottom;
pos = (166,0);
},
{
name = center;
pos = (166,350);
},
{
name = ogonek;
pos = (475,10);
},
{
name = top;
pos = (166,700);
},
{
name = topleft;
pos = (-200,700);
},
{
name = topright;
pos = (532,700);
}
);
layerId = m003;
shapes = (
{
closed = 1;
nodes = (
(23,503,l),
(60,537,o),
(110,558,o),
(166,558,cs),
(284,558,o),
(376,466,o),
(376,350,cs),
(376,234,o),
(284,142,o),
(166,142,cs),
(110,142,o),
(60,163,o),
(23,197,c),
(23,11,l),
(67,-7,o),
(115,-16,o),
(166,-16,cs),
(377,-16,o),
(542,145,o),
(542,350,cs),
(542,555,o),
(377,716,o),
(166,716,cs),
(115,716,o),
(67,707,o),
(23,689,c)
);
}
);
width = 552;
}
);
metricLeft = "=|C";
metricRight = O;
unicode = 390;
},
{
glyphname = OE;
kernLeft = O;
kernRight = E;
lastChange = "2025-05-21 11:28:56 +0000";
layers = (
{
anchors = (
{
name = bottom;
pos = (521,0);
},
{
name = top;
pos = (521,700);
}
);
layerId = m01;
shapes = (
{
closed = 1;
nodes = (
(460,-16,o),
(577,84,o),
(599,212,c),
(599,0,l),
(1006,0,l),
(1006,26,l),
(627,26,l),
(627,348,l),
(986,348,l),
(986,374,l),
(627,374,l),
(627,674,l),
(998,674,l),
(998,700,l),
(599,700,l),
(599,488,l),
(577,616,o),
(460,716,o),
(332,716,cs),
(171,716,o),
(45,555,o),
(45,350,cs),
(45,145,o),
(171,-16,o),
(332,-16,cs)
);
},
{
closed = 1;
nodes = (
(188,10,o),
(73,160,o),
(73,350,cs),
(73,540,o),
(188,690,o),
(335,690,cs),
(482,690,o),
(597,540,o),
(597,350,cs),
(597,160,o),
(482,10,o),
(335,10,cs)
);
}
);
width = 1041;
},
{
anchors = (
{
name = bottom;
pos = (502,0);
},
{
name = top;
pos = (502,700);
}
);
layerId = m002;
shapes = (
{
closed = 1;
nodes = (
(438,-16,o),
(520,23,o),
(575,92,c),
(575,0,l),
(981,0,l),
(981,80,l),
(663,80,l),
(663,322,l),
(961,322,l),
(961,400,l),
(663,400,l),
(663,622,l),
(973,622,l),
(973,700,l),
(575,700,l),
(575,608,l),
(520,677,o),
(438,716,o),
(336,716,cs),
(141,716,o),
(20,576,o),
(20,350,cs),
(20,124,o),
(141,-16,o),
(336,-16,cs)
);
},
{
closed = 1;
nodes = (
(197,66,o),
(110,175,o),
(110,350,cs),
(110,525,o),
(197,634,o),
(336,634,cs),
(475,634,o),
(562,525,o),
(562,350,cs),
(562,175,o),
(475,66,o),
(336,66,cs)
);
}
);
width = 1004;
},
{
anchors = (
{
name = bottom;
pos = (497,0);
},
{
name = top;
pos = (497,700);
}
);
layerId = m003;
shapes = (
{
closed = 1;
nodes = (
(444,-16,o),
(517,32,o),
(565,92,c),
(565,0,l),
(971,0,l),
(971,160,l),
(729,160,l),
(729,283,l),
(951,283,l),
(951,439,l),
(729,439,l),
(729,544,l),
(963,544,l),
(963,700,l),
(565,700,l),
(565,608,l),
(517,668,o),
(444,716,o),
(326,716,cs),
(149,716,o),
(10,555,o),
(10,350,cs),
(10,145,o),
(149,-16,o),
(326,-16,cs)
);
},
{
closed = 1;
nodes = (
(242,142,o),
(176,234,o),
(176,350,cs),
(176,466,o),
(242,558,o),
(326,558,cs),
(416,558,o),
(486,466,o),
(486,350,cs),
(486,234,o),
(416,142,o),
(326,142,cs)
);
}
);
width = 994;
}
);
metricLeft = O;
metricRight = E;
unicode = 338;
},
{
glyphname = P;
kernLeft = H;
kernRight = P;
lastChange = "2025-04-04 18:29:01 +0000";
layers = (
{
anchors = (
{
name = bottom;
pos = (309,0);
},
{
name = top;
pos = (309,700);
}
);
layerId = m01;
shapes = (
{
closed = 1;
nodes = (
(346,244,ls),
(473,244,o),
(572,344,o),
(572,472,cs),
(572,601,o),
(473,701,o),
(346,700,c),
(82,700,l),
(82,676,l),
(346,676,ls),
(456,676,o),
(542,586,o),
(542,472,cs),
(542,358,o),
(456,268,o),
(346,268,cs),
(82,268,l),
(82,244,l)
);
},
{
closed = 1;
nodes = (
(98,0,l),
(98,700,l),
(70,700,l),
(70,0,l)
);
}
);
width = 617;
},
{
anchors = (
{
name = bottom;
pos = (299,0);
},
{
name = top;
pos = (299,700);
}
);
layerId = m002;
shapes = (
{
closed = 1;
nodes = (
(351,244,ls),
(478,244,o),
(577,344,o),
(577,472,cs),
(577,601,o),
(478,701,o),
(351,700,c),
(87,700,l),
(87,618,l),
(351,618,ls),
(427,618,o),
(487,554,o),
(487,472,cs),
(487,390,o),
(427,326,o),
(351,326,cs),
(87,326,l),
(87,244,l)
);
},
{
closed = 1;
nodes = (
(133,0,l),
(133,700,l),
(45,700,l),
(45,0,l)
);
}
);
width = 597;
},
{
anchors = (
{
name = bottom;
pos = (313,0);
},
{
name = top;
pos = (313,700);
}
);
layerId = m003;
shapes = (
{
closed = 1;
nodes = (
(368,206,ls),
(506,206,o),
(615,315,o),
(615,453,cs),
(615,592,o),
(506,701,o),
(368,700,c),
(125,700,l),
(125,544,l),
(368,544,ls),
(419,544,o),
(459,504,o),
(459,453,cs),
(459,402,o),
(419,362,o),
(368,362,cs),
(125,362,l),
(125,206,l)
);
},
{
closed = 1;
nodes = (
(209,0,l),
(209,700,l),
(45,700,l),
(45,0,l)
);
}
);
width = 625;
}
);
metricLeft = H;
metricRight = O;
unicode = 80;
},
{
glyphname = Thorn;
kernLeft = H;
kernRight = Thorn;
lastChange = "2025-05-21 11:28:56 +0000";
layers = (
{
anchors = (
{
name = bottom;
pos = (279,0);
},
{
name = top;
pos = (279,700);
}
);
layerId = m01;
shapes = (
{
closed = 1;
nodes = (
(326,154,ls),
(428,154,o),
(508,233,o),
(508,334,cs),
(508,436,o),
(428,515,o),
(326,514,c),
(82,514,l),
(82,488,l),
(326,488,ls),
(412,488,o),
(480,420,o),
(480,334,cs),
(480,248,o),
(412,180,o),
(326,180,cs),
(82,180,l),
(82,154,l)
);
},
{
closed = 1;
nodes = (
(98,0,l),
(98,700,l),
(70,700,l),
(70,0,l)
);
}
);
width = 553;
},
{
anchors = (
{
name = bottom;
pos = (284,0);
},
{
name = top;
pos = (284,700);
}
);
layerId = m002;
shapes = (
{
closed = 1;
nodes = (
(331,126,ls),
(452,126,o),
(547,218,o),
(547,334,cs),
(547,451,o),
(452,543,o),
(331,542,c),
(87,542,l),
(87,460,l),
(331,460,ls),
(402,460,o),
(457,405,o),
(457,334,cs),
(457,263,o),
(402,208,o),
(331,208,cs),
(87,208,l),
(87,126,l)
);
},
{
closed = 1;
nodes = (
(133,0,l),
(133,700,l),
(45,700,l),
(45,0,l)
);
}
);
width = 567;
},
{
anchors = (
{
name = bottom;
pos = (317,0);
},
{
name = top;
pos = (317,700);
}
);
layerId = m003;
shapes = (
{
closed = 1;
nodes = (
(369,91,ls),
(513,91,o),
(626,198,o),
(626,334,cs),
(626,471,o),
(513,578,o),
(369,577,c),
(125,577,l),
(125,425,l),
(369,425,ls),
(420,425,o),
(460,385,o),
(460,334,cs),
(460,283,o),
(420,243,o),
(369,243,cs),
(125,243,l),
(125,91,l)
);
},
{
closed = 1;
nodes = (
(209,0,l),
(209,700,l),
(45,700,l),
(45,0,l)
);
}
);
width = 636;
}
);
metricLeft = P;
metricRight = P;
unicode = 222;
},
{
glyphname = Q;
kernLeft = O;
kernRight = O;
lastChange = "2025-04-04 18:29:01 +0000";
layers = (
{
anchors = (
{
name = bottom;
pos = (411,0);
},
{
name = top;
pos = (411,700);
}
);
layerId = m01;
shapes = (
{
closed = 1;
nodes = (
(694,-17,l),
(615,80,l),
(592,65,l),
(659,-17,l)
);
},
{
ref = O;
}
);
width = 822;
},
{
anchors = (
{
name = bottom;
pos = (386,0);
},
{
name = top;
pos = (386,700);
}
);
layerId = m002;
shapes = (
{
closed = 1;
nodes = (
(731,-17,l),
(622,116,l),
(548,74,l),
(622,-17,l)
);
},
{
ref = O;
}
);
width = 772;
},
{
anchors = (
{
name = bottom;
pos = (386,0);
},
{
name = top;
pos = (386,700);
}
);
layerId = m003;
shapes = (
{
closed = 1;
nodes = (
(761,-17,l),
(626,148,l),
(528,74,l),
(602,-17,l)
);
},
{
ref = O;
}
);
width = 772;
}
);
metricLeft = O;
metricRight = O;
unicode = 81;
},
{
glyphname = R;
kernLeft = H;
kernRight = R;
lastChange = "2025-05-16 18:34:19 +0000";
layers = (
{
anchors = (
{
name = bottom;
pos = (291,0);
},
{
name = top;
pos = (291,700);
}
);
layerId = m01;
shapes = (
{
closed = 1;
nodes = (
(346,274,ls),
(473,274,o),
(572,368,o),
(572,487,cs),
(572,607,o),
(473,701,o),
(346,700,c),
(82,700,l),
(82,676,l),
(346,676,ls),
(456,676,o),
(542,593,o),
(542,487,cs),
(542,381,o),
(456,298,o),
(346,298,cs),
(82,298,l),
(82,274,l)
);
},
{
closed = 1;
nodes = (
(98,0,l),
(98,700,l),
(70,700,l),
(70,0,l)
);
},
{
closed = 1;
nodes = (
(560,0,l),
(321,289,l),
(290,289,l),
(529,0,l)
);
}
);
width = 582;
},
{
anchors = (
{
name = bottom;
pos = (307,0);
},
{
name = top;
pos = (307,700);
}
);
layerId = m002;
shapes = (
{
closed = 1;
nodes = (
(351,274,ls),
(478,274,o),
(577,368,o),
(577,487,cs),
(577,607,o),
(478,701,o),
(351,700,c),
(87,700,l),
(87,618,l),
(351,618,ls),
(427,618,o),
(487,560,o),
(487,487,cs),
(487,414,o),
(427,356,o),
(351,356,cs),
(87,356,l),
(87,274,l)
);
},
{
closed = 1;
nodes = (
(133,0,l),
(133,700,l),
(45,700,l),
(45,0,l)
);
},
{
closed = 1;
nodes = (
(604,0,l),
(341,318,l),
(232,318,l),
(495,0,l)
);
}
);
width = 614;
},
{
anchors = (
{
name = bottom;
pos = (327,0);
},
{
name = top;
pos = (327,700);
}
);
layerId = m003;
shapes = (
{
closed = 1;
nodes = (
(388,246,ls),
(515,246,o),
(615,346,o),
(615,473,cs),
(615,601,o),
(515,701,o),
(388,700,c),
(125,700,l),
(125,544,l),
(388,544,ls),
(428,544,o),
(459,513,o),
(459,473,cs),
(459,433,o),
(428,402,o),
(388,402,cs),
(125,402,l),
(125,246,l)
);
},
{
closed = 1;
nodes = (
(209,0,l),
(209,700,l),
(45,700,l),
(45,0,l)
);
},
{
closed = 1;
nodes = (
(644,0,l),
(381,318,l),
(197,318,l),
(460,0,l)
);
}
);
width = 654;
}
);
metricLeft = H;
metricRight = A;
unicode = 82;
},
{
glyphname = Rstroke;
lastChange = "2025-05-21 11:28:56 +0000";
layers = (
{
anchors = (
{
name = bottom;
pos = (351,0);
},
{
name = top;
pos = (351,700);
}
);
layerId = m01;
shapes = (
{
closed = 1;
nodes = (
(406,274,ls),
(533,274,o),
(632,368,o),
(632,487,cs),
(632,607,o),
(533,701,o),
(406,700,c),
(142,700,l),
(142,676,l),
(406,676,ls),
(516,676,o),
(602,593,o),
(602,487,cs),
(602,381,o),
(516,298,o),
(406,298,cs),
(10,298,l),
(10,274,l)
);
},
{
closed = 1;
nodes = (
(158,0,l),
(158,700,l),
(130,700,l),
(130,0,l)
);
},
{
closed = 1;
nodes = (
(620,0,l),
(381,289,l),
(350,289,l),
(589,0,l)
);
}
);
width = 642;
},
{
anchors = (
{
name = bottom;
pos = (382,0);
},
{
name = top;
pos = (382,700);
}
);
layerId = m002;
shapes = (
{
closed = 1;
nodes = (
(426,274,ls),
(553,274,o),
(652,368,o),
(652,487,cs),
(652,607,o),
(553,701,o),
(426,700,c),
(162,700,l),
(162,618,l),
(426,618,ls),
(502,618,o),
(562,560,o),
(562,487,cs),
(562,414,o),
(502,356,o),
(426,356,cs),
(10,356,l),
(10,274,l)
);
},
{
closed = 1;
nodes = (
(208,0,l),
(208,700,l),
(120,700,l),
(120,0,l)
);
},
{
closed = 1;
nodes = (
(679,0,l),
(416,318,l),
(307,318,l),
(570,0,l)
);
}
);
width = 689;
},
{
anchors = (
{
name = bottom;
pos = (392,0);
},
{
name = top;
pos = (392,700);
}
);
layerId = m003;
shapes = (
{
closed = 1;
nodes = (
(453,246,ls),
(580,246,o),
(680,346,o),
(680,473,cs),
(680,601,o),
(580,701,o),
(453,700,c),
(190,700,l),
(190,544,l),
(453,544,ls),
(493,544,o),
(524,513,o),
(524,473,cs),
(524,433,o),
(493,402,o),
(453,402,cs),
(10,402,l),
(10,246,l)
);
},
{
closed = 1;
nodes = (
(274,0,l),
(274,700,l),
(110,700,l),
(110,0,l)
);
},
{
closed = 1;
nodes = (
(709,0,l),
(446,318,l),
(262,318,l),
(525,0,l)
);
}
);
width = 719;
}
);
unicode = 588;
},
{
glyphname = S;
kernLeft = S;
kernRight = S;
lastChange = "2025-04-04 18:29:01 +0000";
layers = (
{
anchors = (
{
name = bottom;
pos = (250,0);
},
{
name = top;
pos = (250,700);
}
);
layerId = m01;
shapes = (
{
closed = 1;
nodes = (
(372,-16,o),
(469,88,o),
(469,187,c),
(469,326,o),
(374,364,o),
(278,389,cs),
(181,415,o),
(84,411,o),
(84,540,c),
(84,624,o),
(154,692,o),
(242,692,cs),
(330,692,o),
(400,619,o),
(400,525,c),
(430,525,l),
(430,632,o),
(345,716,o),
(237,716,cs),
(135,716,o),
(54,632,o),
(54,527,c),
(57,404,o),
(169,391,o),
(271,362,cs),
(359,336,o),
(439,308,o),
(439,186,c),
(439,96,o),
(352,8,o),
(242,8,cs),
(132,8,o),
(45,100,o),
(45,217,c),
(15,217,l),
(15,87,o),
(118,-16,o),
(248,-16,cs)
);
}
);
width = 499;
},
{
anchors = (
{
name = bottom;
pos = (272,0);
},
{
name = top;
pos = (272,700);
}
);
layerId = m002;
shapes = (
{
closed = 1;
nodes = (
(412,-16,o),
(524,71,o),
(524,211,c),
(524,372,o),
(355,407,o),
(308,420,cs),
(254,435,o),
(139,443,o),
(139,538,c),
(139,606,o),
(211,634,o),
(267,634,cs),
(323,634,o),
(395,587,o),
(395,525,c),
(485,525,l),
(485,633,o),
(380,716,o),
(262,716,cs),
(149,716,o),
(49,641,o),
(49,525,c),
(49,380,o),
(195,366,o),
(259,347,cs),
(323,328,o),
(434,317,o),
(434,198,c),
(434,118,o),
(345,66,o),
(267,66,cs),
(189,66,o),
(100,116,o),
(100,217,c),
(10,217,l),
(10,70,o),
(126,-16,o),
(273,-16,cs)
);
}
);
width = 544;
},
{
anchors = (
{
name = bottom;
pos = (310,0);
},
{
name = top;
pos = (310,700);
}
);
layerId = m003;
shapes = (
{
closed = 1;
nodes = (
(481,-16,o),
(600,86,o),
(600,231,c),
(600,351,o),
(476,398,o),
(369,432,cs),
(287,459,o),
(215,478,o),
(215,518,c),
(215,563,o),
(252,594,o),
(305,594,cs),
(358,594,o),
(395,566,o),
(395,525,c),
(561,525,l),
(561,637,o),
(454,716,o),
(300,716,cs),
(152,716,o),
(49,629,o),
(49,505,c),
(49,389,o),
(211,354,o),
(325,311,cs),
(386,287,o),
(434,261,o),
(434,218,c),
(434,152,o),
(381,106,o),
(305,106,cs),
(229,106,o),
(176,152,o),
(176,217,c),
(10,217,l),
(10,80,o),
(134,-16,o),
(311,-16,cs)
);
}
);
width = 620;
}
);
unicode = 83;
},
{
glyphname = T;
kernLeft = T;
kernRight = T;
lastChange = "2025-04-04 18:29:01 +0000";
layers = (
{
anchors = (
{
name = bottom;
pos = (305,0);
},
{
name = center;
pos = (305,350);
},
{
name = top;
pos = (305,700);
}
);
layerId = m01;
shapes = (
{
closed = 1;
nodes = (
(319,0,l),
(319,700,l),
(291,700,l),
(291,0,l)
);
},
{
closed = 1;
nodes = (
(600,676,l),
(600,700,l),
(10,700,l),
(10,676,l)
);
}
);
width = 610;
},
{
anchors = (
{
name = bottom;
pos = (305,0);
},
{
name = center;
pos = (305,350);
},
{
name = top;
pos = (305,700);
}
);
layerId = m002;
shapes = (
{
closed = 1;
nodes = (
(349,0,l),
(349,700,l),
(261,700,l),
(261,0,l)
);
},
{
closed = 1;
nodes = (
(600,618,l),
(600,700,l),
(10,700,l),
(10,618,l)
);
}
);
width = 610;
},
{
anchors = (
{
name = bottom;
pos = (305,0);
},
{
name = center;
pos = (305,350);
},
{
name = top;
pos = (305,700);
}
);
layerId = m003;
shapes = (
{
closed = 1;
nodes = (
(387,0,l),
(387,700,l),
(223,700,l),
(223,0,l)
);
},
{
closed = 1;
nodes = (
(600,544,l),
(600,700,l),
(10,700,l),
(10,544,l)
);
}
);
width = 610;
}
);
metricLeft = A;
metricRight = A;
unicode = 84;
},
{
glyphname = U;
kernLeft = U;
kernRight = U;
lastChange = "2025-04-04 19:13:49 +0000";
layers = (
{
anchors = (
{
name = bottom;
pos = (374,0);
},
{
name = ogonek;
pos = (672,10);
},
{
name = top;
pos = (374,700);
},
{
name = topright;
pos = (727,700);
}
);
layerId = m01;
shapes = (
{
closed = 1;
nodes = (
(547,-16,o),
(682,119,o),
(682,290,cs),
(682,700,l),
(654,700,l),
(654,290,l),
(654,133,o),
(532,10,o),
(376,10,cs),
(220,10,o),
(98,133,o),
(98,290,cs),
(98,700,l),
(70,700,l),
(70,290,l),
(70,119,o),
(205,-16,o),
(376,-16,cs)
);
}
);
width = 747;
},
{
anchors = (
{
name = bottom;
pos = (349,0);
},
{
name = ogonek;
pos = (627,10);
},
{
name = top;
pos = (349,700);
},
{
name = topright;
pos = (677,700);
}
);
layerId = m002;
shapes = (
{
closed = 1;
nodes = (
(522,-16,o),
(657,119,o),
(657,290,cs),
(657,700,l),
(567,700,l),
(567,290,l),
(567,165,o),
(472,66,o),
(351,66,cs),
(230,66,o),
(135,165,o),
(135,290,cs),
(135,700,l),
(45,700,l),
(45,290,l),
(45,119,o),
(180,-16,o),
(351,-16,cs)
);
}
);
width = 697;
},
{
anchors = (
{
name = bottom;
pos = (387,0);
},
{
name = ogonek;
pos = (696,10);
},
{
name = top;
pos = (387,700);
},
{
name = topright;
pos = (753,700);
}
);
layerId = m003;
shapes = (
{
closed = 1;
nodes = (
(582,-16,o),
(733,121,o),
(733,295,cs),
(733,700,l),
(567,700,l),
(567,290,l),
(567,206,o),
(489,140,o),
(389,140,cs),
(289,140,o),
(211,206,o),
(211,290,cs),
(211,700,l),
(45,700,l),
(45,295,l),
(45,121,o),
(196,-16,o),
(389,-16,cs)
);
}
);
width = 773;
}
);
metricLeft = H;
metricRight = "=H-5";
unicode = 85;
},
{
glyphname = Ubar;
kernLeft = Ubar;
kernRight = Ubar;
lastChange = "2025-05-21 11:28:56 +0000";
layers = (
{
anchors = (
{
name = bottom;
pos = (451,0);
},
{
name = top;
pos = (451,700);
}
);
layerId = m01;
shapes = (
{
closed = 1;
nodes = (
(836,351,l),
(836,375,l),
(90,375,l),
(90,351,l)
);
},
{
pos = (87,0);
ref = U;
}
);
width = 921;
},
{
anchors = (
{
name = bottom;
pos = (436,0);
},
{
name = top;
pos = (436,700);
}
);
layerId = m002;
shapes = (
{
closed = 1;
nodes = (
(811,324,l),
(811,402,l),
(65,402,l),
(65,324,l)
);
},
{
pos = (87,0);
ref = U;
}
);
width = 871;
},
{
anchors = (
{
name = bottom;
pos = (462,0);
},
{
name = top;
pos = (462,700);
}
);
layerId = m003;
shapes = (
{
closed = 1;
nodes = (
(865,310,l),
(865,418,l),
(65,418,l),
(65,310,l)
);
},
{
pos = (76,0);
ref = U;
}
);
width = 925;
}
);
metricLeft = "=U+20";
metricRight = "=U+20";
unicode = 580;
},
{
glyphname = V;
kernLeft = V;
kernRight = V;
lastChange = "2025-04-04 18:29:01 +0000";
layers = (
{
anchors = (
{
name = bottom;
pos = (296,0);
},
{
name = top;
pos = (296,700);
}
);
layerId = m01;
shapes = (
{
closed = 1;
nodes = (
(310,0,l),
(581,700,l),
(547,700,l),
(285,12,l),
(304,12,l),
(44,700,l),
(10,700,l),
(280,0,l)
);
}
);
width = 591;
},
{
anchors = (
{
name = bottom;
pos = (328,0);
},
{
name = top;
pos = (328,700);
}
);
layerId = m002;
shapes = (
{
closed = 1;
nodes = (
(373,0,l),
(646,700,l),
(550,700,l),
(315,69,l),
(340,69,l),
(107,700,l),
(10,700,l),
(283,0,l)
);
}
);
width = 656;
},
{
anchors = (
{
name = bottom;
pos = (358,0);
},
{
name = top;
pos = (358,700);
}
);
layerId = m003;
shapes = (
{
closed = 1;
nodes = (
(443,0,l),
(706,700,l),
(531,700,l),
(323,56,l),
(392,56,l),
(185,700,l),
(10,700,l),
(273,0,l)
);
}
);
width = 716;
}
);
metricLeft = A;
metricRight = A;
unicode = 86;
},
{
glyphname = W;
kernLeft = V;
kernRight = V;
lastChange = "2025-05-16 18:26:38 +0000";
layers = (
{
anchors = (
{
name = bottom;
pos = (450,0);
},
{
name = top;
pos = (450,700);
}
);
layerId = m01;
shapes = (
{
closed = 1;
nodes = (
(672,0,l),
(889,700,l),
(857,700,l),
(660,49,l),
(665,49,l),
(468,700,l),
(437,700,l),
(654,0,l)
);
},
{
closed = 1;
nodes = (
(246,0,l),
(463,700,l),
(432,700,l),
(235,49,l),
(240,49,l),
(43,700,l),
(10,700,l),
(227,0,l)
);
}
);
width = 899;
},
{
anchors = (
{
name = bottom;
pos = (503,0);
},
{
name = top;
pos = (503,700);
}
);
layerId = m002;
shapes = (
{
closed = 1;
nodes = (
(773,0,l),
(996,700,l),
(900,700,l),
(716,69,l),
(741,69,l),
(557,700,l),
(460,700,l),
(683,0,l)
);
},
{
closed = 1;
nodes = (
(323,0,l),
(546,700,l),
(450,700,l),
(266,69,l),
(291,69,l),
(107,700,l),
(10,700,l),
(233,0,l)
);
}
);
width = 1006;
},
{
anchors = (
{
name = bottom;
pos = (537,0);
},
{
name = top;
pos = (537,700);
}
);
layerId = m003;
shapes = (
{
closed = 1;
nodes = (
(840,0,l),
(1063,700,l),
(888,700,l),
(716,69,l),
(805,69,l),
(624,700,l),
(457,700,l),
(680,0,l)
);
},
{
closed = 1;
nodes = (
(393,0,l),
(616,700,l),
(450,700,l),
(269,69,l),
(358,69,l),
(185,700,l),
(10,700,l),
(233,0,l)
);
}
);
width = 1073;
}
);
metricLeft = A;
metricRight = A;
unicode = 87;
},
{
glyphname = X;
kernLeft = X;
kernRight = X;
lastChange = "2025-04-04 18:29:01 +0000";
layers = (
{
anchors = (
{
name = bottom;
pos = (302,0);
},
{
name = top;
pos = (302,700);
}
);
layerId = m01;
shapes = (
{
closed = 1;
nodes = (
(593,0,l),
(92,700,l),
(56,700,l),
(557,0,l)
);
},
{
closed = 1;
nodes = (
(46,0,l),
(308,367,l),
(287,388,l),
(10,0,l)
);
},
{
closed = 1;
nodes = (
(559,700,l),
(524,700,l),
(300,388,l),
(321,368,l)
);
}
);
width = 603;
},
{
anchors = (
{
name = bottom;
pos = (335,0);
},
{
name = top;
pos = (335,700);
}
);
layerId = m002;
shapes = (
{
closed = 1;
nodes = (
(660,0,l),
(159,700,l),
(57,700,l),
(558,0,l)
);
},
{
closed = 1;
nodes = (
(114,0,l),
(354,336,l),
(298,402,l),
(10,0,l)
);
},
{
closed = 1;
nodes = (
(627,700,l),
(524,700,l),
(311,402,l),
(370,341,l)
);
}
);
width = 670;
},
{
anchors = (
{
name = bottom;
pos = (375,0);
},
{
name = top;
pos = (375,700);
}
);
layerId = m003;
shapes = (
{
closed = 1;
nodes = (
(740,0,l),
(239,700,l),
(57,700,l),
(558,0,l)
);
},
{
closed = 1;
nodes = (
(184,0,l),
(424,336,l),
(298,402,l),
(10,0,l)
);
},
{
closed = 1;
nodes = (
(717,700,l),
(544,700,l),
(331,402,l),
(460,341,l)
);
}
);
width = 750;
}
);
metricLeft = A;
metricRight = A;
unicode = 88;
},
{
glyphname = Y;
kernLeft = Y;
kernRight = Y;
lastChange = "2025-05-19 16:39:02 +0000";
layers = (
{
anchors = (
{
name = bottom;
pos = (298,0);
},
{
name = top;
pos = (298,700);
},
{
name = topleft;
pos = (20,700);
}
);
layerId = m01;
shapes = (
{
closed = 1;
nodes = (
(312,0,l),
(312,282,l),
(586,700,l),
(551,700,l),
(288,295,l),
(308,295,l),
(45,700,l),
(10,700,l),
(284,282,l),
(284,0,l)
);
}
);
width = 596;
},
{
anchors = (
{
name = bottom;
pos = (328,0);
},
{
name = top;
pos = (328,700);
},
{
name = topleft;
pos = (20,700);
}
);
layerId = m002;
shapes = (
{
closed = 1;
nodes = (
(369,0,l),
(369,282,l),
(646,700,l),
(551,700,l),
(308,340,l),
(348,340,l),
(105,700,l),
(10,700,l),
(287,282,l),
(287,0,l)
);
}
);
width = 656;
},
{
anchors = (
{
name = bottom;
pos = (370,0);
},
{
name = top;
pos = (370,700);
},
{
name = topleft;
pos = (32,700);
}
);
layerId = m003;
shapes = (
{
closed = 1;
nodes = (
(453,0,l),
(453,282,l),
(730,700,l),
(548,700,l),
(350,394,l),
(390,394,l),
(192,700,l),
(10,700,l),
(287,282,l),
(287,0,l)
);
}
);
width = 740;
}
);
metricLeft = A;
metricRight = A;
unicode = 89;
},
{
glyphname = Z;
kernLeft = Z;
kernRight = Z;
lastChange = "2025-05-19 12:26:41 +0000";
layers = (
{
anchors = (
{
name = bottom;
pos = (277,0);
},
{
name = center;
pos = (277,350);
},
{
name = top;
pos = (277,700);
}
);
layerId = m01;
shapes = (
{
closed = 1;
nodes = (
(66,24,l),
(511,678,l),
(480,678,l),
(35,24,l)
);
},
{
closed = 1;
nodes = (
(519,0,l),
(519,24,l),
(35,24,l),
(35,0,l)
);
},
{
closed = 1;
nodes = (
(511,678,l),
(511,700,l),
(54,700,l),
(54,678,l)
);
}
);
width = 554;
},
{
anchors = (
{
name = bottom;
pos = (265,0);
},
{
name = center;
pos = (265,350);
},
{
name = top;
pos = (265,700);
}
);
layerId = m002;
shapes = (
{
closed = 1;
nodes = (
(134,80,l),
(499,620,l),
(388,620,l),
(23,80,l)
);
},
{
closed = 1;
nodes = (
(507,0,l),
(507,80,l),
(23,80,l),
(23,0,l)
);
},
{
closed = 1;
nodes = (
(499,620,l),
(499,700,l),
(42,700,l),
(42,620,l)
);
}
);
width = 530;
},
{
anchors = (
{
name = bottom;
pos = (271,0);
},
{
name = center;
pos = (271,350);
},
{
name = top;
pos = (271,700);
}
);
layerId = m003;
shapes = (
{
closed = 1;
nodes = (
(214,156,l),
(519,548,l),
(328,548,l),
(23,156,l)
);
},
{
closed = 1;
nodes = (
(517,0,l),
(517,156,l),
(23,156,l),
(23,0,l)
);
},
{
closed = 1;
nodes = (
(519,548,l),
(519,700,l),
(42,700,l),
(42,548,l)
);
}
);
width = 542;
}
);
metricLeft = "=H/2";
metricRight = "=|Z";
unicode = 90;
},
{
glyphname = a;
kernLeft = o;
kernRight = straight;
lastChange = "2025-04-04 18:29:01 +0000";
layers = (
{
anchors = (
{
name = bottom;
pos = (315,0);
},
{
name = ogonek;
pos = (566,10);
},
{
name = top;
pos = (315,480);
}
);
layerId = m01;
shapes = (
{
closed = 1;
nodes = (
(564,0,l),
(564,480,l),
(536,480,l),
(536,0,l)
);
},
{
pos = (50,0);
ref = Bowl;
}
);
width = 629;
},
{
anchors = (
{
name = bottom;
pos = (301,0);
},
{
name = ogonek;
pos = (541,10);
},
{
name = top;
pos = (301,480);
}
);
layerId = m002;
shapes = (
{
closed = 1;
nodes = (
(551,0,l),
(551,480,l),
(469,480,l),
(469,0,l)
);
},
{
pos = (25,0);
ref = Bowl;
}
);
width = 601;
},
{
anchors = (
{
name = bottom;
pos = (306,0);
},
{
name = ogonek;
pos = (550,10);
},
{
name = top;
pos = (306,480);
}
);
layerId = m003;
shapes = (
{
closed = 1;
nodes = (
(561,0,l),
(561,480,l),
(399,480,l),
(399,0,l)
);
},
{
pos = (25,0);
ref = Bowl;
}
);
width = 611;
}
);
metricLeft = o;
metricRight = "=|n";
unicode = 97;
},
{
glyphname = ae;
kernLeft = a;
kernRight = e;
lastChange = "2025-05-21 11:28:56 +0000";
layers = (
{
anchors = (
{
name = bottom;
pos = (467,0);
},
{
name = top;
pos = (467,480);
}
);
layerId = m01;
shapes = (
{
closed = 1;
nodes = (
(359,-16,o),
(430,47,o),
(450,112,c),
(468,40,o),
(553,-16,o),
(642,-16,cs),
(722,-16,o),
(770,22,o),
(814,70,c),
(799,87,l),
(756,42,o),
(710,7,o),
(652,7,cs),
(547,7,o),
(464,54,o),
(464,238,c),
(832,238,l),
(836,257,o),
(836,280,o),
(836,280,c),
(836,401,o),
(744,496,o),
(628,496,cs),
(543,496,o),
(465,432,o),
(450,350,c),
(440,432,o),
(362,496,o),
(274,496,cs),
(189,496,o),
(107,457,o),
(76,394,c),
(100,379,l),
(129,438,o),
(189,474,o),
(266,474,cs),
(354,474,o),
(434,395,o),
(434,321,cs),
(434,303,o),
(434,290,o),
(434,276,c),
(222,276,o),
(87,282,o),
(55,170,cs),
(26,69,o),
(120,-16,o),
(240,-16,cs)
);
},
{
closed = 1;
nodes = (
(142,8,o),
(57,82,o),
(78,157,cs),
(100,237,o),
(178,250,o),
(278,251,cs),
(436,252,l),
(436,166,ls),
(436,87,o),
(353,8,o),
(250,8,cs)
);
},
{
closed = 1;
nodes = (
(469,380,o),
(542,472,o),
(635,472,cs),
(732,472,o),
(808,380,o),
(808,262,c),
(469,262,l)
);
}
);
width = 881;
},
{
anchors = (
{
name = bottom;
pos = (415,0);
},
{
name = top;
pos = (415,480);
}
);
layerId = m002;
shapes = (
{
closed = 1;
nodes = (
(304,-16,o),
(382,26,o),
(414,85,c),
(449,26,o),
(525,-16,o),
(597,-16,cs),
(675,-16,o),
(756,26,o),
(792,85,c),
(752,136,l),
(725,92,o),
(667,62,o),
(611,62,cs),
(529,62,o),
(464,124,o),
(455,212,c),
(808,212,l),
(812,231,o),
(812,254,o),
(812,254,c),
(812,396,o),
(724,496,o),
(597,496,cs),
(508,496,o),
(433,450,o),
(416,385,c),
(395,450,o),
(326,496,o),
(247,496,cs),
(158,496,o),
(73,458,o),
(40,403,c),
(110,358,l),
(125,393,o),
(178,418,o),
(239,418,cs),
(308,418,o),
(356,388,o),
(356,345,cs),
(356,327,o),
(356,319,o),
(356,296,c),
(188,296,o),
(52,295,o),
(28,170,cs),
(4,47,o),
(117,-16,o),
(223,-16,cs)
);
},
{
closed = 1;
nodes = (
(161,62,o),
(100,93,o),
(112,152,cs),
(122,203,o),
(166,224,o),
(251,224,cs),
(358,224,l),
(358,171,ls),
(358,107,o),
(307,62,o),
(233,62,cs)
);
},
{
closed = 1;
nodes = (
(467,362,o),
(521,418,o),
(589,418,cs),
(673,418,o),
(731,362,o),
(731,282,c),
(457,282,l)
);
}
);
width = 832;
},
{
anchors = (
{
name = bottom;
pos = (422,0);
},
{
name = top;
pos = (422,480);
}
);
layerId = m003;
shapes = (
{
closed = 1;
nodes = (
(305,-16,o),
(397,30,o),
(420,105,c),
(448,30,o),
(538,-16,o),
(613,-16,cs),
(693,-16,o),
(777,31,o),
(814,91,c),
(748,171,l),
(723,146,o),
(675,126,o),
(637,126,cs),
(584,126,o),
(538,159,o),
(533,202,c),
(821,202,l),
(825,221,o),
(825,254,o),
(825,254,c),
(825,390,o),
(739,496,o),
(613,496,cs),
(514,496,o),
(433,437,o),
(422,358,c),
(414,437,o),
(337,496,o),
(253,496,cs),
(161,496,o),
(78,455,o),
(45,398,c),
(165,322,l),
(176,341,o),
(202,352,o),
(245,352,cs),
(287,352,o),
(312,335,o),
(312,315,cs),
(312,291,o),
(312,310,o),
(312,306,c),
(161,306,o),
(60,294,o),
(30,186,cs),
(0,77,o),
(103,-16,o),
(229,-16,cs)
);
},
{
closed = 1;
nodes = (
(199,128,o),
(166,137,o),
(173,171,cs),
(178,194,o),
(198,208,o),
(246,208,cs),
(314,208,l),
(314,171,ls),
(314,147,o),
(288,128,o),
(237,128,cs)
);
},
{
closed = 1;
nodes = (
(536,330,o),
(569,352,o),
(600,352,cs),
(644,352,o),
(674,330,o),
(674,302,c),
(536,302,l)
);
}
);
width = 845;
}
);
metricLeft = a;
metricRight = e;
unicode = 230;
},
{
glyphname = b;
kernLeft = straight;
kernRight = o;
lastChange = "2025-04-04 18:29:01 +0000";
layers = (
{
anchors = (
{
name = bottom;
pos = (315,0);
},
{
name = center;
pos = (157,576);
},
{
name = top;
pos = (315,480);
}
);
layerId = m01;
shapes = (
{
closed = 1;
nodes = (
(93,0,l),
(93,720,l),
(65,720,l),
(65,0,l)
);
},
{
pos = (579,0);
ref = Bowl;
scale = (-1,1);
}
);
width = 629;
},
{
anchors = (
{
name = bottom;
pos = (301,0);
},
{
name = center;
pos = (150,576);
},
{
name = top;
pos = (301,480);
}
);
layerId = m002;
shapes = (
{
closed = 1;
nodes = (
(132,0,l),
(132,720,l),
(50,720,l),
(50,0,l)
);
},
{
pos = (576,0);
ref = Bowl;
scale = (-1,1);
}
);
width = 601;
},
{
anchors = (
{
name = bottom;
pos = (301,0);
},
{
name = center;
pos = (150,576);
},
{
name = top;
pos = (301,480);
}
);
layerId = m003;
shapes = (
{
closed = 1;
nodes = (
(214,0,l),
(214,720,l),
(50,720,l),
(50,0,l)
);
},
{
pos = (576,0);
ref = Bowl;
scale = (-1,1);
}
);
width = 601;
}
);
metricLeft = n;
metricRight = o;
unicode = 98;
},
{
glyphname = c;
kernLeft = o;
kernRight = c;
lastChange = "2025-05-16 10:06:28 +0000";
layers = (
{
anchors = (
{
name = bottom;
pos = (298,0);
},
{
name = top;
pos = (298,480);
}
);
layerId = m01;
shapes = (
{
closed = 1;
nodes = (
(407,-16,o),
(511,47,o),
(550,127,c),
(524,136,l),
(483,64,o),
(391,8,o),
(314,8,cs),
(183,8,o),
(80,110,o),
(80,240,cs),
(80,370,o),
(183,472,o),
(314,472,cs),
(396,472,o),
(487,417,o),
(522,346,c),
(547,360,l),
(506,436,o),
(403,496,o),
(314,496,cs),
(166,496,o),
(50,383,o),
(50,240,cs),
(50,97,o),
(166,-16,o),
(314,-16,cs)
);
}
);
width = 595;
},
{
anchors = (
{
name = bottom;
pos = (273,0);
},
{
name = top;
pos = (273,480);
}
);
layerId = m002;
shapes = (
{
closed = 1;
nodes = (
(395,-16,o),
(484,42,o),
(525,127,c),
(450,154,l),
(419,99,o),
(359,62,o),
(289,62,cs),
(188,62,o),
(109,140,o),
(109,240,cs),
(109,340,o),
(188,418,o),
(289,418,cs),
(361,418,o),
(423,378,o),
(452,319,c),
(522,360,l),
(478,441,o),
(392,496,o),
(289,496,cs),
(141,496,o),
(25,383,o),
(25,240,cs),
(25,97,o),
(141,-16,o),
(289,-16,cs)
);
}
);
width = 545;
},
{
anchors = (
{
name = bottom;
pos = (279,0);
},
{
name = top;
pos = (279,480);
}
);
layerId = m003;
shapes = (
{
closed = 1;
nodes = (
(422,-16,o),
(499,59,o),
(537,147,c),
(383,201,l),
(366,168,o),
(334,142,o),
(287,142,cs),
(233,142,o),
(191,185,o),
(191,240,cs),
(191,295,o),
(233,338,o),
(289,338,cs),
(330,338,o),
(372,316,o),
(383,276,c),
(528,350,l),
(492,432,o),
(405,496,o),
(279,496,cs),
(137,496,o),
(25,383,o),
(25,240,cs),
(25,97,o),
(137,-16,o),
(289,-16,cs)
);
}
);
width = 557;
}
);
metricLeft = o;
metricRight = "=o-5";
unicode = 99;
},
{
glyphname = d;
kernLeft = o;
kernRight = straight;
lastChange = "2025-04-04 18:29:01 +0000";
layers = (
{
anchors = (
{
name = bottom;
pos = (313,0);
},
{
name = center;
pos = (470,576);
},
{
name = top;
pos = (313,480);
},
{
name = topright;
pos = (606,720);
}
);
layerId = m01;
shapes = (
{
closed = 1;
nodes = (
(566,0,l),
(566,720,l),
(538,720,l),
(538,0,l)
);
},
{
pos = (50,0);
ref = Bowl;
}
);
width = 626;
},
{
anchors = (
{
name = bottom;
pos = (298,0);
},
{
name = center;
pos = (447,576);
},
{
name = top;
pos = (298,480);
},
{
name = topright;
pos = (576,720);
}
);
layerId = m002;
shapes = (
{
closed = 1;
nodes = (
(551,0,l),
(551,720,l),
(469,720,l),
(469,0,l)
);
},
{
pos = (25,0);
ref = Bowl;
}
);
width = 596;
},
{
anchors = (
{
name = bottom;
pos = (303,0);
},
{
name = center;
pos = (455,576);
},
{
name = top;
pos = (303,480);
},
{
name = topright;
pos = (586,720);
}
);
layerId = m003;
shapes = (
{
closed = 1;
nodes = (
(561,0,l),
(561,720,l),
(399,720,l),
(399,0,l)
);
},
{
pos = (25,0);
ref = Bowl;
}
);
width = 606;
}
);
metricLeft = o;
metricRight = n;
unicode = 100;
},
{
glyphname = e;
kernLeft = o;
kernRight = e;
lastChange = "2025-04-04 18:29:01 +0000";
layers = (
{
anchors = (
{
name = bottom;
pos = (292,0);
},
{
name = ogonek;
pos = (525,10);
},
{
name = top;
pos = (292,480);
}
);
background = {
shapes = (
{
closed = 1;
nodes = (
(476,441,o),
(390,496,o),
(287,496,cs),
(139,496,o),
(23,383,o),
(23,240,cs),
(23,97,o),
(139,-16,o),
(287,-16,cs),
(393,-16,o),
(482,42,o),
(523,127,c),
(448,154,l),
(417,99,o),
(357,62,o),
(287,62,cs),
(186,62,o),
(107,140,o),
(107,240,cs),
(107,340,o),
(186,418,o),
(287,418,cs),
(359,418,o),
(421,378,o),
(450,319,c),
(520,360,l)
);
}
);
};
layerId = m01;
shapes = (
{
closed = 1;
nodes = (
(382,-16,o),
(476,26,o),
(519,80,c),
(501,99,l),
(463,48,o),
(379,8,o),
(309,8,cs),
(181,8,o),
(80,110,o),
(80,240,cs),
(80,370,o),
(176,472,o),
(289,472,cs),
(409,472,o),
(512,364,o),
(508,230,cs),
(508,224,o),
(508,218,o),
(507,212,c),
(535,212,l),
(537,219,o),
(538,225,o),
(538,232,cs),
(538,381,o),
(433,496,o),
(291,496,cs),
(156,496,o),
(50,383,o),
(50,240,cs),
(50,97,o),
(162,-16,o),
(305,-16,cs)
);
},
{
closed = 1;
nodes = (
(518,212,l),
(518,238,l),
(66,238,l),
(66,212,l)
);
}
);
width = 583;
},
{
anchors = (
{
name = bottom;
pos = (267,0);
},
{
name = ogonek;
pos = (480,10);
},
{
name = top;
pos = (267,480);
}
);
background = {
shapes = (
{
closed = 1;
nodes = (
(451,441,o),
(365,496,o),
(262,496,cs),
(114,496,o),
(-2,383,o),
(-2,240,cs),
(-2,97,o),
(114,-16,o),
(262,-16,cs),
(368,-16,o),
(457,42,o),
(498,127,c),
(423,154,l),
(392,99,o),
(332,62,o),
(262,62,cs),
(161,62,o),
(82,140,o),
(82,240,cs),
(82,340,o),
(161,418,o),
(262,418,cs),
(334,418,o),
(396,378,o),
(425,319,c),
(495,360,l)
);
}
);
};
layerId = m002;
shapes = (
{
closed = 1;
nodes = (
(357,-16,o),
(451,26,o),
(494,80,c),
(442,133,l),
(412,93,o),
(342,62,o),
(284,62,cs),
(185,62,o),
(107,140,o),
(107,240,cs),
(107,340,o),
(180,418,o),
(274,418,cs),
(361,418,o),
(424,346,o),
(430,250,cs),
(431,237,o),
(431,225,o),
(430,212,c),
(510,212,l),
(512,220,o),
(513,228,o),
(513,236,cs),
(511,383,o),
(407,496,o),
(266,496,cs),
(131,496,o),
(25,383,o),
(25,240,cs),
(25,97,o),
(137,-16,o),
(280,-16,cs)
);
},
{
closed = 1;
nodes = (
(496,212,l),
(496,282,l),
(76,282,l),
(76,212,l)
);
}
);
width = 533;
},
{
anchors = (
{
name = bottom;
pos = (272,0);
},
{
name = ogonek;
pos = (490,10);
},
{
name = top;
pos = (272,480);
}
);
background = {
shapes = (
{
closed = 1;
nodes = (
(456,441,o),
(370,496,o),
(267,496,cs),
(119,496,o),
(3,383,o),
(3,240,cs),
(3,97,o),
(119,-16,o),
(267,-16,cs),
(373,-16,o),
(462,42,o),
(503,127,c),
(428,154,l),
(397,99,o),
(337,62,o),
(267,62,cs),
(166,62,o),
(87,140,o),
(87,240,cs),
(87,340,o),
(166,418,o),
(267,418,cs),
(339,418,o),
(401,378,o),
(430,319,c),
(500,360,l)
);
}
);
};
layerId = m003;
shapes = (
{
closed = 1;
nodes = (
(361,-20,o),
(452,17,o),
(492,66,c),
(394,166,l),
(373,145,o),
(333,128,o),
(304,128,cs),
(238,128,o),
(187,177,o),
(187,240,cs),
(187,303,o),
(227,352,o),
(278,352,cs),
(332,352,o),
(374,311,o),
(374,259,cs),
(374,233,o),
(368,205,o),
(360,195,c),
(520,195,l),
(522,207,o),
(524,229,o),
(524,245,c),
(526,386,o),
(415,496,o),
(271,496,cs),
(133,496,o),
(25,383,o),
(25,240,cs),
(25,103,o),
(139,-10,o),
(285,-17,cs)
);
},
{
closed = 1;
nodes = (
(460,195,l),
(460,295,l),
(81,295,l),
(81,195,l)
);
}
);
width = 544;
}
);
metricLeft = o;
metricRight = "=o-5";
unicode = 101;
},
{
glyphname = f;
kernLeft = f;
kernRight = f;
lastChange = "2025-04-04 18:29:01 +0000";
layers = (
{
anchors = (
{
name = bottom;
pos = (164,0);
},
{
name = top;
pos = (164,720);
}
);
layerId = m01;
shapes = (
{
closed = 1;
nodes = (
(137,0,l),
(137,557,l),
(109,557,l),
(109,0,l)
);
},
{
closed = 1;
nodes = (
(276,458,l),
(276,480,l),
(55,480,l),
(55,458,l)
);
},
{
closed = 1;
nodes = (
(137,557,l),
(137,635,o),
(196,696,o),
(272,696,cs),
(318,696,l),
(318,720,l),
(281,720,l),
(270,720,l),
(180,720,o),
(109,648,o),
(109,557,c)
);
}
);
width = 328;
},
{
anchors = (
{
name = bottom;
pos = (170,0);
},
{
name = top;
pos = (170,720);
}
);
layerId = m002;
shapes = (
{
closed = 1;
nodes = (
(183,0,l),
(183,537,l),
(95,537,l),
(95,0,l)
);
},
{
closed = 1;
nodes = (
(301,402,l),
(301,480,l),
(40,480,l),
(40,402,l)
);
},
{
closed = 1;
nodes = (
(183,537,l),
(183,594,o),
(223,638,o),
(264,638,cs),
(329,638,l),
(329,720,l),
(271,720,l),
(266,720,l),
(176,720,o),
(95,639,o),
(95,537,c)
);
}
);
width = 339;
},
{
anchors = (
{
name = bottom;
pos = (202,0);
},
{
name = top;
pos = (202,720);
}
);
layerId = m003;
shapes = (
{
closed = 1;
nodes = (
(246,0,l),
(246,523,l),
(82,523,l),
(82,0,l)
);
},
{
closed = 1;
nodes = (
(369,364,l),
(369,480,l),
(40,480,l),
(40,364,l)
);
},
{
closed = 1;
nodes = (
(246,523,l),
(246,568,o),
(282,604,o),
(327,604,cs),
(394,604,l),
(394,720,l),
(326,720,l),
(283,720,l),
(170,720,o),
(82,633,o),
(82,523,c)
);
}
);
width = 404;
}
);
metricLeft = "=n-10";
metricRight = "=v+5";
unicode = 102;
},
{
glyphname = g;
kernLeft = o;
kernRight = g;
lastChange = "2025-04-04 18:29:01 +0000";
layers = (
{
anchors = (
{
name = bottom;
pos = (320,-280);
},
{
name = top;
pos = (320,480);
}
);
layerId = m01;
shapes = (
{
closed = 1;
nodes = (
(459,-296,o),
(575,-183,o),
(574,-40,cs),
(574,480,l),
(546,480,l),
(546,-40,ls),
(546,-170,o),
(442,-272,o),
(310,-272,cs),
(206,-272,o),
(103,-190,o),
(78,-85,c),
(50,-85,l),
(71,-203,o),
(185,-296,o),
(310,-296,cs)
);
},
{
pos = (60,0);
ref = Bowl;
}
);
width = 639;
},
{
anchors = (
{
name = bottom;
pos = (302,-280);
},
{
name = top;
pos = (302,480);
}
);
layerId = m002;
shapes = (
{
closed = 1;
nodes = (
(438,-296,o),
(554,-183,o),
(553,-40,cs),
(553,480,l),
(469,480,l),
(469,-40,ls),
(469,-140,o),
(390,-218,o),
(289,-218,cs),
(210,-218,o),
(133,-159,o),
(115,-85,c),
(29,-85,l),
(50,-203,o),
(164,-296,o),
(289,-296,cs)
);
},
{
pos = (25,0);
ref = Bowl;
}
);
width = 603;
},
{
anchors = (
{
name = bottom;
pos = (307,-280);
},
{
name = top;
pos = (307,480);
}
);
layerId = m003;
shapes = (
{
closed = 1;
nodes = (
(443,-296,o),
(564,-183,o),
(563,-40,cs),
(563,480,l),
(399,480,l),
(399,-40,ls),
(399,-95,o),
(351,-138,o),
(289,-138,cs),
(242,-138,o),
(200,-115,o),
(193,-85,c),
(29,-85,l),
(50,-203,o),
(164,-296,o),
(289,-296,cs)
);
},
{
pos = (25,0);
ref = Bowl;
}
);
width = 613;
}
);
metricLeft = o;
metricRight = "=|n";
unicode = 103;
},
{
glyphname = gstroke;
lastChange = "2025-05-21 11:28:56 +0000";
layers = (
{
layerId = m01;
shapes = (
{
ref = g;
},
{
closed = 1;
nodes = (
(281,226,l),
(611,226,l),
(611,248,l),
(281,248,l)
);
}
);
width = 639;
},
{
layerId = m002;
shapes = (
{
ref = g;
},
{
closed = 1;
nodes = (
(281,198,l),
(611,198,l),
(611,276,l),
(281,276,l)
);
}
);
width = 603;
},
{
layerId = m003;
shapes = (
{
ref = g;
},
{
closed = 1;
nodes = (
(281,179,l),
(611,179,l),
(611,295,l),
(281,295,l)
);
}
);
width = 613;
}
);
unicode = 485;
},
{
glyphname = h;
kernLeft = h;
kernRight = n;
lastChange = "2025-05-17 23:38:48 +0000";
layers = (
{
anchors = (
{
name = bottom;
pos = (296,0);
},
{
name = center;
pos = (148,576);
},
{
name = top;
pos = (296,720);
}
);
layerId = m01;
shapes = (
{
closed = 1;
nodes = (
(98,0,l),
(98,720,l),
(70,720,l),
(70,0,l)
);
},
{
closed = 1;
nodes = (
(532,0,l),
(532,269,l),
(504,269,l),
(504,0,l)
);
},
{
closed = 1;
nodes = (
(74,269,o),
(98,269,o),
(98,269,c),
(98,384,o),
(187,474,o),
(301,474,cs),
(415,474,o),
(504,384,o),
(504,269,c),
(532,269,l),
(532,396,o),
(431,496,o),
(303,496,cs),
(175,496,o),
(74,396,o),
(74,269,cs)
);
}
);
width = 592;
},
{
anchors = (
{
name = bottom;
pos = (285,0);
},
{
name = center;
pos = (143,576);
},
{
name = top;
pos = (285,720);
}
);
layerId = m002;
shapes = (
{
closed = 1;
nodes = (
(139,0,l),
(139,720,l),
(55,720,l),
(55,0,l)
);
},
{
closed = 1;
nodes = (
(525,0,l),
(525,269,l),
(437,269,l),
(437,0,l)
);
},
{
closed = 1;
nodes = (
(80,269,o),
(139,269,o),
(139,269,c),
(139,352,o),
(205,418,o),
(288,418,cs),
(371,418,o),
(437,352,o),
(437,269,c),
(525,269,l),
(525,396,o),
(426,496,o),
(300,496,cs),
(177,496,o),
(80,396,o),
(80,269,cs)
);
}
);
width = 570;
},
{
anchors = (
{
name = bottom;
pos = (308,0);
},
{
name = center;
pos = (154,576);
},
{
name = top;
pos = (308,720);
}
);
layerId = m003;
shapes = (
{
closed = 1;
nodes = (
(219,0,l),
(219,720,l),
(55,720,l),
(55,0,l)
);
},
{
closed = 1;
nodes = (
(581,0,l),
(581,241,l),
(417,241,l),
(417,0,l)
);
},
{
closed = 1;
nodes = (
(129,241,o),
(219,241,o),
(219,241,c),
(219,296,o),
(263,340,o),
(318,340,cs),
(373,340,o),
(417,296,o),
(417,241,c),
(581,241,l),
(581,384,o),
(482,496,o),
(355,496,cs),
(228,496,o),
(129,384,o),
(129,241,cs)
);
}
);
width = 626;
}
);
metricLeft = "=n+5";
metricRight = n;
unicode = 104;
},
{
glyphname = hbar;
lastChange = "2025-05-21 11:54:43 +0000";
layers = (
{
layerId = m01;
shapes = (
{
pos = (49,0);
ref = h;
},
{
closed = 1;
nodes = (
(70,658,l),
(250,658,l),
(250,680,l),
(70,680,l)
);
}
);
width = 641;
},
{
layerId = m002;
shapes = (
{
pos = (45,0);
ref = h;
},
{
closed = 1;
nodes = (
(55,602,l),
(295,602,l),
(295,680,l),
(55,680,l)
);
}
);
width = 615;
},
{
layerId = m003;
shapes = (
{
pos = (45,0);
ref = h;
},
{
closed = 1;
nodes = (
(55,564,l),
(375,564,l),
(375,680,l),
(55,680,l)
);
}
);
width = 671;
}
);
metricLeft = h;
metricRight = h;
unicode = 295;
},
{
glyphname = idotless;
kernLeft = i;
kernRight = i;
lastChange = "2025-05-21 11:28:56 +0000";
layers = (
{
anchors = (
{
name = bottom;
pos = (84,0);
},
{
name = ogonek;
pos = (98,0);
},
{
name = top;
pos = (84,480);
}
);
layerId = m01;
shapes = (
{
closed = 1;
nodes = (
(98,0,l),
(98,480,l),
(70,480,l),
(70,0,l)
);
}
);
width = 168;
},
{
anchors = (
{
name = bottom;
pos = (96,0);
},
{
name = ogonek;
pos = (137,0);
},
{
name = top;
pos = (96,480);
}
);
layerId = m002;
shapes = (
{
closed = 1;
nodes = (
(137,0,l),
(137,480,l),
(55,480,l),
(55,0,l)
);
}
);
width = 192;
},
{
anchors = (
{
name = bottom;
pos = (137,0);
},
{
name = ogonek;
pos = (219,0);
},
{
name = top;
pos = (137,480);
}
);
layerId = m003;
shapes = (
{
closed = 1;
nodes = (
(219,0,l),
(219,480,l),
(55,480,l),
(55,0,l)
);
}
);
width = 274;
}
);
metricLeft = h;
metricRight = "=|h";
unicode = 305;
},
{
glyphname = j.ss01;
kernLeft = j;
kernRight = straight;
lastChange = "2025-05-19 17:04:35 +0000";
layers = (
{
layerId = m01;
shapes = (
{
closed = 1;
nodes = (
(118,-280,l),
(118,480,l),
(90,480,l),
(90,-280,l)
);
},
{
pos = (45,0);
ref = dotaccentcomb;
}
);
width = 153;
},
{
layerId = m002;
shapes = (
{
closed = 1;
nodes = (
(156,-280,l),
(156,480,l),
(68,480,l),
(68,-280,l)
);
},
{
pos = (0,-101);
ref = dotaccentcomb;
scale = (1.25,1.25);
}
);
width = 199;
},
{
layerId = m003;
shapes = (
{
closed = 1;
nodes = (
(229,-280,l),
(229,480,l),
(65,480,l),
(65,-280,l)
);
},
{
pos = (14,-222);
ref = dotaccentcomb;
scale = (1.2,1.2);
}
);
width = 263;
}
);
metricLeft = n;
metricRight = j;
},
{
glyphname = jdotless;
kernLeft = j;
kernRight = j;
lastChange = "2025-05-21 11:28:56 +0000";
layers = (
{
anchors = (
{
name = bottom;
pos = (136,-280);
},
{
name = top;
pos = (136,480);
}
);
layerId = m01;
shapes = (
{
closed = 1;
nodes = (
(224,-97,l),
(224,480,l),
(196,480,l),
(196,-97,l)
);
},
{
closed = 1;
nodes = (
(48,-280,l),
(53,-280,l),
(149,-280,o),
(224,-199,o),
(224,-97,c),
(196,-97,l),
(196,-185,o),
(132,-254,o),
(51,-254,cs),
(-10,-254,l),
(-10,-280,l)
);
}
);
width = 272;
},
{
anchors = (
{
name = bottom;
pos = (146,-280);
},
{
name = top;
pos = (146,480);
}
);
layerId = m002;
shapes = (
{
closed = 1;
nodes = (
(244,-97,l),
(244,480,l),
(156,480,l),
(156,-97,l)
);
},
{
closed = 1;
nodes = (
(68,-280,l),
(73,-280,l),
(163,-280,o),
(244,-199,o),
(244,-97,c),
(156,-97,l),
(156,-154,o),
(116,-198,o),
(75,-198,cs),
(-10,-198,l),
(-10,-280,l)
);
}
);
width = 292;
},
{
anchors = (
{
name = bottom;
pos = (146,-280);
},
{
name = top;
pos = (146,480);
}
);
layerId = m003;
shapes = (
{
closed = 1;
nodes = (
(282,-67,l),
(282,480,l),
(118,480,l),
(118,-67,l)
);
},
{
closed = 1;
nodes = (
(68,-280,l),
(73,-280,l),
(190,-280,o),
(282,-186,o),
(282,-67,c),
(118,-67,l),
(118,-110,o),
(86,-144,o),
(45,-144,cs),
(-10,-144,l),
(-10,-280,l)
);
}
);
width = 292;
}
);
unicode = 567;
},
{
glyphname = k;
kernLeft = h;
kernRight = k;
lastChange = "2025-04-04 18:29:01 +0000";
layers = (
{
anchors = (
{
name = bottom;
pos = (212,0);
},
{
name = top;
pos = (212,720);
}
);
layerId = m01;
shapes = (
{
closed = 1;
nodes = (
(419,0,l),
(136,277,l),
(101,277,l),
(384,0,l)
);
},
{
closed = 1;
nodes = (
(98,0,l),
(98,720,l),
(70,720,l),
(70,0,l)
);
},
{
closed = 1;
nodes = (
(132,274,l),
(371,480,l),
(336,480,l),
(92,274,l)
);
}
);
width = 424;
},
{
anchors = (
{
name = bottom;
pos = (247,0);
},
{
name = top;
pos = (247,720);
}
);
layerId = m002;
shapes = (
{
closed = 1;
nodes = (
(488,0,l),
(249,289,l),
(148,289,l),
(387,0,l)
);
},
{
closed = 1;
nodes = (
(143,0,l),
(143,720,l),
(55,720,l),
(55,0,l)
);
},
{
closed = 1;
nodes = (
(229,258,l),
(462,480,l),
(354,480,l),
(116,258,l)
);
}
);
width = 493;
},
{
anchors = (
{
name = bottom;
pos = (318,0);
},
{
name = top;
pos = (318,720);
}
);
layerId = m003;
shapes = (
{
closed = 1;
nodes = (
(631,0,l),
(392,287,l),
(216,287,l),
(445,0,l)
);
},
{
closed = 1;
nodes = (
(219,0,l),
(219,720,l),
(55,720,l),
(55,0,l)
);
},
{
closed = 1;
nodes = (
(362,258,l),
(595,480,l),
(417,480,l),
(179,258,l)
);
}
);
width = 636;
}
);
metricLeft = "=n+5";
metricRight = x;
unicode = 107;
},
{
glyphname = khook;
kernLeft = h;
kernRight = k;
lastChange = "2025-05-21 11:28:56 +0000";
layers = (
{
anchors = (
{
name = bottom;
pos = (245,0);
},
{
name = top;
pos = (245,720);
}
);
layerId = m01;
shapes = (
{
closed = 1;
nodes = (
(143,0,l),
(143,617,ls),
(143,636,o),
(154,647,o),
(173,647,cs),
(219,647,l),
(219,720,l),
(135,720,ls),
(83,720,o),
(55,692,o),
(55,640,cs),
(55,0,l)
);
},
{
closed = 1;
nodes = (
(488,0,l),
(249,289,l),
(148,289,l),
(387,0,l)
);
},
{
closed = 1;
nodes = (
(229,258,l),
(462,480,l),
(354,480,l),
(116,258,l)
);
}
);
width = 490;
},
{
anchors = (
{
name = bottom;
pos = (245,0);
},
{
name = top;
pos = (245,720);
}
);
layerId = m002;
shapes = (
{
closed = 1;
nodes = (
(143,0,l),
(143,617,ls),
(143,636,o),
(154,647,o),
(173,647,cs),
(219,647,l),
(219,720,l),
(135,720,ls),
(83,720,o),
(55,692,o),
(55,640,cs),
(55,0,l)
);
},
{
closed = 1;
nodes = (
(488,0,l),
(249,289,l),
(148,289,l),
(387,0,l)
);
},
{
closed = 1;
nodes = (
(229,258,l),
(462,480,l),
(354,480,l),
(116,258,l)
);
}
);
width = 490;
},
{
anchors = (
{
name = bottom;
pos = (245,0);
},
{
name = top;
pos = (245,720);
}
);
layerId = m003;
shapes = (
{
closed = 1;
nodes = (
(143,0,l),
(143,617,ls),
(143,636,o),
(154,647,o),
(173,647,cs),
(219,647,l),
(219,720,l),
(135,720,ls),
(83,720,o),
(55,692,o),
(55,640,cs),
(55,0,l)
);
},
{
closed = 1;
nodes = (
(488,0,l),
(249,289,l),
(148,289,l),
(387,0,l)
);
},
{
closed = 1;
nodes = (
(229,258,l),
(462,480,l),
(354,480,l),
(116,258,l)
);
}
);
width = 490;
}
);
unicode = 409;
},
{
glyphname = l;
kernLeft = l;
kernRight = straight;
lastChange = "2025-04-04 18:29:01 +0000";
layers = (
{
anchors = (
{
name = bottom;
pos = (79,0);
},
{
name = center;
pos = (79,240);
},
{
name = top;
pos = (79,720);
},
{
name = topright;
pos = (138,720);
}
);
layerId = m01;
shapes = (
{
closed = 1;
nodes = (
(98,0,l),
(98,720,l),
(70,720,l),
(70,0,l)
);
}
);
width = 158;
},
{
anchors = (
{
name = bottom;
pos = (92,0);
},
{
name = center;
pos = (92,240);
},
{
name = top;
pos = (92,720);
},
{
name = topright;
pos = (164,720);
}
);
layerId = m002;
shapes = (
{
closed = 1;
nodes = (
(139,0,l),
(139,720,l),
(55,720,l),
(55,0,l)
);
}
);
width = 184;
},
{
anchors = (
{
name = bottom;
pos = (132,0);
},
{
name = center;
pos = (132,240);
},
{
name = top;
pos = (132,720);
},
{
name = topright;
pos = (244,720);
}
);
layerId = m003;
shapes = (
{
closed = 1;
nodes = (
(219,0,l),
(219,720,l),
(55,720,l),
(55,0,l)
);
}
);
width = 264;
}
);
metricLeft = "=n+5";
metricRight = n;
unicode = 108;
},
{
glyphname = l.ss01;
kernLeft = l.ss01;
kernRight = l.ss01;
lastChange = "2025-05-16 18:09:26 +0000";
layers = (
{
anchors = (
{
name = bottom;
pos = (180,0);
},
{
name = center;
pos = (180,240);
},
{
name = top;
pos = (180,720);
},
{
name = topright;
pos = (339,720);
}
);
layerId = m01;
shapes = (
{
closed = 1;
nodes = (
(98,183,l),
(98,720,l),
(70,720,l),
(70,183,l)
);
},
{
closed = 1;
nodes = (
(246,0,l),
(324,0,l),
(324,26,l),
(239,26,ls),
(160,26,o),
(98,95,o),
(98,183,c),
(70,183,l),
(70,81,o),
(145,0,o),
(241,0,c)
);
}
);
width = 359;
},
{
anchors = (
{
name = bottom;
pos = (165,0);
},
{
name = center;
pos = (165,240);
},
{
name = top;
pos = (165,720);
},
{
name = topright;
pos = (309,720);
}
);
layerId = m002;
shapes = (
{
closed = 1;
nodes = (
(143,183,l),
(143,720,l),
(55,720,l),
(55,183,l)
);
},
{
closed = 1;
nodes = (
(231,0,l),
(309,0,l),
(309,82,l),
(224,82,ls),
(183,82,o),
(143,126,o),
(143,183,c),
(55,183,l),
(55,81,o),
(136,0,o),
(226,0,c)
);
}
);
width = 329;
},
{
anchors = (
{
name = bottom;
pos = (241,0);
},
{
name = center;
pos = (241,240);
},
{
name = top;
pos = (241,720);
},
{
name = topright;
pos = (385,720);
}
);
layerId = m003;
shapes = (
{
closed = 1;
nodes = (
(219,237,l),
(219,720,l),
(55,720,l),
(55,237,l)
);
},
{
closed = 1;
nodes = (
(307,0,l),
(385,0,l),
(385,156,l),
(300,156,ls),
(255,156,o),
(219,192,o),
(219,237,c),
(55,237,l),
(55,104,o),
(164,0,o),
(302,0,c)
);
}
);
width = 405;
}
);
metricLeft = l;
metricRight = "=l-25";
},
{
glyphname = m;
kernLeft = n;
kernRight = n;
lastChange = "2025-04-04 18:29:01 +0000";
layers = (
{
anchors = (
{
name = bottom;
pos = (413,0);
},
{
name = top;
pos = (413,480);
}
);
layerId = m01;
shapes = (
{
closed = 1;
nodes = (
(408,320,o),
(429,320,o),
(429,320,c),
(429,406,o),
(497,474,o),
(583,474,c),
(669,474,o),
(737,406,o),
(737,320,c),
(765,320,l),
(765,419,o),
(684,496,o),
(580,496,cs),
(484,496,o),
(408,419,o),
(408,320,cs)
);
},
{
closed = 1;
nodes = (
(93,0,l),
(93,480,l),
(65,480,l),
(65,0,l)
);
},
{
closed = 1;
nodes = (
(429,0,l),
(429,320,l),
(401,320,l),
(401,0,l)
);
},
{
closed = 1;
nodes = (
(72,320,o),
(93,320,o),
(93,320,c),
(93,406,o),
(161,474,o),
(247,474,c),
(333,474,o),
(401,406,o),
(401,320,c),
(429,320,l),
(429,419,o),
(348,496,o),
(244,496,cs),
(148,496,o),
(72,419,o),
(72,320,cs)
);
},
{
closed = 1;
nodes = (
(765,0,l),
(765,320,l),
(737,320,l),
(737,0,l)
);
}
);
width = 825;
},
{
anchors = (
{
name = bottom;
pos = (428,0);
},
{
name = top;
pos = (428,480);
}
);
layerId = m002;
shapes = (
{
closed = 1;
nodes = (
(430,294,o),
(474,294,o),
(474,294,c),
(474,363,o),
(529,418,o),
(598,418,c),
(667,418,o),
(722,363,o),
(722,294,c),
(810,294,l),
(810,407,o),
(724,496,o),
(615,496,cs),
(511,496,o),
(430,407,o),
(430,294,cs)
);
},
{
closed = 1;
nodes = (
(138,0,l),
(138,480,l),
(50,480,l),
(50,0,l)
);
},
{
closed = 1;
nodes = (
(474,0,l),
(474,294,l),
(386,294,l),
(386,0,l)
);
},
{
closed = 1;
nodes = (
(94,294,o),
(138,294,o),
(138,294,c),
(138,363,o),
(193,418,o),
(262,418,c),
(331,418,o),
(386,363,o),
(386,294,c),
(474,294,l),
(474,407,o),
(388,496,o),
(279,496,cs),
(175,496,o),
(94,407,o),
(94,294,cs)
);
},
{
closed = 1;
nodes = (
(810,0,l),
(810,294,l),
(722,294,l),
(722,0,l)
);
}
);
width = 855;
},
{
anchors = (
{
name = bottom;
pos = (464,0);
},
{
name = top;
pos = (464,480);
}
);
layerId = m003;
shapes = (
{
closed = 1;
nodes = (
(426,254,o),
(548,254,o),
(548,254,c),
(548,301,o),
(585,338,o),
(633,338,c),
(681,338,o),
(718,301,o),
(718,254,c),
(882,254,l),
(882,390,o),
(782,496,o),
(654,496,cs),
(526,496,o),
(426,390,o),
(426,254,cs)
);
},
{
closed = 1;
nodes = (
(214,0,l),
(214,480,l),
(50,480,l),
(50,0,l)
);
},
{
closed = 1;
nodes = (
(548,0,l),
(548,254,l),
(384,254,l),
(384,0,l)
);
},
{
closed = 1;
nodes = (
(130,254,o),
(214,254,o),
(214,254,c),
(214,301,o),
(251,338,o),
(299,338,c),
(347,338,o),
(384,301,o),
(384,254,c),
(548,254,l),
(548,390,o),
(456,496,o),
(339,496,cs),
(222,496,o),
(130,390,o),
(130,254,cs)
);
},
{
closed = 1;
nodes = (
(882,0,l),
(882,254,l),
(718,254,l),
(718,0,l)
);
}
);
width = 927;
}
);
metricLeft = n;
metricRight = n;
unicode = 109;
},
{
glyphname = n;
kernLeft = n;
kernRight = n;
lastChange = "2025-05-17 23:53:00 +0000";
layers = (
{
anchors = (
{
name = bottom;
pos = (294,0);
},
{
name = top;
pos = (294,480);
}
);
layerId = m01;
shapes = (
{
closed = 1;
nodes = (
(93,0,l),
(93,480,l),
(65,480,l),
(65,0,l)
);
},
{
closed = 1;
nodes = (
(527,0,l),
(527,269,l),
(499,269,l),
(499,0,l)
);
},
{
closed = 1;
nodes = (
(69,269,o),
(93,269,o),
(93,269,c),
(93,384,o),
(182,474,o),
(296,474,cs),
(410,474,o),
(499,384,o),
(499,269,c),
(527,269,l),
(527,396,o),
(426,496,o),
(298,496,cs),
(170,496,o),
(69,396,o),
(69,269,cs)
);
}
);
width = 587;
},
{
anchors = (
{
name = bottom;
pos = (285,0);
},
{
name = top;
pos = (285,480);
}
);
layerId = m002;
shapes = (
{
closed = 1;
nodes = (
(138,0,l),
(138,480,l),
(50,480,l),
(50,0,l)
);
},
{
closed = 1;
nodes = (
(524,0,l),
(524,269,l),
(436,269,l),
(436,0,l)
);
},
{
closed = 1;
nodes = (
(79,269,o),
(138,269,o),
(138,269,c),
(138,352,o),
(204,418,o),
(287,418,cs),
(370,418,o),
(436,352,o),
(436,269,c),
(524,269,l),
(524,396,o),
(425,496,o),
(299,496,cs),
(176,496,o),
(79,396,o),
(79,269,cs)
);
}
);
width = 569;
},
{
anchors = (
{
name = bottom;
pos = (306,0);
},
{
name = top;
pos = (306,480);
}
);
layerId = m003;
shapes = (
{
closed = 1;
nodes = (
(214,0,l),
(214,480,l),
(50,480,l),
(50,0,l)
);
},
{
closed = 1;
nodes = (
(576,0,l),
(576,241,l),
(412,241,l),
(412,0,l)
);
},
{
closed = 1;
nodes = (
(124,241,o),
(214,241,o),
(214,241,c),
(214,296,o),
(258,340,o),
(313,340,cs),
(368,340,o),
(412,296,o),
(412,241,c),
(576,241,l),
(576,384,o),
(477,496,o),
(350,496,cs),
(223,496,o),
(124,384,o),
(124,241,cs)
);
}
);
width = 621;
}
);
metricRight = "=|n-5";
unicode = 110;
},
{
glyphname = o;
kernLeft = o;
kernRight = o;
lastChange = "2025-05-19 16:41:12 +0000";
layers = (
{
anchors = (
{
name = bottom;
pos = (306,0);
},
{
name = center;
pos = (306,240);
},
{
name = ogonek;
pos = (551,10);
},
{
name = top;
pos = (306,480);
},
{
name = topright;
pos = (592,480);
}
);
layerId = m01;
shapes = (
{
closed = 1;
nodes = (
(449,-16,o),
(562,97,o),
(562,240,cs),
(562,383,o),
(449,496,o),
(306,496,cs),
(163,496,o),
(50,383,o),
(50,240,cs),
(50,97,o),
(163,-16,o),
(306,-16,cs)
);
},
{
closed = 1;
nodes = (
(178,8,o),
(78,110,o),
(78,240,cs),
(78,370,o),
(178,472,o),
(306,472,cs),
(434,472,o),
(534,370,o),
(534,240,cs),
(534,110,o),
(434,8,o),
(306,8,cs)
);
}
);
width = 612;
},
{
anchors = (
{
name = bottom;
pos = (281,0);
},
{
name = center;
pos = (281,240);
},
{
name = ogonek;
pos = (506,10);
},
{
name = top;
pos = (281,480);
},
{
name = topright;
pos = (542,480);
}
);
layerId = m002;
shapes = (
{
closed = 1;
nodes = (
(424,-16,o),
(537,97,o),
(537,240,cs),
(537,383,o),
(424,496,o),
(281,496,cs),
(138,496,o),
(25,383,o),
(25,240,cs),
(25,97,o),
(138,-16,o),
(281,-16,cs)
);
},
{
closed = 1;
nodes = (
(184,60,o),
(107,139,o),
(107,240,cs),
(107,341,o),
(184,420,o),
(281,420,cs),
(378,420,o),
(455,341,o),
(455,240,cs),
(455,139,o),
(378,60,o),
(281,60,cs)
);
}
);
width = 562;
},
{
anchors = (
{
name = bottom;
pos = (291,0);
},
{
name = center;
pos = (291,240);
},
{
name = ogonek;
pos = (524,10);
},
{
name = top;
pos = (291,480);
},
{
name = topright;
pos = (562,480);
}
);
layerId = m003;
shapes = (
{
closed = 1;
nodes = (
(440,-16,o),
(557,97,o),
(557,240,cs),
(557,383,o),
(440,496,o),
(291,496,cs),
(142,496,o),
(25,383,o),
(25,240,cs),
(25,97,o),
(142,-16,o),
(291,-16,cs)
);
},
{
closed = 1;
nodes = (
(235,142,o),
(191,185,o),
(191,240,cs),
(191,295,o),
(235,338,o),
(291,338,cs),
(347,338,o),
(391,295,o),
(391,240,cs),
(391,185,o),
(347,142,o),
(291,142,cs)
);
}
);
width = 582;
}
);
metricRight = "=|o";
unicode = 111;
},
{
glyphname = oopen;
lastChange = "2025-05-21 11:28:56 +0000";
layers = (
{
anchors = (
{
name = bottom;
pos = (149,0);
},
{
name = center;
pos = (149,240);
},
{
name = ogonek;
pos = (394,10);
},
{
name = top;
pos = (149,480);
},
{
name = topright;
pos = (435,480);
}
);
layerId = m01;
shapes = (
{
closed = 1;
nodes = (
(45,448,l),
(76,463,o),
(111,472,o),
(149,472,cs),
(277,472,o),
(377,370,o),
(377,240,cs),
(377,110,o),
(277,8,o),
(149,8,cs),
(111,8,o),
(76,17,o),
(45,32,c),
(45,5,l),
(77,-8,o),
(112,-16,o),
(149,-16,cs),
(292,-16,o),
(405,97,o),
(405,240,cs),
(405,383,o),
(292,496,o),
(149,496,cs),
(112,496,o),
(77,488,o),
(45,475,c)
);
}
);
width = 455;
},
{
anchors = (
{
name = bottom;
pos = (99,0);
},
{
name = center;
pos = (99,240);
},
{
name = ogonek;
pos = (324,10);
},
{
name = top;
pos = (99,480);
},
{
name = topright;
pos = (360,480);
}
);
layerId = m002;
shapes = (
{
closed = 1;
nodes = (
(20,401,l),
(44,413,o),
(71,420,o),
(99,420,cs),
(196,420,o),
(273,341,o),
(273,240,cs),
(273,139,o),
(196,60,o),
(99,60,cs),
(71,60,o),
(44,67,o),
(20,79,c),
(20,-4,l),
(45,-12,o),
(71,-16,o),
(99,-16,cs),
(242,-16,o),
(355,97,o),
(355,240,cs),
(355,383,o),
(242,496,o),
(99,496,cs),
(71,496,o),
(45,492,o),
(20,484,c)
);
}
);
width = 380;
},
{
anchors = (
{
name = bottom;
pos = (68,0);
},
{
name = center;
pos = (68,240);
},
{
name = ogonek;
pos = (301,10);
},
{
name = top;
pos = (68,480);
},
{
name = topright;
pos = (339,480);
}
);
layerId = m003;
shapes = (
{
closed = 1;
nodes = (
(20,326,l),
(34,334,o),
(50,338,o),
(68,338,cs),
(124,338,o),
(168,295,o),
(168,240,cs),
(168,185,o),
(124,142,o),
(68,142,cs),
(50,142,o),
(34,146,o),
(20,154,c),
(20,-12,l),
(36,-15,o),
(51,-16,o),
(68,-16,cs),
(217,-16,o),
(334,97,o),
(334,240,cs),
(334,383,o),
(217,496,o),
(68,496,cs),
(51,496,o),
(36,495,o),
(20,492,c)
);
}
);
width = 359;
}
);
metricLeft = "=|c";
metricRight = o;
unicode = 596;
},
{
glyphname = oslash;
kernLeft = o;
kernRight = o;
lastChange = "2025-05-21 11:28:56 +0000";
layers = (
{
anchors = (
{
name = top;
pos = (306,480);
}
);
layerId = m01;
shapes = (
{
closed = 1;
nodes = (
(176,-60,l),
(456,536,l),
(430,536,l),
(150,-60,l)
);
},
{
ref = o;
}
);
width = 612;
},
{
anchors = (
{
name = top;
pos = (281,480);
}
);
layerId = m002;
shapes = (
{
closed = 1;
nodes = (
(180,-60,l),
(460,536,l),
(384,536,l),
(104,-60,l)
);
},
{
ref = o;
}
);
width = 562;
},
{
anchors = (
{
name = top;
pos = (291,480);
}
);
layerId = m003;
shapes = (
{
closed = 1;
nodes = (
(214,-60,l),
(494,536,l),
(368,536,l),
(88,-60,l)
);
},
{
ref = o;
}
);
width = 582;
}
);
metricLeft = o;
metricRight = o;
unicode = 248;
},
{
glyphname = oe;
kernLeft = o;
kernRight = e;
lastChange = "2025-05-21 11:28:56 +0000";
layers = (
{
anchors = (
{
name = bottom;
pos = (468,0);
},
{
name = top;
pos = (468,480);
}
);
layerId = m01;
shapes = (
{
closed = 1;
nodes = (
(368,-16,o),
(440,28,o),
(482,96,c),
(524,28,o),
(595,-16,o),
(677,-16,cs),
(743,-16,o),
(828,26,o),
(871,80,c),
(819,133,l),
(789,93,o),
(728,62,o),
(681,62,cs),
(601,62,o),
(537,126,o),
(526,212,c),
(889,212,l),
(899,371,o),
(800,496,o),
(663,496,cs),
(586,496,o),
(520,453,o),
(481,386,c),
(438,453,o),
(368,496,o),
(286,496,cs),
(154,496,o),
(50,383,o),
(50,240,cs),
(50,97,o),
(154,-16,o),
(286,-16,cs)
);
},
{
closed = 1;
nodes = (
(200,60,o),
(132,139,o),
(132,240,cs),
(132,341,o),
(200,420,o),
(286,420,cs),
(372,420,o),
(440,341,o),
(440,240,cs),
(440,139,o),
(372,60,o),
(286,60,cs)
);
},
{
closed = 1;
nodes = (
(543,361,o),
(601,418,o),
(671,418,cs),
(739,418,o),
(790,362,o),
(804,282,c),
(528,282,l)
);
}
);
width = 935;
},
{
anchors = (
{
name = bottom;
pos = (443,0);
},
{
name = top;
pos = (443,480);
}
);
layerId = m002;
shapes = (
{
closed = 1;
nodes = (
(343,-16,o),
(415,28,o),
(457,96,c),
(499,28,o),
(570,-16,o),
(652,-16,cs),
(718,-16,o),
(803,26,o),
(846,80,c),
(794,133,l),
(764,93,o),
(703,62,o),
(656,62,cs),
(576,62,o),
(512,126,o),
(501,212,c),
(864,212,l),
(874,371,o),
(775,496,o),
(638,496,cs),
(561,496,o),
(495,453,o),
(456,386,c),
(413,453,o),
(343,496,o),
(261,496,cs),
(129,496,o),
(25,383,o),
(25,240,cs),
(25,97,o),
(129,-16,o),
(261,-16,cs)
);
},
{
closed = 1;
nodes = (
(175,60,o),
(107,139,o),
(107,240,cs),
(107,341,o),
(175,420,o),
(261,420,cs),
(347,420,o),
(415,341,o),
(415,240,cs),
(415,139,o),
(347,60,o),
(261,60,cs)
);
},
{
closed = 1;
nodes = (
(518,361,o),
(576,418,o),
(646,418,cs),
(714,418,o),
(765,362,o),
(779,282,c),
(503,282,l)
);
}
);
width = 885;
},
{
anchors = (
{
name = bottom;
pos = (443,0);
},
{
name = top;
pos = (443,480);
}
);
layerId = m003;
shapes = (
{
closed = 1;
nodes = (
(343,-16,o),
(415,28,o),
(457,96,c),
(499,28,o),
(570,-16,o),
(652,-16,cs),
(718,-16,o),
(803,26,o),
(846,80,c),
(794,133,l),
(764,93,o),
(703,62,o),
(656,62,cs),
(576,62,o),
(512,126,o),
(501,212,c),
(864,212,l),
(874,371,o),
(775,496,o),
(638,496,cs),
(561,496,o),
(495,453,o),
(456,386,c),
(413,453,o),
(343,496,o),
(261,496,cs),
(129,496,o),
(25,383,o),
(25,240,cs),
(25,97,o),
(129,-16,o),
(261,-16,cs)
);
},
{
closed = 1;
nodes = (
(175,60,o),
(107,139,o),
(107,240,cs),
(107,341,o),
(175,420,o),
(261,420,cs),
(347,420,o),
(415,341,o),
(415,240,cs),
(415,139,o),
(347,60,o),
(261,60,cs)
);
},
{
closed = 1;
nodes = (
(518,361,o),
(576,418,o),
(646,418,cs),
(714,418,o),
(765,362,o),
(779,282,c),
(503,282,l)
);
}
);
width = 885;
}
);
metricLeft = o;
metricRight = e;
unicode = 339;
},
{
glyphname = p;
kernLeft = p;
kernRight = o;
lastChange = "2025-04-04 18:29:01 +0000";
layers = (
{
anchors = (
{
name = bottom;
pos = (318,0);
},
{
name = top;
pos = (318,480);
}
);
layerId = m01;
shapes = (
{
closed = 1;
nodes = (
(98,-280,l),
(98,480,l),
(70,480,l),
(70,-280,l)
);
},
{
angle = 180;
pos = (586,480);
ref = Bowl;
}
);
width = 636;
},
{
anchors = (
{
name = bottom;
pos = (303,0);
},
{
name = top;
pos = (303,480);
}
);
layerId = m002;
shapes = (
{
closed = 1;
nodes = (
(137,-280,l),
(137,480,l),
(55,480,l),
(55,-280,l)
);
},
{
angle = 180;
pos = (581,480);
ref = Bowl;
}
);
width = 606;
},
{
anchors = (
{
name = bottom;
pos = (302,0);
},
{
name = top;
pos = (302,480);
}
);
layerId = m003;
shapes = (
{
closed = 1;
nodes = (
(217,-280,l),
(217,480,l),
(55,480,l),
(55,-280,l)
);
},
{
angle = 180;
pos = (579,480);
ref = Bowl;
}
);
width = 604;
}
);
metricLeft = "=n+5";
metricRight = o;
unicode = 112;
},
{
glyphname = q;
kernLeft = o;
kernRight = q;
lastChange = "2025-05-19 08:16:51 +0000";
layers = (
{
anchors = (
{
name = bottom;
pos = (313,0);
},
{
name = top;
pos = (313,480);
}
);
layerId = m01;
shapes = (
{
closed = 1;
nodes = (
(566,-280,l),
(566,480,l),
(538,480,l),
(538,-280,l)
);
},
{
pos = (50,0);
ref = Bowl;
}
);
width = 626;
},
{
anchors = (
{
name = bottom;
pos = (298,0);
},
{
name = top;
pos = (298,480);
}
);
layerId = m002;
shapes = (
{
closed = 1;
nodes = (
(551,-280,l),
(551,480,l),
(469,480,l),
(469,-280,l)
);
},
{
pos = (25,0);
ref = Bowl;
}
);
width = 596;
},
{
anchors = (
{
name = bottom;
pos = (303,0);
},
{
name = top;
pos = (303,480);
}
);
layerId = m003;
shapes = (
{
closed = 1;
nodes = (
(561,-280,l),
(561,480,l),
(399,480,l),
(399,-280,l)
);
},
{
pos = (25,0);
ref = Bowl;
}
);
width = 606;
}
);
metricLeft = o;
metricRight = n;
unicode = 113;
},
{
glyphname = r;
kernLeft = n;
kernRight = r;
lastChange = "2025-04-04 18:29:01 +0000";
layers = (
{
anchors = (
{
name = bottom;
pos = (208,0);
},
{
name = top;
pos = (208,480);
}
);
layerId = m01;
shapes = (
{
closed = 1;
nodes = (
(78,309,o),
(93,309,o),
(93,309,c),
(93,401,o),
(159,473,o),
(243,473,c),
(314,473,o),
(371,419,o),
(392,351,c),
(416,364,l),
(396,438,o),
(322,496,o),
(247,496,cs),
(152,496,o),
(78,418,o),
(78,309,cs)
);
},
{
closed = 1;
nodes = (
(93,0,l),
(93,480,l),
(65,480,l),
(65,0,l)
);
}
);
width = 416;
},
{
anchors = (
{
name = bottom;
pos = (213,0);
},
{
name = top;
pos = (213,480);
}
);
layerId = m002;
shapes = (
{
closed = 1;
nodes = (
(94,289,o),
(138,289,o),
(138,289,c),
(138,365,o),
(185,418,o),
(252,418,c),
(294,418,o),
(334,385,o),
(348,339,c),
(426,381,l),
(408,449,o),
(335,496,o),
(274,496,cs),
(168,496,o),
(94,411,o),
(94,289,cs)
);
},
{
closed = 1;
nodes = (
(138,0,l),
(138,480,l),
(50,480,l),
(50,0,l)
);
}
);
width = 426;
},
{
anchors = (
{
name = bottom;
pos = (264,0);
},
{
name = top;
pos = (264,480);
}
);
layerId = m003;
shapes = (
{
closed = 1;
nodes = (
(122,229,o),
(214,229,o),
(214,229,c),
(214,296,o),
(255,348,o),
(307,348,c),
(345,348,o),
(386,310,o),
(400,262,c),
(528,344,l),
(505,429,o),
(416,496,o),
(325,496,cs),
(211,496,o),
(122,379,o),
(122,229,cs)
);
},
{
closed = 1;
nodes = (
(214,0,l),
(214,480,l),
(50,480,l),
(50,0,l)
);
}
);
width = 528;
}
);
metricLeft = n;
metricRight = "=v-5";
unicode = 114;
},
{
glyphname = s;
kernLeft = s;
kernRight = s;
lastChange = "2025-04-04 18:29:01 +0000";
layers = (
{
anchors = (
{
name = bottom;
pos = (245,0);
},
{
name = top;
pos = (245,480);
}
);
layerId = m01;
shapes = (
{
closed = 1;
nodes = (
(358,-16,o),
(450,55,o),
(450,146,c),
(450,248,o),
(369,251,o),
(267,272,cs),
(171,292,o),
(95,289,o),
(95,359,c),
(95,430,o),
(160,470,o),
(243,470,cs),
(326,470,o),
(391,418,o),
(391,350,c),
(421,350,l),
(421,432,o),
(343,496,o),
(243,496,cs),
(143,496,o),
(65,438,o),
(65,352,c),
(65,275,o),
(147,267,o),
(251,245,cs),
(346,225,o),
(420,233,o),
(420,141,c),
(420,67,o),
(343,10,o),
(245,10,cs),
(147,10,o),
(70,75,o),
(70,160,c),
(40,160,l),
(40,61,o),
(128,-16,o),
(241,-16,cs)
);
}
);
width = 490;
},
{
anchors = (
{
name = bottom;
pos = (220,0);
},
{
name = top;
pos = (220,480);
}
);
layerId = m002;
shapes = (
{
closed = 1;
nodes = (
(335,-16,o),
(425,55,o),
(425,146,c),
(425,249,o),
(327,271,o),
(242,290,cs),
(180,304,o),
(126,316,o),
(126,359,c),
(126,392,o),
(166,418,o),
(218,418,cs),
(270,418,o),
(310,388,o),
(310,350,c),
(396,350,l),
(396,432,o),
(318,496,o),
(218,496,cs),
(117,496,o),
(40,425,o),
(40,347,c),
(40,264,o),
(141,237,o),
(226,218,cs),
(288,204,o),
(339,189,o),
(339,141,c),
(339,97,o),
(289,62,o),
(220,62,cs),
(153,62,o),
(101,105,o),
(101,160,c),
(15,160,l),
(15,61,o),
(103,-16,o),
(216,-16,cs)
);
}
);
width = 440;
},
{
anchors = (
{
name = bottom;
pos = (257,0);
},
{
name = top;
pos = (257,480);
}
);
layerId = m003;
shapes = (
{
closed = 1;
nodes = (
(406,-16,o),
(499,58,o),
(499,156,c),
(499,266,o),
(371,289,o),
(291,304,cs),
(232,315,o),
(205,314,o),
(205,334,c),
(205,350,o),
(211,368,o),
(257,368,cs),
(301,368,o),
(309,342,o),
(309,325,c),
(475,325,l),
(475,424,o),
(380,496,o),
(257,496,cs),
(144,496,o),
(39,431,o),
(39,339,c),
(39,234,o),
(156,226,o),
(237,209,cs),
(302,195,o),
(333,192,o),
(333,164,c),
(333,138,o),
(314,112,o),
(259,112,cs),
(204,112,o),
(181,152,o),
(181,190,c),
(15,190,l),
(15,69,o),
(109,-16,o),
(255,-16,cs)
);
}
);
width = 514;
}
);
metricLeft = "=o-10";
metricRight = "=|s";
unicode = 115;
},
{
glyphname = germandbls;
kernLeft = straight;
kernRight = germandbls;
lastChange = "2025-05-21 11:28:56 +0000";
layers = (
{
anchors = (
{
name = bottom;
pos = (284,0);
},
{
name = top;
pos = (284,720);
}
);
layerId = m01;
shapes = (
{
closed = 1;
nodes = (
(158,0,l),
(158,537,ls),
(158,594,o),
(194,638,o),
(239,638,cs),
(294,638,ls),
(352,638,o),
(398,595,o),
(398,540,cs),
(398,483,o),
(350,439,o),
(289,439,cs),
(238,439,l),
(238,360,l),
(289,360,ls),
(375,360,o),
(443,298,o),
(443,220,cs),
(443,142,o),
(375,80,o),
(289,80,cs),
(238,80,l),
(238,0,l),
(289,0,ls),
(426,0,o),
(533,97,o),
(533,220,cs),
(533,297,o),
(487,377,o),
(392,404,c),
(467,429,o),
(487,499,o),
(487,540,cs),
(487,641,o),
(402,720,o),
(294,720,cs),
(241,720,ls),
(145,720,o),
(70,639,o),
(70,537,cs),
(70,0,l)
);
}
);
width = 568;
},
{
anchors = (
{
name = bottom;
pos = (266,0);
},
{
name = top;
pos = (266,720);
}
);
layerId = m002;
shapes = (
{
closed = 1;
nodes = (
(133,0,l),
(133,537,ls),
(133,594,o),
(169,638,o),
(214,638,cs),
(269,638,ls),
(327,638,o),
(373,595,o),
(373,540,cs),
(373,483,o),
(325,439,o),
(264,439,cs),
(213,439,l),
(213,360,l),
(264,360,ls),
(350,360,o),
(418,298,o),
(418,220,cs),
(418,142,o),
(350,80,o),
(264,80,cs),
(213,80,l),
(213,0,l),
(264,0,ls),
(401,0,o),
(508,97,o),
(508,220,cs),
(508,297,o),
(462,377,o),
(367,404,c),
(442,429,o),
(462,499,o),
(462,540,cs),
(462,641,o),
(377,720,o),
(269,720,cs),
(216,720,ls),
(120,720,o),
(45,639,o),
(45,537,cs),
(45,0,l)
);
}
);
width = 531;
},
{
anchors = (
{
name = bottom;
pos = (266,0);
},
{
name = top;
pos = (266,720);
}
);
layerId = m003;
shapes = (
{
closed = 1;
nodes = (
(133,0,l),
(133,537,ls),
(133,594,o),
(169,638,o),
(214,638,cs),
(269,638,ls),
(327,638,o),
(373,595,o),
(373,540,cs),
(373,483,o),
(325,439,o),
(264,439,cs),
(213,439,l),
(213,360,l),
(264,360,ls),
(350,360,o),
(418,298,o),
(418,220,cs),
(418,142,o),
(350,80,o),
(264,80,cs),
(213,80,l),
(213,0,l),
(264,0,ls),
(401,0,o),
(508,97,o),
(508,220,cs),
(508,297,o),
(462,377,o),
(367,404,c),
(442,429,o),
(462,499,o),
(462,540,cs),
(462,641,o),
(377,720,o),
(269,720,cs),
(216,720,ls),
(120,720,o),
(45,639,o),
(45,537,cs),
(45,0,l)
);
}
);
width = 531;
}
);
metricLeft = B;
metricRight = B;
unicode = 223;
},
{
glyphname = t;
kernLeft = t;
kernRight = t;
lastChange = "2025-05-15 13:15:13 +0000";
layers = (
{
anchors = (
{
name = bottom;
pos = (172,0);
},
{
name = center;
pos = (172,240);
},
{
name = top;
pos = (172,649);
},
{
name = topright;
pos = (323,720);
}
);
guides = (
{
angle = 270;
pos = (159,480);
}
);
layerId = m01;
shapes = (
{
closed = 1;
nodes = (
(280,0,l),
(328,0,l),
(328,24,l),
(277,24,ls),
(199,24,o),
(137,83,o),
(137,158,c),
(109,158,l),
(109,70,o),
(182,0,o),
(275,0,c)
);
},
{
closed = 1;
nodes = (
(137,158,l),
(137,649,l),
(109,649,l),
(109,158,l)
);
},
{
closed = 1;
nodes = (
(308,458,l),
(308,480,l),
(40,480,l),
(40,458,l)
);
}
);
width = 343;
},
{
anchors = (
{
name = bottom;
pos = (182,0);
},
{
name = center;
pos = (182,240);
},
{
name = top;
pos = (182,649);
},
{
name = topright;
pos = (344,720);
}
);
guides = (
{
angle = 270;
pos = (164,480);
}
);
layerId = m002;
shapes = (
{
closed = 1;
nodes = (
(271,0,l),
(349,0,l),
(349,82,l),
(264,82,ls),
(223,82,o),
(183,126,o),
(183,183,c),
(95,183,l),
(95,81,o),
(176,0,o),
(266,0,c)
);
},
{
closed = 1;
nodes = (
(183,183,l),
(183,649,l),
(95,649,l),
(95,183,l)
);
},
{
closed = 1;
nodes = (
(334,412,l),
(334,480,l),
(25,480,l),
(25,412,l)
);
}
);
width = 364;
},
{
anchors = (
{
name = bottom;
pos = (217,0);
},
{
name = center;
pos = (217,240);
},
{
name = top;
pos = (217,649);
},
{
name = topright;
pos = (414,720);
}
);
guides = (
{
angle = 270;
pos = (194,480);
}
);
layerId = m003;
shapes = (
{
closed = 1;
nodes = (
(331,0,l),
(419,0,l),
(419,136,l),
(342,136,ls),
(291,136,o),
(251,172,o),
(251,217,c),
(87,217,l),
(87,95,o),
(175,0,o),
(288,0,c)
);
},
{
closed = 1;
nodes = (
(251,217,l),
(251,649,l),
(87,649,l),
(87,217,l)
);
},
{
closed = 1;
nodes = (
(374,364,l),
(374,480,l),
(25,480,l),
(25,364,l)
);
}
);
width = 434;
}
);
metricLeft = "=f-15";
metricRight = "=f+5";
unicode = 116;
},
{
glyphname = t.ss01;
kernLeft = t.ss01;
kernRight = t.ss01;
lastChange = "2025-04-04 19:37:22 +0000";
layers = (
{
anchors = (
{
name = bottom;
pos = (145,0);
},
{
name = center;
pos = (145,240);
},
{
name = top;
pos = (145,649);
},
{
name = topright;
pos = (317,720);
}
);
layerId = m01;
shapes = (
{
closed = 1;
nodes = (
(292,456,l),
(292,480,l),
(186,480,l),
(186,649,l),
(174,649,l),
(40,468,l),
(40,456,l)
);
},
{
closed = 1;
nodes = (
(186,0,l),
(186,459,l),
(160,459,l),
(160,0,l)
);
}
);
width = 307;
},
{
anchors = (
{
name = bottom;
pos = (185,0);
},
{
name = center;
pos = (185,240);
},
{
name = top;
pos = (185,649);
},
{
name = topright;
pos = (349,720);
}
);
layerId = m002;
shapes = (
{
closed = 1;
nodes = (
(354,402,l),
(354,480,l),
(218,480,l),
(218,649,l),
(185,649,l),
(25,445,l),
(25,402,l)
);
},
{
closed = 1;
nodes = (
(218,0,l),
(218,425,l),
(137,425,l),
(137,0,l)
);
}
);
width = 369;
},
{
anchors = (
{
name = bottom;
pos = (195,0);
},
{
name = center;
pos = (195,240);
},
{
name = top;
pos = (195,649);
},
{
name = topright;
pos = (359,720);
}
);
layerId = m003;
shapes = (
{
closed = 1;
nodes = (
(364,360,l),
(364,480,l),
(267,480,l),
(267,649,l),
(195,649,l),
(25,432,l),
(25,360,l)
);
},
{
closed = 1;
nodes = (
(267,0,l),
(267,425,l),
(109,425,l),
(109,0,l)
);
}
);
width = 379;
}
);
metricLeft = t;
metricRight = t;
},
{
glyphname = tbar;
lastChange = "2025-05-21 11:28:56 +0000";
layers = (
{
layerId = m01;
shapes = (
{
ref = t;
},
{
closed = 1;
nodes = (
(40,258,l),
(308,258,l),
(308,280,l),
(40,280,l)
);
}
);
width = 343;
},
{
layerId = m002;
shapes = (
{
ref = t;
},
{
closed = 1;
nodes = (
(25,212,l),
(334,212,l),
(334,280,l),
(25,280,l)
);
}
);
width = 364;
},
{
layerId = m003;
shapes = (
{
ref = t;
},
{
closed = 1;
nodes = (
(25,194,l),
(374,194,l),
(374,310,l),
(25,310,l)
);
}
);
width = 434;
}
);
unicode = 359;
},
{
glyphname = v;
kernLeft = v;
kernRight = v;
lastChange = "2025-05-16 11:46:53 +0000";
layers = (
{
anchors = (
{
name = bottom;
pos = (235,0);
},
{
name = top;
pos = (235,480);
}
);
layerId = m01;
shapes = (
{
closed = 1;
nodes = (
(254,0,l),
(464,480,l),
(432,480,l),
(231,16,l),
(239,16,l),
(36,480,l),
(5,480,l),
(216,0,l)
);
}
);
width = 469;
},
{
anchors = (
{
name = bottom;
pos = (268,0);
},
{
name = top;
pos = (268,480);
}
);
layerId = m002;
shapes = (
{
closed = 1;
nodes = (
(317,0,l),
(531,480,l),
(441,480,l),
(254,46,l),
(282,46,l),
(95,480,l),
(5,480,l),
(219,0,l)
);
}
);
width = 536;
},
{
anchors = (
{
name = bottom;
pos = (306,0);
},
{
name = top;
pos = (306,480);
}
);
layerId = m003;
shapes = (
{
closed = 1;
nodes = (
(413,0,l),
(607,480,l),
(430,480,l),
(294,110,l),
(318,110,l),
(182,480,l),
(5,480,l),
(199,0,l)
);
}
);
width = 612;
}
);
unicode = 118;
},
{
glyphname = w;
kernLeft = v;
kernRight = v;
lastChange = "2025-04-04 18:29:01 +0000";
layers = (
{
anchors = (
{
name = bottom;
pos = (356,0);
},
{
name = top;
pos = (356,480);
}
);
layerId = m01;
shapes = (
{
closed = 1;
nodes = (
(537,0,l),
(707,480,l),
(675,480,l),
(511,0,l)
);
},
{
closed = 1;
nodes = (
(194,0,l),
(37,480,l),
(5,480,l),
(171,0,l)
);
},
{
closed = 1;
nodes = (
(202,0,l),
(370,480,l),
(339,480,l),
(175,0,l)
);
},
{
closed = 1;
nodes = (
(530,0,l),
(373,480,l),
(341,480,l),
(504,0,l)
);
}
);
width = 712;
},
{
anchors = (
{
name = bottom;
pos = (383,0);
},
{
name = top;
pos = (383,480);
}
);
layerId = m002;
shapes = (
{
closed = 1;
nodes = (
(589,0,l),
(761,480,l),
(677,480,l),
(513,0,l)
);
},
{
closed = 1;
nodes = (
(246,0,l),
(89,480,l),
(5,480,l),
(173,0,l)
);
},
{
closed = 1;
nodes = (
(253,0,l),
(425,480,l),
(341,480,l),
(177,0,l)
);
},
{
closed = 1;
nodes = (
(582,0,l),
(425,480,l),
(341,480,l),
(509,0,l)
);
}
);
width = 766;
},
{
anchors = (
{
name = bottom;
pos = (423,0);
},
{
name = top;
pos = (423,480);
}
);
layerId = m003;
shapes = (
{
closed = 1;
nodes = (
(669,0,l),
(841,480,l),
(677,480,l),
(513,0,l)
);
},
{
closed = 1;
nodes = (
(326,0,l),
(169,480,l),
(5,480,l),
(173,0,l)
);
},
{
closed = 1;
nodes = (
(333,0,l),
(505,480,l),
(341,480,l),
(177,0,l)
);
},
{
closed = 1;
nodes = (
(662,0,l),
(505,480,l),
(341,480,l),
(509,0,l)
);
}
);
width = 846;
}
);
metricLeft = v;
metricRight = v;
unicode = 119;
},
{
glyphname = x;
kernLeft = x;
kernRight = x;
lastChange = "2025-04-04 18:29:01 +0000";
layers = (
{
anchors = (
{
name = bottom;
pos = (214,0);
},
{
name = top;
pos = (214,480);
}
);
layerId = m01;
shapes = (
{
closed = 1;
nodes = (
(422,0,l),
(48,480,l),
(14,480,l),
(388,0,l)
);
},
{
closed = 1;
nodes = (
(40,0,l),
(220,231,l),
(202,253,l),
(5,0,l)
);
},
{
closed = 1;
nodes = (
(411,480,l),
(378,480,l),
(212,251,l),
(228,229,l)
);
}
);
width = 427;
},
{
anchors = (
{
name = bottom;
pos = (248,0);
},
{
name = top;
pos = (248,480);
}
);
layerId = m002;
shapes = (
{
closed = 1;
nodes = (
(490,0,l),
(124,480,l),
(24,480,l),
(390,0,l)
);
},
{
closed = 1;
nodes = (
(100,0,l),
(262,208,l),
(214,269,l),
(5,0,l)
);
},
{
closed = 1;
nodes = (
(479,480,l),
(384,480,l),
(228,269,l),
(276,208,l)
);
}
);
width = 495;
},
{
anchors = (
{
name = bottom;
pos = (282,0);
},
{
name = top;
pos = (282,480);
}
);
layerId = m003;
shapes = (
{
closed = 1;
nodes = (
(558,0,l),
(192,480,l),
(16,480,l),
(382,0,l)
);
},
{
closed = 1;
nodes = (
(160,0,l),
(313,196,l),
(229,288,l),
(5,0,l)
);
},
{
closed = 1;
nodes = (
(539,480,l),
(384,480,l),
(255,306,l),
(336,208,l)
);
}
);
width = 563;
}
);
metricLeft = v;
metricRight = v;
unicode = 120;
},
{
glyphname = y;
kernLeft = y;
kernRight = y;
lastChange = "2025-05-15 12:47:15 +0000";
layers = (
{
anchors = (
{
name = bottom;
pos = (242,0);
},
{
name = top;
pos = (242,480);
}
);
layerId = m01;
shapes = (
{
closed = 1;
nodes = (
(145,-279,l),
(479,481,l),
(447,481,l),
(120,-279,l)
);
},
{
closed = 1;
nodes = (
(266,0,l),
(37,480,l),
(5,480,l),
(240,0,l)
);
}
);
width = 484;
},
{
anchors = (
{
name = bottom;
pos = (277,0);
},
{
name = top;
pos = (277,480);
}
);
layerId = m002;
shapes = (
{
closed = 1;
nodes = (
(215,-280,l),
(549,480,l),
(457,480,l),
(130,-280,l)
);
},
{
closed = 1;
nodes = (
(337,0,l),
(108,480,l),
(5,480,l),
(251,0,l)
);
}
);
width = 554;
},
{
anchors = (
{
name = bottom;
pos = (323,0);
},
{
name = top;
pos = (323,480);
}
);
layerId = m003;
shapes = (
{
closed = 1;
nodes = (
(296,-280,l),
(640,480,l),
(458,480,l),
(131,-280,l)
);
},
{
closed = 1;
nodes = (
(418,0,l),
(189,480,l),
(5,480,l),
(252,0,l)
);
}
);
width = 645;
}
);
metricLeft = v;
metricRight = v;
unicode = 121;
},
{
glyphname = z;
kernLeft = z;
kernRight = z;
lastChange = "2025-04-04 18:29:01 +0000";
layers = (
{
anchors = (
{
name = bottom;
pos = (252,0);
},
{
name = center;
pos = (252,240);
},
{
name = top;
pos = (252,480);
}
);
layerId = m01;
shapes = (
{
closed = 1;
nodes = (
(79,28,l),
(453,455,l),
(419,455,l),
(45,28,l)
);
},
{
closed = 1;
nodes = (
(458,0,l),
(458,28,l),
(45,28,l),
(45,0,l)
);
},
{
closed = 1;
nodes = (
(453,455,l),
(453,480,l),
(68,480,l),
(68,455,l)
);
}
);
width = 503;
},
{
anchors = (
{
name = bottom;
pos = (227,0);
},
{
name = center;
pos = (227,240);
},
{
name = top;
pos = (227,480);
}
);
layerId = m002;
shapes = (
{
closed = 1;
nodes = (
(133,80,l),
(428,405,l),
(315,405,l),
(20,80,l)
);
},
{
closed = 1;
nodes = (
(433,0,l),
(433,80,l),
(20,80,l),
(20,0,l)
);
},
{
closed = 1;
nodes = (
(428,405,l),
(428,480,l),
(43,480,l),
(43,405,l)
);
}
);
width = 453;
},
{
anchors = (
{
name = bottom;
pos = (227,0);
},
{
name = center;
pos = (227,240);
},
{
name = top;
pos = (227,480);
}
);
layerId = m003;
shapes = (
{
closed = 1;
nodes = (
(203,135,l),
(428,345,l),
(245,345,l),
(20,135,l)
);
},
{
closed = 1;
nodes = (
(433,0,l),
(433,135,l),
(20,135,l),
(20,0,l)
);
},
{
closed = 1;
nodes = (
(428,345,l),
(428,480,l),
(43,480,l),
(43,345,l)
);
}
);
width = 453;
}
);
metricLeft = "=s+5";
metricRight = "=|z";
unicode = 122;
},
{
glyphname = zero;
kernLeft = O;
kernRight = O;
lastChange = "2025-05-16 14:47:39 +0000";
layers = (
{
layerId = m01;
shapes = (
{
closed = 1;
nodes = (
(460,-16,o),
(562,124,o),
(562,350,cs),
(562,576,o),
(460,716,o),
(296,716,cs),
(132,716,o),
(30,576,o),
(30,350,cs),
(30,124,o),
(132,-16,o),
(296,-16,cs)
);
},
{
closed = 1;
nodes = (
(150,8,o),
(60,139,o),
(60,350,cs),
(60,561,o),
(150,692,o),
(296,692,cs),
(442,692,o),
(532,561,o),
(532,350,cs),
(532,139,o),
(442,8,o),
(296,8,cs)
);
}
);
width = 592;
},
{
layerId = m002;
shapes = (
{
closed = 1;
nodes = (
(460,-16,o),
(562,124,o),
(562,350,cs),
(562,576,o),
(460,716,o),
(296,716,cs),
(132,716,o),
(30,576,o),
(30,350,cs),
(30,124,o),
(132,-16,o),
(296,-16,cs)
);
},
{
closed = 1;
nodes = (
(185,62,o),
(116,172,o),
(116,350,cs),
(116,528,o),
(185,638,o),
(296,638,cs),
(407,638,o),
(476,528,o),
(476,350,cs),
(476,172,o),
(407,62,o),
(296,62,cs)
);
}
);
width = 592;
},
{
layerId = m003;
shapes = (
{
closed = 1;
nodes = (
(460,-16,o),
(562,124,o),
(562,350,cs),
(562,576,o),
(460,716,o),
(296,716,cs),
(132,716,o),
(30,576,o),
(30,350,cs),
(30,124,o),
(132,-16,o),
(296,-16,cs)
);
},
{
closed = 1;
nodes = (
(234,142,o),
(196,222,o),
(196,350,cs),
(196,478,o),
(234,558,o),
(296,558,cs),
(358,558,o),
(396,478,o),
(396,350,cs),
(396,222,o),
(358,142,o),
(296,142,cs)
);
}
);
width = 592;
}
);
unicode = 48;
},
{
glyphname = one;
kernLeft = "1";
kernRight = H;
lastChange = "2025-04-03 10:35:33 +0000";
layers = (
{
layerId = m01;
shapes = (
{
closed = 1;
nodes = (
(151,676,l),
(151,700,l),
(70,700,l),
(70,676,l)
);
},
{
pos = (81,0);
ref = l;
scale = (1,0.9722);
}
);
width = 264;
},
{
layerId = m002;
shapes = (
{
closed = 1;
nodes = (
(186,618,l),
(186,700,l),
(45,700,l),
(45,618,l)
);
},
{
pos = (76,0);
ref = l;
scale = (1,0.9722);
}
);
width = 275;
},
{
layerId = m003;
shapes = (
{
closed = 1;
nodes = (
(186,544,l),
(186,700,l),
(45,700,l),
(45,544,l)
);
},
{
pos = (76,0);
ref = l;
scale = (1,0.9722);
}
);
width = 355;
}
);
metricLeft = H;
metricRight = "=H+15";
unicode = 49;
},
{
glyphname = two;
kernLeft = "2";
kernRight = "2";
lastChange = "2025-05-16 15:33:58 +0000";
layers = (
{
layerId = m01;
shapes = (
{
closed = 1;
nodes = (
(60,28,l),
(60,187,o),
(157,250,o),
(255,307,cs),
(354,365,o),
(454,414,o),
(454,538,c),
(454,639,o),
(365,716,o),
(251,716,cs),
(132,716,o),
(38,633,o),
(38,525,c),
(68,525,l),
(68,620,o),
(146,690,o),
(246,690,cs),
(346,690,o),
(424,624,o),
(424,535,c),
(424,432,o),
(332,388,o),
(237,332,cs),
(136,272,o),
(30,203,o),
(30,28,c)
);
},
{
closed = 1;
nodes = (
(456,0,l),
(456,28,l),
(43,28,l),
(30,28,l),
(30,0,l)
);
}
);
width = 501;
},
{
layerId = m002;
shapes = (
{
closed = 1;
nodes = (
(110,80,l),
(110,175,o),
(187,255,o),
(265,297,cs),
(343,339,o),
(444,395,o),
(444,518,c),
(444,633,o),
(355,716,o),
(241,716,cs),
(122,716,o),
(28,633,o),
(28,525,c),
(118,525,l),
(118,587,o),
(170,634,o),
(236,634,cs),
(302,634,o),
(354,592,o),
(354,515,c),
(354,455,o),
(287,410,o),
(228,376,cs),
(135,323,o),
(20,216,o),
(20,80,c)
);
},
{
closed = 1;
nodes = (
(446,0,l),
(446,80,l),
(53,80,l),
(20,80,l),
(20,0,l)
);
}
);
width = 476;
},
{
layerId = m003;
shapes = (
{
closed = 1;
nodes = (
(186,142,l),
(186,183,o),
(226,217,o),
(295,250,cs),
(398,299,o),
(538,351,o),
(538,478,c),
(538,611,o),
(428,716,o),
(289,716,cs),
(144,716,o),
(30,614,o),
(30,485,c),
(196,485,l),
(196,527,o),
(235,560,o),
(284,560,cs),
(333,560,o),
(372,523,o),
(372,475,c),
(372,429,o),
(313,395,o),
(242,360,cs),
(142,308,o),
(20,232,o),
(20,102,c)
);
},
{
closed = 1;
nodes = (
(540,0,l),
(540,142,l),
(151,142,l),
(20,102,l),
(20,0,l)
);
}
);
width = 570;
}
);
metricLeft = "=S*2";
metricRight = "=S*1.5";
unicode = 50;
},
{
glyphname = three;
kernLeft = "3";
kernRight = "3";
lastChange = "2025-05-16 15:02:57 +0000";
layers = (
{
layerId = m01;
shapes = (
{
closed = 1;
nodes = (
(416,-16,o),
(524,90,o),
(524,224,cs),
(524,358,o),
(415,463,o),
(277,462,c),
(277,437,l),
(399,437,o),
(494,343,o),
(494,223,cs),
(494,103,o),
(399,9,o),
(277,9,cs),
(155,9,o),
(60,98,o),
(60,211,c),
(30,211,l),
(30,84,o),
(140,-16,o),
(279,-16,cs)
);
},
{
closed = 1;
nodes = (
(282,437,l),
(282,446,l),
(485,674,l),
(453,674,l),
(255,449,l),
(255,437,l)
);
},
{
closed = 1;
nodes = (
(485,674,l),
(485,700,l),
(96,700,l),
(96,674,l)
);
}
);
width = 569;
},
{
layerId = m002;
shapes = (
{
closed = 1;
nodes = (
(406,-16,o),
(514,90,o),
(514,224,cs),
(514,359,o),
(405,463,o),
(267,462,c),
(267,380,l),
(355,380,o),
(424,311,o),
(424,223,cs),
(424,135,o),
(355,66,o),
(267,66,cs),
(179,66,o),
(110,130,o),
(110,211,c),
(20,211,l),
(20,84,o),
(130,-16,o),
(269,-16,cs)
);
},
{
closed = 1;
nodes = (
(272,380,l),
(272,416,l),
(475,618,l),
(353,618,l),
(195,449,l),
(195,380,l)
);
},
{
closed = 1;
nodes = (
(475,618,l),
(475,700,l),
(86,700,l),
(86,618,l)
);
}
);
width = 544;
},
{
layerId = m003;
shapes = (
{
closed = 1;
nodes = (
(422,-16,o),
(534,94,o),
(534,234,cs),
(534,374,o),
(421,483,o),
(277,482,c),
(277,324,l),
(328,324,o),
(368,284,o),
(368,233,cs),
(368,182,o),
(328,142,o),
(277,142,cs),
(226,142,o),
(186,177,o),
(186,221,c),
(20,221,l),
(20,88,o),
(134,-16,o),
(279,-16,cs)
);
},
{
closed = 1;
nodes = (
(292,324,l),
(292,356,l),
(495,544,l),
(303,544,l),
(195,429,l),
(195,324,l)
);
},
{
closed = 1;
nodes = (
(495,544,l),
(495,700,l),
(96,700,l),
(96,544,l)
);
}
);
width = 564;
}
);
metricLeft = "=two";
metricRight = "=two";
unicode = 51;
},
{
glyphname = four;
kernLeft = "4";
kernRight = "4";
lastChange = "2025-04-09 16:17:21 +0000";
layers = (
{
layerId = m01;
shapes = (
{
closed = 1;
nodes = (
(360,0,l),
(360,230,l),
(486,230,l),
(486,254,l),
(360,254,l),
(360,700,l),
(319,700,l),
(10,255,l),
(10,230,l),
(332,230,l),
(332,0,l)
);
},
{
closed = 1;
nodes = (
(353,254,l),
(28,254,l),
(33,240,l),
(346,693,l),
(332,694,l),
(332,237,l)
);
}
);
width = 556;
},
{
layerId = m002;
shapes = (
{
closed = 1;
nodes = (
(434,0,l),
(434,184,l),
(510,184,l),
(510,264,l),
(434,264,l),
(434,700,l),
(312,700,l),
(10,262,l),
(10,184,l),
(346,184,l),
(346,0,l)
);
},
{
closed = 1;
nodes = (
(382,264,l),
(72,264,l),
(91,234,l),
(367,629,l),
(346,635,l),
(346,228,l)
);
}
);
width = 555;
},
{
layerId = m003;
shapes = (
{
closed = 1;
nodes = (
(517,2,l),
(517,128,l),
(575,128,l),
(575,284,l),
(517,284,l),
(517,700,l),
(312,700,l),
(10,262,l),
(10,128,l),
(353,128,l),
(353,2,l)
);
},
{
closed = 1;
nodes = (
(427,284,l),
(144,284,l),
(181,234,l),
(457,629,l),
(353,635,l),
(353,228,l)
);
}
);
width = 620;
}
);
metricLeft = A;
metricRight = H;
unicode = 52;
},
{
glyphname = five;
kernLeft = "5";
kernRight = "5";
lastChange = "2025-05-16 17:12:35 +0000";
layers = (
{
layerId = m01;
shapes = (
{
closed = 1;
nodes = (
(439,-16,o),
(558,96,o),
(558,239,cs),
(558,383,o),
(439,496,o),
(288,496,cs),
(199,496,o),
(98,437,o),
(58,361,c),
(83,346,l),
(114,416,o),
(207,471,o),
(294,471,cs),
(425,471,o),
(528,369,o),
(528,240,cs),
(528,111,o),
(425,9,o),
(294,9,cs),
(163,9,o),
(60,108,o),
(60,233,c),
(30,233,l),
(30,94,o),
(144,-16,o),
(288,-16,cs)
);
},
{
closed = 1;
nodes = (
(114,674,l),
(509,674,l),
(509,700,l),
(94,700,l),
(58,361,l),
(85,354,l)
);
}
);
width = 603;
},
{
layerId = m002;
shapes = (
{
closed = 1;
nodes = (
(429,-16,o),
(548,96,o),
(548,239,cs),
(548,383,o),
(429,496,o),
(278,496,cs),
(177,496,o),
(91,442,o),
(48,361,c),
(124,315,l),
(151,374,o),
(212,414,o),
(284,414,cs),
(381,414,o),
(458,337,o),
(458,240,cs),
(458,143,o),
(381,66,o),
(284,66,cs),
(187,66,o),
(110,139,o),
(110,233,c),
(20,233,l),
(20,94,o),
(134,-16,o),
(278,-16,cs)
);
},
{
closed = 1;
nodes = (
(154,622,l),
(499,622,l),
(499,700,l),
(84,700,l),
(48,361,l),
(122,322,l)
);
}
);
width = 578;
},
{
layerId = m003;
shapes = (
{
closed = 1;
nodes = (
(429,-16,o),
(548,96,o),
(548,239,cs),
(548,383,o),
(429,496,o),
(278,496,cs),
(189,496,o),
(88,437,o),
(48,361,c),
(177,283,l),
(191,314,o),
(238,338,o),
(284,338,cs),
(339,338,o),
(382,295,o),
(382,240,cs),
(382,185,o),
(339,142,o),
(284,142,cs),
(229,142,o),
(186,182,o),
(186,233,c),
(20,233,l),
(20,94,o),
(134,-16,o),
(278,-16,cs)
);
},
{
closed = 1;
nodes = (
(207,552,l),
(499,552,l),
(499,700,l),
(84,700,l),
(48,361,l),
(179,294,l)
);
}
);
width = 578;
}
);
metricLeft = "=two";
metricRight = "=two";
unicode = 53;
},
{
glyphname = six;
kernLeft = "6";
kernRight = "6";
lastChange = "2025-05-16 14:50:07 +0000";
layers = (
{
layerId = m01;
shapes = (
{
closed = 1;
nodes = (
(454,-16,o),
(573,96,o),
(573,239,cs),
(573,383,o),
(454,496,o),
(303,496,cs),
(159,496,o),
(45,383,o),
(45,240,cs),
(45,97,o),
(159,-16,o),
(303,-16,cs)
);
},
{
closed = 1;
nodes = (
(178,9,o),
(75,111,o),
(75,240,cs),
(75,369,o),
(178,471,o),
(309,471,cs),
(440,471,o),
(543,369,o),
(543,239,cs),
(543,110,o),
(440,9,o),
(309,9,cs)
);
},
{
closed = 1;
nodes = (
(102,360,l),
(284,700,l),
(256,700,l),
(74,360,l)
);
}
);
width = 603;
},
{
layerId = m002;
shapes = (
{
closed = 1;
nodes = (
(439,-16,o),
(558,96,o),
(558,239,cs),
(558,383,o),
(439,496,o),
(288,496,cs),
(144,496,o),
(30,379,o),
(30,240,cs),
(30,101,o),
(144,-16,o),
(288,-16,cs)
);
},
{
closed = 1;
nodes = (
(197,66,o),
(120,146,o),
(120,240,cs),
(120,334,o),
(197,414,o),
(294,414,cs),
(391,414,o),
(468,336,o),
(468,239,cs),
(468,142,o),
(391,66,o),
(294,66,cs)
);
},
{
closed = 1;
nodes = (
(160,360,l),
(342,700,l),
(242,700,l),
(60,360,l)
);
}
);
width = 578;
},
{
layerId = m003;
shapes = (
{
closed = 1;
nodes = (
(439,-16,o),
(558,96,o),
(558,239,cs),
(558,383,o),
(439,496,o),
(288,496,cs),
(144,496,o),
(30,383,o),
(30,240,cs),
(30,97,o),
(144,-16,o),
(288,-16,cs)
);
},
{
closed = 1;
nodes = (
(239,142,o),
(196,185,o),
(196,240,cs),
(196,295,o),
(239,338,o),
(294,338,cs),
(349,338,o),
(392,295,o),
(392,240,cs),
(392,185,o),
(349,142,o),
(294,142,cs)
);
},
{
closed = 1;
nodes = (
(244,360,l),
(426,700,l),
(242,700,l),
(60,360,l)
);
}
);
width = 578;
}
);
metricLeft = "=two*1.5";
metricRight = "=two/1.5";
unicode = 54;
},
{
glyphname = seven;
kernLeft = "7";
kernRight = "7";
lastChange = "2025-04-08 16:02:47 +0000";
layers = (
{
layerId = m01;
shapes = (
{
closed = 1;
nodes = (
(181,0,l),
(442,674,l),
(415,674,l),
(154,0,l)
);
},
{
closed = 1;
nodes = (
(442,674,l),
(442,700,l),
(10,700,l),
(10,674,l)
);
}
);
width = 452;
},
{
layerId = m002;
shapes = (
{
closed = 1;
nodes = (
(202,0,l),
(442,617,l),
(351,617,l),
(111,0,l)
);
},
{
closed = 1;
nodes = (
(442,617,l),
(442,700,l),
(10,700,l),
(10,617,l)
);
}
);
width = 452;
},
{
layerId = m003;
shapes = (
{
closed = 1;
nodes = (
(228,0,l),
(468,544,l),
(291,544,l),
(51,0,l)
);
},
{
closed = 1;
nodes = (
(468,544,l),
(468,700,l),
(10,700,l),
(10,544,l)
);
}
);
width = 478;
}
);
metricLeft = A;
metricRight = A;
unicode = 55;
},
{
glyphname = eight;
kernLeft = "8";
kernRight = B;
lastChange = "2025-04-09 16:19:07 +0000";
layers = (
{
layerId = m01;
shapes = (
{
closed = 1;
nodes = (
(364,-16,o),
(458,76,o),
(458,194,cs),
(458,285,o),
(390,374,o),
(304,397,c),
(368,419,o),
(418,488,o),
(418,554,cs),
(418,645,o),
(345,716,o),
(253,716,cs),
(151,716,o),
(70,645,o),
(70,554,cs),
(70,488,o),
(117,419,o),
(177,397,c),
(95,374,o),
(30,285,o),
(30,194,cs),
(30,76,o),
(124,-16,o),
(244,-16,cs)
);
},
{
closed = 1;
nodes = (
(140,9,o),
(60,91,o),
(60,195,cs),
(60,299,o),
(138,380,o),
(238,380,cs),
(344,380,o),
(428,299,o),
(428,195,cs),
(428,91,o),
(346,9,o),
(241,9,cs)
);
},
{
closed = 1;
nodes = (
(161,408,o),
(98,470,o),
(98,549,cs),
(98,628,o),
(162,690,o),
(244,690,cs),
(326,690,o),
(390,628,o),
(390,549,cs),
(390,470,o),
(324,408,o),
(241,408,cs)
);
}
);
width = 488;
},
{
layerId = m002;
shapes = (
{
closed = 1;
nodes = (
(398,-16,o),
(508,83,o),
(508,210,cs),
(508,296,o),
(456,359,o),
(390,400,c),
(430,435,o),
(462,467,o),
(462,536,cs),
(462,637,o),
(377,716,o),
(269,716,cs),
(155,716,o),
(66,637,o),
(66,536,cs),
(66,468,o),
(97,438,o),
(137,403,c),
(72,363,o),
(20,298,o),
(20,210,cs),
(20,83,o),
(125,-16,o),
(258,-16,cs)
);
},
{
closed = 1;
nodes = (
(178,66,o),
(110,129,o),
(110,210,cs),
(110,292,o),
(178,356,o),
(264,356,cs),
(350,356,o),
(418,292,o),
(418,210,cs),
(418,129,o),
(350,66,o),
(264,66,cs)
);
},
{
closed = 1;
nodes = (
(204,435,o),
(156,479,o),
(156,536,cs),
(156,591,o),
(204,634,o),
(264,634,cs),
(325,634,o),
(373,591,o),
(373,536,cs),
(373,479,o),
(325,435,o),
(264,435,cs)
);
}
);
width = 528;
},
{
layerId = m003;
shapes = (
{
closed = 1;
nodes = (
(408,-16,o),
(528,83,o),
(528,210,cs),
(528,313,o),
(466,359,o),
(400,400,c),
(440,425,o),
(477,458,o),
(477,536,cs),
(477,637,o),
(387,716,o),
(279,716,cs),
(165,716,o),
(71,637,o),
(71,536,cs),
(71,458,o),
(107,428,o),
(147,403,c),
(82,363,o),
(20,315,o),
(20,210,cs),
(20,83,o),
(135,-16,o),
(268,-16,cs)
);
},
{
closed = 1;
nodes = (
(226,130,o),
(189,165,o),
(189,210,cs),
(189,256,o),
(226,292,o),
(274,292,cs),
(322,292,o),
(360,256,o),
(360,210,cs),
(360,165,o),
(322,130,o),
(274,130,cs)
);
},
{
closed = 1;
nodes = (
(242,481,o),
(216,504,o),
(216,535,cs),
(216,565,o),
(242,588,o),
(274,588,cs),
(306,588,o),
(333,565,o),
(333,535,cs),
(333,504,o),
(306,481,o),
(274,481,cs)
);
}
);
width = 548;
}
);
metricLeft = "=|S";
metricRight = S;
unicode = 56;
},
{
glyphname = period;
kernLeft = period;
kernRight = period;
lastChange = "2025-05-17 16:15:53 +0000";
layers = (
{
layerId = m01;
shapes = (
{
closed = 1;
nodes = (
(81,-16,o),
(98,1,o),
(98,23,cs),
(98,45,o),
(81,62,o),
(59,62,cs),
(37,62,o),
(20,45,o),
(20,23,cs),
(20,1,o),
(37,-16,o),
(59,-16,cs)
);
}
);
width = 118;
},
{
layerId = m002;
shapes = (
{
closed = 1;
nodes = (
(126,-16,o),
(150,8,o),
(150,39,cs),
(150,69,o),
(126,94,o),
(95,94,cs),
(64,94,o),
(40,69,o),
(40,39,cs),
(40,8,o),
(64,-16,o),
(95,-16,cs)
);
}
);
width = 190;
},
{
layerId = m003;
shapes = (
{
closed = 1;
nodes = (
(170,-16,o),
(208,22,o),
(208,73,cs),
(208,124,o),
(170,162,o),
(119,162,cs),
(68,162,o),
(30,124,o),
(30,73,cs),
(30,22,o),
(68,-16,o),
(119,-16,cs)
);
}
);
width = 238;
}
);
unicode = 46;
},
{
glyphname = comma;
kernLeft = period;
kernRight = period;
lastChange = "2025-05-17 18:21:25 +0000";
layers = (
{
layerId = m01;
shapes = (
{
closed = 1;
nodes = (
(70,-78,o),
(101,-28,o),
(101,12,cs),
(101,38,o),
(85,59,o),
(64,59,cs),
(43,59,o),
(27,44,o),
(27,25,cs),
(27,5,o),
(40,-10,o),
(57,-10,cs),
(72,-10,o),
(85,4,o),
(86,22,c),
(76,21,l),
(74,-17,o),
(49,-64,o),
(20,-85,c),
(30,-103,l)
);
}
);
width = 121;
},
{
layerId = m002;
shapes = (
{
closed = 1;
nodes = (
(112,-72,o),
(150,-18,o),
(150,21,cs),
(150,59,o),
(125,89,o),
(93,89,cs),
(63,89,o),
(40,66,o),
(40,37,cs),
(40,11,o),
(59,-10,o),
(84,-10,cs),
(100,-10,o),
(113,0,o),
(114,12,c),
(92,13,l),
(91,-14,o),
(70,-48,o),
(44,-65,c),
(64,-102,l)
);
}
);
width = 190;
},
{
layerId = m003;
shapes = (
{
closed = 1;
nodes = (
(141,-65,o),
(189,3,o),
(189,53,cs),
(189,103,o),
(154,143,o),
(109,143,cs),
(65,143,o),
(30,110,o),
(30,67,cs),
(30,27,o),
(57,-4,o),
(91,-4,cs),
(106,-4,o),
(118,4,o),
(119,15,c),
(98,16,l),
(98,-6,o),
(78,-37,o),
(52,-53,c),
(79,-103,l)
);
}
);
width = 219;
}
);
metricLeft = period;
metricRight = period;
unicode = 44;
},
{
glyphname = exclam;
kernLeft = exclam;
kernRight = exclam;
lastChange = "2025-05-17 16:32:08 +0000";
layers = (
{
layerId = m01;
shapes = (
{
closed = 1;
nodes = (
(121,152,l),
(123,720,l),
(96,720,l),
(98,152,l)
);
},
{
pos = (50,0);
ref = period;
}
);
width = 218;
},
{
layerId = m002;
shapes = (
{
closed = 1;
nodes = (
(139,172,l),
(141,720,l),
(59,720,l),
(61,172,l)
);
},
{
pos = (5,0);
ref = period;
}
);
width = 200;
},
{
layerId = m003;
shapes = (
{
closed = 1;
nodes = (
(209,217,l),
(211,720,l),
(58,720,l),
(60,217,l)
);
},
{
pos = (15,0);
ref = period;
}
);
width = 268;
}
);
metricLeft = H;
metricRight = H;
unicode = 33;
},
{
glyphname = question;
kernLeft = question;
kernRight = question;
lastChange = "2025-05-17 16:16:21 +0000";
layers = (
{
layerId = m01;
shapes = (
{
closed = 1;
nodes = (
(178,142,l),
(168,457,o),
(384,355,o),
(384,535,cs),
(384,621,o),
(308,688,o),
(212,688,cs),
(115,688,o),
(35,616,o),
(30,525,c),
(60,525,l),
(64,603,o),
(129,664,o),
(207,664,cs),
(289,664,o),
(354,605,o),
(354,530,cs),
(354,379,o),
(144,472,o),
(154,142,c)
);
},
{
closed = 1;
nodes = (
(177,-8,o),
(186,1,o),
(186,12,cs),
(186,23,o),
(177,32,o),
(166,32,cs),
(155,32,o),
(146,23,o),
(146,12,cs),
(146,1,o),
(155,-8,o),
(166,-8,cs)
);
}
);
width = 434;
},
{
layerId = m002;
shapes = (
{
closed = 1;
nodes = (
(256,172,l),
(248,422,o),
(464,333,o),
(464,538,c),
(464,642,o),
(376,718,o),
(263,718,cs),
(144,718,o),
(50,633,o),
(50,525,c),
(140,525,l),
(140,587,o),
(192,636,o),
(258,636,cs),
(324,636,o),
(376,591,o),
(376,533,c),
(376,398,o),
(148,440,o),
(178,172,c)
);
},
{
closed = 1;
nodes = (
(248,-8,o),
(272,16,o),
(272,47,cs),
(272,78,o),
(248,102,o),
(217,102,cs),
(186,102,o),
(162,78,o),
(162,47,cs),
(162,16,o),
(186,-8,o),
(217,-8,cs)
);
}
);
width = 534;
},
{
layerId = m003;
shapes = (
{
closed = 1;
nodes = (
(303,192,l),
(303,327,o),
(542,317,o),
(542,478,c),
(542,611,o),
(434,716,o),
(296,716,cs),
(153,716,o),
(40,614,o),
(40,485,c),
(206,485,l),
(206,527,o),
(243,560,o),
(291,560,cs),
(339,560,o),
(376,523,o),
(376,475,c),
(376,376,o),
(157,398,o),
(157,192,c)
);
},
{
closed = 1;
nodes = (
(278,-16,o),
(315,21,o),
(315,69,cs),
(315,117,o),
(278,154,o),
(230,154,cs),
(182,154,o),
(145,117,o),
(145,69,cs),
(145,21,o),
(182,-16,o),
(230,-16,cs)
);
}
);
width = 602;
}
);
metricLeft = "=period+10";
metricRight = "=period+30";
unicode = 63;
},
{
glyphname = asterisk;
kernLeft = asterisk;
kernRight = asterisk;
lastChange = "2025-05-17 17:46:22 +0000";
layers = (
{
layerId = m01;
shapes = (
{
closed = 1;
nodes = (
(170,430,l),
(166,552,l),
(269,487,l),
(281,508,l),
(174,565,l),
(281,622,l),
(269,643,l),
(166,579,l),
(170,700,l),
(146,700,l),
(150,579,l),
(47,643,l),
(35,622,l),
(143,565,l),
(35,508,l),
(47,487,l),
(150,551,l),
(146,430,l)
);
}
);
width = 316;
},
{
layerId = m002;
shapes = (
{
closed = 1;
nodes = (
(196,430,l),
(190,519,l),
(264,468,l),
(297,527,l),
(217,565,l),
(297,603,l),
(264,660,l),
(190,610,l),
(197,700,l),
(130,700,l),
(137,611,l),
(63,661,l),
(30,604,l),
(111,565,l),
(30,526,l),
(64,468,l),
(137,518,l),
(131,430,l)
);
}
);
width = 327;
},
{
layerId = m003;
shapes = (
{
closed = 1;
nodes = (
(216,430,l),
(207,488,l),
(254,452,l),
(307,543,l),
(252,565,l),
(307,587,l),
(254,678,l),
(208,641,l),
(216,700,l),
(111,700,l),
(120,642,l),
(73,678,l),
(20,587,l),
(76,565,l),
(20,543,l),
(73,452,l),
(119,489,l),
(111,430,l)
);
}
);
width = 327;
}
);
unicode = 42;
},
{
glyphname = numbersign;
kernLeft = numbersign;
kernRight = numbersign;
lastChange = "2025-05-15 12:52:43 +0000";
layers = (
{
layerId = m01;
shapes = (
{
closed = 1;
nodes = (
(393,0,l),
(629,720,l),
(606,720,l),
(370,0,l)
);
},
{
closed = 1;
nodes = (
(586,196,l),
(586,216,l),
(42,216,l),
(42,196,l)
);
},
{
closed = 1;
nodes = (
(93,0,l),
(329,720,l),
(306,720,l),
(70,0,l)
);
},
{
closed = 1;
nodes = (
(657,510,l),
(657,530,l),
(113,530,l),
(113,510,l)
);
}
);
width = 699;
},
{
layerId = m002;
shapes = (
{
closed = 1;
nodes = (
(423,0,l),
(659,720,l),
(576,720,l),
(340,0,l)
);
},
{
closed = 1;
nodes = (
(586,167,l),
(586,245,l),
(42,245,l),
(42,167,l)
);
},
{
closed = 1;
nodes = (
(123,0,l),
(359,720,l),
(276,720,l),
(40,0,l)
);
},
{
closed = 1;
nodes = (
(657,481,l),
(657,559,l),
(113,559,l),
(113,481,l)
);
}
);
width = 699;
},
{
layerId = m003;
shapes = (
{
closed = 1;
nodes = (
(433,0,l),
(669,720,l),
(536,720,l),
(300,0,l)
);
},
{
closed = 1;
nodes = (
(586,147,l),
(586,265,l),
(42,265,l),
(42,147,l)
);
},
{
closed = 1;
nodes = (
(153,0,l),
(389,720,l),
(256,720,l),
(20,0,l)
);
},
{
closed = 1;
nodes = (
(652,461,l),
(652,579,l),
(108,579,l),
(108,461,l)
);
}
);
width = 699;
}
);
unicode = 35;
},
{
glyphname = slash;
kernLeft = slash;
kernRight = slash;
lastChange = "2025-05-16 16:41:44 +0000";
layers = (
{
layerId = m01;
shapes = (
{
closed = 1;
nodes = (
(43,-90,l),
(308,720,l),
(285,720,l),
(20,-90,l)
);
}
);
width = 328;
},
{
layerId = m002;
shapes = (
{
closed = 1;
nodes = (
(103,-90,l),
(368,720,l),
(285,720,l),
(20,-90,l)
);
}
);
width = 388;
},
{
layerId = m003;
shapes = (
{
closed = 1;
nodes = (
(163,-90,l),
(428,720,l),
(285,720,l),
(20,-90,l)
);
}
);
width = 448;
}
);
unicode = 47;
},
{
glyphname = backslash;
kernLeft = backslash;
kernRight = backslash;
lastChange = "2025-05-15 12:53:40 +0000";
layers = (
{
layerId = m01;
shapes = (
{
closed = 1;
nodes = (
(287,-90,l),
(42,720,l),
(20,720,l),
(265,-90,l)
);
}
);
width = 307;
},
{
layerId = m002;
shapes = (
{
closed = 1;
nodes = (
(347,-90,l),
(102,720,l),
(20,720,l),
(265,-90,l)
);
}
);
width = 367;
},
{
layerId = m003;
shapes = (
{
closed = 1;
nodes = (
(407,-90,l),
(162,720,l),
(20,720,l),
(265,-90,l)
);
}
);
width = 427;
}
);
metricLeft = slash;
metricRight = slash;
unicode = 92;
},
{
glyphname = hyphen;
kernLeft = hyphen;
kernRight = hyphen;
lastChange = "2025-05-17 16:16:21 +0000";
layers = (
{
layerId = m01;
shapes = (
{
closed = 1;
nodes = (
(340,285,l),
(340,307,l),
(20,307,l),
(20,285,l)
);
}
);
width = 360;
},
{
layerId = m002;
shapes = (
{
closed = 1;
nodes = (
(360,256,l),
(360,336,l),
(40,336,l),
(40,256,l)
);
}
);
width = 400;
},
{
layerId = m003;
shapes = (
{
closed = 1;
nodes = (
(350,231,l),
(350,361,l),
(30,361,l),
(30,231,l)
);
}
);
width = 380;
}
);
metricLeft = period;
metricRight = period;
unicode = 45;
},
{
glyphname = endash;
kernLeft = hyphen;
kernRight = hyphen;
lastChange = "2025-04-03 10:35:33 +0000";
layers = (
{
layerId = m01;
shapes = (
{
closed = 1;
nodes = (
(540,296,l),
(540,316,l),
(70,316,l),
(70,296,l)
);
}
);
width = 610;
},
{
layerId = m002;
shapes = (
{
closed = 1;
nodes = (
(515,266,l),
(515,346,l),
(45,346,l),
(45,266,l)
);
}
);
width = 560;
},
{
layerId = m003;
shapes = (
{
closed = 1;
nodes = (
(515,241,l),
(515,371,l),
(45,371,l),
(45,241,l)
);
}
);
width = 560;
}
);
metricLeft = H;
metricRight = H;
unicode = 8211;
},
{
glyphname = emdash;
kernLeft = hyphen;
kernRight = hyphen;
lastChange = "2025-04-03 10:35:33 +0000";
layers = (
{
layerId = m01;
shapes = (
{
closed = 1;
nodes = (
(720,295,l),
(720,317,l),
(70,317,l),
(70,295,l)
);
}
);
width = 790;
},
{
layerId = m002;
shapes = (
{
closed = 1;
nodes = (
(695,266,l),
(695,346,l),
(45,346,l),
(45,266,l)
);
}
);
width = 740;
},
{
layerId = m003;
shapes = (
{
closed = 1;
nodes = (
(695,241,l),
(695,371,l),
(45,371,l),
(45,241,l)
);
}
);
width = 740;
}
);
metricLeft = H;
metricRight = H;
unicode = 8212;
},
{
glyphname = underscore;
kernLeft = underscore;
kernRight = underscore;
lastChange = "2025-04-03 10:35:33 +0000";
layers = (
{
layerId = m01;
shapes = (
{
closed = 1;
nodes = (
(510,-151,l),
(510,-129,l),
(70,-129,l),
(70,-151,l)
);
}
);
width = 580;
},
{
layerId = m002;
shapes = (
{
closed = 1;
nodes = (
(510,-180,l),
(510,-100,l),
(70,-100,l),
(70,-180,l)
);
}
);
width = 580;
},
{
layerId = m003;
shapes = (
{
closed = 1;
nodes = (
(510,-205,l),
(510,-75,l),
(70,-75,l),
(70,-205,l)
);
}
);
width = 580;
}
);
unicode = 95;
},
{
glyphname = parenleft;
kernLeft = parenleft;
kernRight = parenleft;
lastChange = "2025-04-03 10:35:33 +0000";
layers = (
{
layerId = m01;
shapes = (
{
closed = 1;
nodes = (
(330,-112,l),
(186,-112,o),
(73,69,o),
(73,300,cs),
(73,531,o),
(186,712,o),
(330,712,c),
(330,736,l),
(170,736,o),
(45,544,o),
(45,300,cs),
(45,56,o),
(170,-136,o),
(330,-136,c)
);
}
);
width = 420;
},
{
layerId = m002;
shapes = (
{
closed = 1;
nodes = (
(336,-54,l),
(203,-54,o),
(110,92,o),
(110,300,cs),
(110,508,o),
(203,654,o),
(336,654,c),
(336,736,l),
(150,736,o),
(20,557,o),
(20,300,cs),
(20,43,o),
(150,-136,o),
(336,-136,c)
);
}
);
width = 376;
},
{
layerId = m003;
shapes = (
{
closed = 1;
nodes = (
(364,20,l),
(259,20,o),
(176,143,o),
(176,300,cs),
(176,457,o),
(259,580,o),
(364,580,c),
(364,736,l),
(166,736,o),
(10,544,o),
(10,300,cs),
(10,56,o),
(166,-136,o),
(364,-136,c)
);
}
);
width = 384;
}
);
metricLeft = O;
metricRight = "=O*2";
unicode = 40;
},
{
glyphname = braceleft;
kernLeft = braceleft;
kernRight = braceleft;
lastChange = "2025-05-16 16:20:16 +0000";
layers = (
{
layerId = m01;
shapes = (
{
closed = 1;
nodes = (
(134,537,l),
(134,626,o),
(196,696,o),
(275,696,cs),
(360,696,l),
(360,720,l),
(282,720,l),
(277,720,l),
(181,720,o),
(106,639,o),
(106,537,c)
);
},
{
closed = 1;
nodes = (
(282,-108,l),
(360,-108,l),
(360,-84,l),
(275,-84,ls),
(196,-84,o),
(134,-14,o),
(134,75,c),
(106,75,l),
(106,-27,o),
(181,-108,o),
(277,-108,c)
);
},
{
closed = 1;
nodes = (
(134,75,l),
(134,183,l),
(106,183,l),
(106,75,l)
);
},
{
closed = 1;
nodes = (
(134,183,l),
(134,257,o),
(85,316,o),
(23,316,c),
(18,316,l),
(10,316,l),
(10,294,l),
(25,294,ls),
(70,294,o),
(106,245,o),
(106,183,c)
);
},
{
closed = 1;
nodes = (
(18,306,l),
(23,306,l),
(85,306,o),
(134,360,o),
(134,429,c),
(106,429,l),
(106,372,o),
(70,328,o),
(25,328,cs),
(10,328,l),
(10,306,l)
);
},
{
closed = 1;
nodes = (
(134,429,l),
(134,537,l),
(106,537,l),
(106,429,l)
);
}
);
width = 495;
},
{
layerId = m002;
shapes = (
{
closed = 1;
nodes = (
(194,537,l),
(194,594,o),
(230,638,o),
(275,638,cs),
(360,638,l),
(360,720,l),
(282,720,l),
(277,720,l),
(181,720,o),
(106,639,o),
(106,537,c)
);
},
{
closed = 1;
nodes = (
(282,-108,l),
(360,-108,l),
(360,-26,l),
(275,-26,ls),
(230,-26,o),
(194,18,o),
(194,75,c),
(106,75,l),
(106,-27,o),
(181,-108,o),
(277,-108,c)
);
},
{
closed = 1;
nodes = (
(194,75,l),
(194,183,l),
(106,183,l),
(106,75,l)
);
},
{
closed = 1;
nodes = (
(194,183,l),
(194,263,o),
(119,326,o),
(23,326,c),
(18,326,l),
(10,326,l),
(10,264,l),
(25,264,ls),
(70,264,o),
(106,228,o),
(106,183,c)
);
},
{
closed = 1;
nodes = (
(18,286,l),
(23,286,l),
(119,286,o),
(194,349,o),
(194,429,c),
(106,429,l),
(106,384,o),
(70,348,o),
(25,348,cs),
(10,348,l),
(10,286,l)
);
},
{
closed = 1;
nodes = (
(194,429,l),
(194,537,l),
(106,537,l),
(106,429,l)
);
}
);
width = 420;
},
{
layerId = m003;
shapes = (
{
closed = 1;
nodes = (
(232,507,l),
(232,539,o),
(257,564,o),
(289,564,cs),
(374,564,l),
(374,720,l),
(296,720,l),
(291,720,l),
(165,720,o),
(66,626,o),
(66,507,c)
);
},
{
closed = 1;
nodes = (
(296,-108,l),
(374,-108,l),
(374,48,l),
(289,48,ls),
(257,48,o),
(232,73,o),
(232,105,c),
(66,105,l),
(66,-14,o),
(165,-108,o),
(291,-108,c)
);
},
{
closed = 1;
nodes = (
(232,105,l),
(232,183,l),
(66,183,l),
(66,105,l)
);
},
{
closed = 1;
nodes = (
(232,183,l),
(232,280,o),
(140,356,o),
(23,356,c),
(18,356,l),
(10,356,l),
(10,234,l),
(25,234,ls),
(48,234,o),
(66,212,o),
(66,183,c)
);
},
{
closed = 1;
nodes = (
(18,256,l),
(23,256,l),
(140,256,o),
(232,332,o),
(232,429,c),
(66,429,l),
(66,400,o),
(48,378,o),
(25,378,cs),
(10,378,l),
(10,256,l)
);
},
{
closed = 1;
nodes = (
(232,429,l),
(232,507,l),
(66,507,l),
(66,429,l)
);
}
);
width = 404;
}
);
metricLeft = A;
metricRight = "=O*3";
unicode = 123;
},
{
glyphname = bracketleft;
kernLeft = bracketleft;
kernRight = bracketleft;
lastChange = "2025-05-16 16:17:33 +0000";
layers = (
{
layerId = m01;
shapes = (
{
closed = 1;
nodes = (
(98,-150,l),
(98,720,l),
(70,720,l),
(70,-150,l)
);
},
{
closed = 1;
nodes = (
(308,-150,l),
(308,-126,l),
(86,-126,l),
(86,-150,l)
);
},
{
closed = 1;
nodes = (
(308,696,l),
(308,720,l),
(86,720,l),
(86,696,l)
);
}
);
width = 398;
},
{
layerId = m002;
shapes = (
{
closed = 1;
nodes = (
(127,-150,l),
(127,720,l),
(45,720,l),
(45,-150,l)
);
},
{
closed = 1;
nodes = (
(350,-150,l),
(350,-72,l),
(88,-72,l),
(88,-150,l)
);
},
{
closed = 1;
nodes = (
(350,642,l),
(350,720,l),
(88,720,l),
(88,642,l)
);
}
);
width = 390;
},
{
layerId = m003;
shapes = (
{
closed = 1;
nodes = (
(209,-150,l),
(209,720,l),
(45,720,l),
(45,-150,l)
);
},
{
closed = 1;
nodes = (
(391,-150,l),
(391,6,l),
(129,6,l),
(129,-150,l)
);
},
{
closed = 1;
nodes = (
(391,564,l),
(391,720,l),
(129,720,l),
(129,564,l)
);
}
);
width = 411;
}
);
metricLeft = H;
metricRight = parenleft;
unicode = 91;
},
{
glyphname = guilsinglleft;
kernLeft = guillemotleft;
kernRight = guillemotleft;
lastChange = "2025-05-16 16:46:07 +0000";
layers = (
{
layerId = m01;
shapes = (
{
closed = 1;
nodes = (
(286,188,l),
(53,307,l),
(286,426,l),
(286,449,l),
(30,318,l),
(30,296,l),
(286,165,l)
);
}
);
width = 316;
},
{
layerId = m002;
shapes = (
{
closed = 1;
nodes = (
(316,226,l),
(141,307,l),
(316,388,l),
(316,493,l),
(60,355,l),
(60,259,l),
(316,121,l)
);
}
);
width = 376;
},
{
layerId = m003;
shapes = (
{
closed = 1;
nodes = (
(316,266,l),
(221,307,l),
(316,348,l),
(316,493,l),
(60,355,l),
(60,259,l),
(316,121,l)
);
}
);
width = 376;
}
);
unicode = 8249;
},
{
glyphname = quotesingle;
kernLeft = quotesingle;
kernRight = quotesingle;
lastChange = "2025-05-17 17:38:35 +0000";
layers = (
{
layerId = m01;
shapes = (
{
closed = 1;
nodes = (
(45,496,l),
(50,700,l),
(20,700,l),
(25,496,l)
);
}
);
width = 70;
},
{
layerId = m002;
shapes = (
{
closed = 1;
nodes = (
(118,496,l),
(134,700,l),
(40,700,l),
(56,496,l)
);
}
);
width = 174;
},
{
layerId = m003;
shapes = (
{
closed = 1;
nodes = (
(168,496,l),
(184,700,l),
(30,700,l),
(46,496,l)
);
}
);
width = 214;
}
);
metricLeft = period;
metricRight = period;
unicode = 39;
},
{
glyphname = florin;
kernLeft = florin;
kernRight = florin;
lastChange = "2025-05-21 11:53:24 +0000";
layers = (
{
layerId = m01;
shapes = (
{
closed = 1;
nodes = (
(309,-24,l),
(309,553,l),
(221,553,l),
(221,-24,l)
);
},
{
closed = 1;
nodes = (
(133,-207,l),
(138,-207,l),
(228,-207,o),
(309,-126,o),
(309,-24,c),
(221,-24,l),
(221,-81,o),
(181,-125,o),
(140,-125,cs),
(55,-125,l),
(55,-207,l)
);
},
{
closed = 1;
nodes = (
(417,402,l),
(417,480,l),
(146,480,l),
(146,402,l)
);
},
{
closed = 1;
nodes = (
(309,553,l),
(309,610,o),
(349,654,o),
(390,654,cs),
(475,654,l),
(475,736,l),
(397,736,l),
(392,736,l),
(302,736,o),
(221,655,o),
(221,553,c)
);
}
);
width = 530;
},
{
layerId = m002;
shapes = (
{
closed = 1;
nodes = (
(294,-24,l),
(294,553,l),
(206,553,l),
(206,-24,l)
);
},
{
closed = 1;
nodes = (
(118,-207,l),
(123,-207,l),
(213,-207,o),
(294,-126,o),
(294,-24,c),
(206,-24,l),
(206,-81,o),
(166,-125,o),
(125,-125,cs),
(40,-125,l),
(40,-207,l)
);
},
{
closed = 1;
nodes = (
(402,402,l),
(402,480,l),
(131,480,l),
(131,402,l)
);
},
{
closed = 1;
nodes = (
(294,553,l),
(294,610,o),
(334,654,o),
(375,654,cs),
(460,654,l),
(460,736,l),
(382,736,l),
(377,736,l),
(287,736,o),
(206,655,o),
(206,553,c)
);
}
);
width = 500;
},
{
layerId = m003;
shapes = (
{
closed = 1;
nodes = (
(294,-24,l),
(294,553,l),
(206,553,l),
(206,-24,l)
);
},
{
closed = 1;
nodes = (
(118,-207,l),
(123,-207,l),
(213,-207,o),
(294,-126,o),
(294,-24,c),
(206,-24,l),
(206,-81,o),
(166,-125,o),
(125,-125,cs),
(40,-125,l),
(40,-207,l)
);
},
{
closed = 1;
nodes = (
(402,402,l),
(402,480,l),
(131,480,l),
(131,402,l)
);
},
{
closed = 1;
nodes = (
(294,553,l),
(294,610,o),
(334,654,o),
(375,654,cs),
(460,654,l),
(460,736,l),
(382,736,l),
(377,736,l),
(287,736,o),
(206,655,o),
(206,553,c)
);
}
);
width = 500;
}
);
metricLeft = f;
metricRight = "=|f";
unicode = 402;
},
{
glyphname = at;
kernLeft = at;
kernRight = at;
lastChange = "2025-05-16 17:21:09 +0000";
layers = (
{
guides = (
{
pos = (469,112);
}
);
layerId = m01;
shapes = (
{
closed = 1;
nodes = (
(495,-86,l),
(246,-86,o),
(86,102,o),
(132,341,cs),
(170,539,o),
(370,695,o),
(587,695,cs),
(808,695,o),
(958,531,o),
(927,322,cs),
(910,216,o),
(838,133,o),
(764,133,cs),
(718,133,o),
(687,187,o),
(693,256,c),
(724,480,l),
(703,480,l),
(672,256,ls),
(661,175,o),
(702,112,o),
(765,112,cs),
(857,112,o),
(939,213,o),
(952,341,cs),
(975,551,o),
(810,716,o),
(577,716,cs),
(349,716,o),
(142,543,o),
(106,322,cs),
(65,81,o),
(236,-108,o),
(495,-108,c)
);
},
{
closed = 1;
nodes = (
(582,112,o),
(679,196,o),
(694,304,cs),
(708,412,o),
(634,496,o),
(527,496,cs),
(419,496,o),
(323,412,o),
(309,304,cs),
(294,196,o),
(366,112,o),
(473,112,cs)
);
},
{
closed = 1;
nodes = (
(376,131,o),
(314,207,o),
(327,304,cs),
(340,401,o),
(427,478,o),
(524,478,cs),
(623,478,o),
(690,401,o),
(677,304,cs),
(664,207,o),
(572,131,o),
(469,131,cs)
);
}
);
width = 1054;
},
{
guides = (
{
pos = (420,112);
}
);
layerId = m002;
shapes = (
{
closed = 1;
nodes = (
(446,-33,l),
(222,-33,o),
(94,122,o),
(136,341,cs),
(170,517,o),
(337,641,o),
(538,641,cs),
(732,641,o),
(850,509,o),
(822,322,cs),
(809,241,o),
(765,183,o),
(715,183,cs),
(670,183,o),
(640,213,o),
(644,256,c),
(675,480,l),
(604,480,l),
(573,256,ls),
(562,172,o),
(625,112,o),
(716,112,cs),
(813,112,o),
(889,207,o),
(903,341,cs),
(927,561,o),
(771,716,o),
(528,716,cs),
(290,716,o),
(95,553,o),
(57,322,cs),
(14,70,o),
(176,-108,o),
(446,-108,c)
);
},
{
closed = 1;
nodes = (
(533,112,o),
(625,192,o),
(641,304,cs),
(656,416,o),
(587,496,o),
(474,496,cs),
(362,496,o),
(271,416,o),
(256,304,cs),
(240,192,o),
(308,112,o),
(420,112,cs)
);
},
{
closed = 1;
nodes = (
(363,181,o),
(319,232,o),
(329,304,cs),
(339,377,o),
(398,428,o),
(471,428,cs),
(544,428,o),
(589,377,o),
(579,304,cs),
(569,232,o),
(510,181,o),
(436,181,cs)
);
}
);
width = 955;
},
{
guides = (
{
pos = (449,112);
}
);
layerId = m003;
shapes = (
{
closed = 1;
nodes = (
(475,17,l),
(282,17,o),
(159,164,o),
(195,351,cs),
(221,485,o),
(385,591,o),
(567,591,cs),
(731,591,o),
(843,473,o),
(821,322,cs),
(812,267,o),
(778,223,o),
(744,223,cs),
(708,223,o),
(684,261,o),
(690,309,c),
(714,480,l),
(593,480,l),
(567,292,ls),
(553,191,o),
(631,112,o),
(745,112,cs),
(853,112,o),
(949,213,o),
(962,341,cs),
(985,551,o),
(807,716,o),
(557,716,cs),
(312,716,o),
(92,543,o),
(56,322,cs),
(15,81,o),
(199,-108,o),
(475,-108,c)
);
},
{
closed = 1;
nodes = (
(558,112,o),
(655,196,o),
(670,304,cs),
(684,412,o),
(610,496,o),
(503,496,cs),
(395,496,o),
(299,412,o),
(285,304,cs),
(270,196,o),
(342,112,o),
(449,112,cs)
);
},
{
closed = 1;
nodes = (
(427,231,o),
(402,263,o),
(408,304,cs),
(414,345,o),
(455,378,o),
(500,378,cs),
(539,378,o),
(564,345,o),
(558,304,cs),
(552,263,o),
(511,231,o),
(465,231,cs)
);
}
);
width = 1014;
}
);
metricLeft = "=o*2";
metricRight = "=o*2";
unicode = 64;
},
{
glyphname = ampersand;
kernLeft = ampersand;
kernRight = ampersand;
lastChange = "2025-05-17 17:35:59 +0000";
layers = (
{
layerId = m01;
shapes = (
{
closed = 1;
nodes = (
(386,-16,o),
(486,77,o),
(486,196,cs),
(486,409,l),
(569,409,l),
(569,433,l),
(486,433,l),
(486,520,l),
(460,520,l),
(460,433,l),
(291,433,l),
(120,676,l),
(470,676,l),
(470,700,l),
(90,700,l),
(90,676,l),
(263,433,l),
(134,426,o),
(35,330,o),
(35,209,cs),
(35,83,o),
(134,-16,o),
(259,-16,cs)
);
},
{
closed = 1;
nodes = (
(150,6,o),
(63,95,o),
(63,208,cs),
(63,321,o),
(158,409,o),
(279,409,cs),
(460,409,l),
(460,196,ls),
(460,90,o),
(372,6,o),
(261,6,cs)
);
}
);
width = 619;
},
{
layerId = m002;
shapes = (
{
closed = 1;
nodes = (
(429,-16,o),
(549,89,o),
(549,211,cs),
(549,380,l),
(600,380,l),
(600,462,l),
(549,462,l),
(549,520,l),
(459,520,l),
(459,462,l),
(344,462,l),
(228,618,l),
(501,618,l),
(501,700,l),
(121,700,l),
(121,618,l),
(244,459,l),
(128,441,o),
(35,340,o),
(35,224,cs),
(35,95,o),
(153,-16,o),
(290,-16,cs)
);
},
{
closed = 1;
nodes = (
(202,66,o),
(125,139,o),
(125,223,cs),
(125,307,o),
(198,380,o),
(282,380,cs),
(459,380,l),
(459,211,ls),
(459,133,o),
(382,66,o),
(292,66,cs)
);
}
);
width = 650;
},
{
layerId = m003;
shapes = (
{
closed = 1;
nodes = (
(427,-16,o),
(539,94,o),
(539,233,cs),
(539,340,l),
(595,340,l),
(595,482,l),
(539,482,l),
(539,520,l),
(409,520,l),
(409,482,l),
(357,482,l),
(273,570,l),
(501,570,l),
(501,700,l),
(116,700,l),
(116,570,l),
(208,473,l),
(107,444,o),
(35,349,o),
(35,234,cs),
(35,94,o),
(145,-16,o),
(285,-16,cs)
);
},
{
closed = 1;
nodes = (
(219,126,o),
(165,173,o),
(165,233,cs),
(165,293,o),
(214,340,o),
(277,340,cs),
(409,340,l),
(409,233,ls),
(409,173,o),
(355,126,o),
(287,126,cs)
);
}
);
width = 645;
}
);
unicode = 38;
},
{
glyphname = paragraph;
kernLeft = paragraph;
kernRight = paragraph;
lastChange = "2025-05-21 11:53:24 +0000";
layers = (
{
layerId = m01;
shapes = (
{
closed = 1;
nodes = (
(425,249,l),
(425,700,l),
(271,700,l),
(144,701,o),
(45,602,o),
(45,475,cs),
(45,348,o),
(144,249,o),
(271,249,cs)
);
},
{
closed = 1;
nodes = (
(467,-80,l),
(467,700,l),
(379,700,l),
(379,-80,l)
);
},
{
closed = 1;
nodes = (
(597,-80,l),
(597,700,l),
(509,700,l),
(509,-80,l)
);
}
);
width = 667;
},
{
layerId = m002;
shapes = (
{
closed = 1;
nodes = (
(400,249,l),
(400,700,l),
(246,700,l),
(119,701,o),
(20,602,o),
(20,475,cs),
(20,348,o),
(119,249,o),
(246,249,cs)
);
},
{
closed = 1;
nodes = (
(442,-80,l),
(442,700,l),
(354,700,l),
(354,-80,l)
);
},
{
closed = 1;
nodes = (
(572,-80,l),
(572,700,l),
(484,700,l),
(484,-80,l)
);
}
);
width = 617;
},
{
layerId = m003;
shapes = (
{
closed = 1;
nodes = (
(390,249,l),
(390,700,l),
(236,700,l),
(109,701,o),
(10,602,o),
(10,475,cs),
(10,348,o),
(109,249,o),
(236,249,cs)
);
},
{
closed = 1;
nodes = (
(432,-80,l),
(432,700,l),
(344,700,l),
(344,-80,l)
);
},
{
closed = 1;
nodes = (
(562,-80,l),
(562,700,l),
(474,700,l),
(474,-80,l)
);
}
);
width = 607;
}
);
metricLeft = "=|P";
metricRight = H;
unicode = 182;
},
{
glyphname = section;
kernLeft = section;
kernRight = section;
lastChange = "2025-05-21 11:53:24 +0000";
layers = (
{
layerId = m01;
shapes = (
{
closed = 1;
nodes = (
(288,-16,o),
(357,45,o),
(357,143,cs),
(357,192,o),
(336,224,o),
(310,246,c),
(340,274,o),
(357,313,o),
(357,363,cs),
(357,475,o),
(249,500,o),
(216,509,cs),
(178,520,o),
(97,525,o),
(97,592,cs),
(97,639,o),
(148,659,o),
(187,659,cs),
(226,659,o),
(277,626,o),
(277,583,c),
(340,583,l),
(340,658,o),
(266,716,o),
(183,716,cs),
(104,716,o),
(34,664,o),
(34,583,cs),
(34,523,o),
(70,495,o),
(108,479,c),
(65,457,o),
(34,417,o),
(34,363,cs),
(34,261,o),
(137,251,o),
(181,238,cs),
(226,225,o),
(294,217,o),
(294,134,cs),
(294,78,o),
(242,41,o),
(187,41,cs),
(132,41,o),
(80,76,o),
(80,147,c),
(17,147,l),
(17,44,o),
(88,-16,o),
(191,-16,cs)
);
},
{
closed = 1;
nodes = (
(237,284,o),
(224,287,o),
(216,289,cs),
(178,300,o),
(97,305,o),
(97,372,cs),
(97,419,o),
(143,449,o),
(190,449,cs),
(266,449,o),
(294,395,o),
(294,354,cs),
(294,321,o),
(277,295,o),
(251,279,c)
);
}
);
width = 381;
},
{
layerId = m002;
shapes = (
{
closed = 1;
nodes = (
(288,-16,o),
(357,45,o),
(357,143,cs),
(357,192,o),
(336,224,o),
(310,246,c),
(340,274,o),
(357,313,o),
(357,363,cs),
(357,475,o),
(249,500,o),
(216,509,cs),
(178,520,o),
(97,525,o),
(97,592,cs),
(97,639,o),
(148,659,o),
(187,659,cs),
(226,659,o),
(277,626,o),
(277,583,c),
(340,583,l),
(340,658,o),
(266,716,o),
(183,716,cs),
(104,716,o),
(34,664,o),
(34,583,cs),
(34,523,o),
(70,495,o),
(108,479,c),
(65,457,o),
(34,417,o),
(34,363,cs),
(34,261,o),
(137,251,o),
(181,238,cs),
(226,225,o),
(294,217,o),
(294,134,cs),
(294,78,o),
(242,41,o),
(187,41,cs),
(132,41,o),
(80,76,o),
(80,147,c),
(17,147,l),
(17,44,o),
(88,-16,o),
(191,-16,cs)
);
},
{
closed = 1;
nodes = (
(237,284,o),
(224,287,o),
(216,289,cs),
(178,300,o),
(97,305,o),
(97,372,cs),
(97,419,o),
(143,449,o),
(190,449,cs),
(266,449,o),
(294,395,o),
(294,354,cs),
(294,321,o),
(277,295,o),
(251,279,c)
);
}
);
width = 381;
},
{
layerId = m003;
shapes = (
{
closed = 1;
nodes = (
(288,-16,o),
(357,45,o),
(357,143,cs),
(357,192,o),
(336,224,o),
(310,246,c),
(340,274,o),
(357,313,o),
(357,363,cs),
(357,475,o),
(249,500,o),
(216,509,cs),
(178,520,o),
(97,525,o),
(97,592,cs),
(97,639,o),
(148,659,o),
(187,659,cs),
(226,659,o),
(277,626,o),
(277,583,c),
(340,583,l),
(340,658,o),
(266,716,o),
(183,716,cs),
(104,716,o),
(34,664,o),
(34,583,cs),
(34,523,o),
(70,495,o),
(108,479,c),
(65,457,o),
(34,417,o),
(34,363,cs),
(34,261,o),
(137,251,o),
(181,238,cs),
(226,225,o),
(294,217,o),
(294,134,cs),
(294,78,o),
(242,41,o),
(187,41,cs),
(132,41,o),
(80,76,o),
(80,147,c),
(17,147,l),
(17,44,o),
(88,-16,o),
(191,-16,cs)
);
},
{
closed = 1;
nodes = (
(237,284,o),
(224,287,o),
(216,289,cs),
(178,300,o),
(97,305,o),
(97,372,cs),
(97,419,o),
(143,449,o),
(190,449,cs),
(266,449,o),
(294,395,o),
(294,354,cs),
(294,321,o),
(277,295,o),
(251,279,c)
);
}
);
width = 381;
}
);
unicode = 167;
},
{
glyphname = copyright;
kernLeft = copyright;
kernRight = copyright;
lastChange = "2025-04-03 17:44:48 +0000";
layers = (
{
layerId = m01;
shapes = (
{
closed = 1;
nodes = (
(555,-16,o),
(699,129,o),
(699,313,cs),
(699,497,o),
(555,642,o),
(371,642,cs),
(188,642,o),
(45,497,o),
(45,313,cs),
(45,129,o),
(188,-16,o),
(371,-16,cs)
);
},
{
closed = 1;
nodes = (
(198,1,o),
(62,138,o),
(62,313,cs),
(62,488,o),
(198,625,o),
(371,625,cs),
(545,625,o),
(682,488,o),
(682,313,cs),
(682,138,o),
(545,1,o),
(371,1,cs)
);
},
{
pos = (156,140);
ref = c;
scale = (0.72,0.72);
}
);
width = 744;
},
{
layerId = m002;
shapes = (
{
closed = 1;
nodes = (
(526,-16,o),
(674,135,o),
(674,313,cs),
(674,493,o),
(526,642,o),
(346,642,cs),
(168,642,o),
(20,493,o),
(20,313,cs),
(20,135,o),
(168,-16,o),
(346,-16,cs)
);
},
{
closed = 1;
nodes = (
(201,45,o),
(82,166,o),
(82,312,cs),
(82,457,o),
(201,579,o),
(346,579,cs),
(492,579,o),
(612,457,o),
(612,312,cs),
(612,166,o),
(492,45,o),
(346,45,cs)
);
},
{
pos = (149,139);
ref = c;
scale = (0.72,0.72);
}
);
width = 694;
},
{
layerId = m003;
shapes = (
{
closed = 1;
nodes = (
(538,-16,o),
(688,133,o),
(688,323,cs),
(688,513,o),
(538,662,o),
(348,662,cs),
(159,662,o),
(10,513,o),
(10,323,cs),
(10,133,o),
(159,-16,o),
(348,-16,cs)
);
},
{
closed = 1;
nodes = (
(216,86,o),
(112,190,o),
(112,323,cs),
(112,456,o),
(216,560,o),
(348,560,cs),
(481,560,o),
(586,456,o),
(586,323,cs),
(586,190,o),
(481,86,o),
(348,86,cs)
);
},
{
pos = (147,150);
ref = c;
scale = (0.72,0.72);
}
);
width = 698;
}
);
metricLeft = O;
metricRight = O;
unicode = 169;
},
{
glyphname = registered;
kernLeft = registered;
kernRight = registered;
lastChange = "2025-05-21 11:53:24 +0000";
layers = (
{
layerId = m01;
shapes = (
{
closed = 1;
nodes = (
(303,353,o),
(383,433,o),
(383,534,cs),
(383,636,o),
(303,716,o),
(201,716,cs),
(100,716,o),
(20,636,o),
(20,534,cs),
(20,433,o),
(100,353,o),
(201,353,cs)
);
},
{
closed = 1;
nodes = (
(105,362,o),
(29,438,o),
(29,534,cs),
(29,631,o),
(105,707,o),
(201,707,cs),
(298,707,o),
(374,631,o),
(374,534,cs),
(374,438,o),
(298,362,o),
(201,362,cs)
);
},
{
alignment = -1;
pos = (109,427);
ref = R;
scale = (0.3063,0.3063);
}
);
width = 403;
},
{
layerId = m002;
shapes = (
{
closed = 1;
nodes = (
(301,353,o),
(383,435,o),
(383,534,cs),
(383,634,o),
(301,716,o),
(201,716,cs),
(102,716,o),
(20,634,o),
(20,534,cs),
(20,435,o),
(102,353,o),
(201,353,cs)
);
},
{
closed = 1;
nodes = (
(116,380,o),
(47,449,o),
(47,534,cs),
(47,619,o),
(116,689,o),
(201,689,cs),
(286,689,o),
(356,619,o),
(356,534,cs),
(356,449,o),
(286,380,o),
(201,380,cs)
);
},
{
alignment = -1;
pos = (109,427);
ref = R;
scale = (0.3063,0.3063);
}
);
width = 403;
},
{
layerId = m003;
shapes = (
{
closed = 1;
nodes = (
(303,353,o),
(383,433,o),
(383,534,cs),
(383,636,o),
(303,716,o),
(201,716,cs),
(100,716,o),
(20,636,o),
(20,534,cs),
(20,433,o),
(100,353,o),
(201,353,cs)
);
},
{
closed = 1;
nodes = (
(126,400,o),
(67,459,o),
(67,534,cs),
(67,610,o),
(126,669,o),
(201,669,cs),
(277,669,o),
(336,610,o),
(336,534,cs),
(336,459,o),
(277,400,o),
(201,400,cs)
);
},
{
alignment = -1;
pos = (109,427);
ref = R;
scale = (0.3063,0.3063);
}
);
width = 403;
}
);
unicode = 174;
},
{
glyphname = degree;
kernLeft = degree;
kernRight = degree;
lastChange = "2025-05-17 23:55:38 +0000";
layers = (
{
layerId = m01;
shapes = (
{
closed = 1;
nodes = (
(270,409,o),
(336,477,o),
(336,563,cs),
(336,649,o),
(270,716,o),
(187,716,cs),
(104,716,o),
(38,649,o),
(38,563,cs),
(38,477,o),
(104,409,o),
(187,409,cs)
);
},
{
closed = 1;
nodes = (
(116,428,o),
(61,487,o),
(61,563,cs),
(61,638,o),
(116,697,o),
(187,697,cs),
(258,697,o),
(313,638,o),
(313,563,cs),
(313,487,o),
(258,428,o),
(187,428,cs)
);
}
);
width = 374;
},
{
layerId = m002;
shapes = (
{
closed = 1;
nodes = (
(270,409,o),
(336,477,o),
(336,563,cs),
(336,649,o),
(270,716,o),
(187,716,cs),
(104,716,o),
(38,649,o),
(38,563,cs),
(38,477,o),
(104,409,o),
(187,409,cs)
);
},
{
closed = 1;
nodes = (
(142,473,o),
(107,513,o),
(107,563,cs),
(107,613,o),
(142,653,o),
(187,653,cs),
(232,653,o),
(267,613,o),
(267,563,cs),
(267,513,o),
(232,473,o),
(187,473,cs)
);
}
);
width = 374;
},
{
layerId = m003;
shapes = (
{
closed = 1;
nodes = (
(270,409,o),
(336,477,o),
(336,563,cs),
(336,649,o),
(270,716,o),
(187,716,cs),
(104,716,o),
(38,649,o),
(38,563,cs),
(38,477,o),
(104,409,o),
(187,409,cs)
);
},
{
closed = 1;
nodes = (
(165,513,o),
(147,535,o),
(147,563,cs),
(147,591,o),
(165,613,o),
(187,613,cs),
(209,613,o),
(227,591,o),
(227,563,cs),
(227,535,o),
(209,513,o),
(187,513,cs)
);
}
);
width = 374;
}
);
unicode = 176;
},
{
glyphname = bar;
kernLeft = bar;
kernRight = bar;
lastChange = "2025-04-03 17:39:15 +0000";
layers = (
{
layerId = m01;
shapes = (
{
closed = 1;
nodes = (
(96,-150,l),
(96,720,l),
(70,720,l),
(70,-150,l)
);
}
);
width = 166;
},
{
layerId = m002;
shapes = (
{
closed = 1;
nodes = (
(127,-150,l),
(127,720,l),
(45,720,l),
(45,-150,l)
);
}
);
width = 172;
},
{
layerId = m003;
shapes = (
{
closed = 1;
nodes = (
(201,-150,l),
(201,720,l),
(45,720,l),
(45,-150,l)
);
}
);
width = 246;
}
);
metricLeft = H;
metricRight = H;
unicode = 124;
},
{
glyphname = brokenbar;
kernLeft = brokenbar;
kernRight = brokenbar;
lastChange = "2025-05-21 11:53:24 +0000";
layers = (
{
layerId = m01;
shapes = (
{
closed = 1;
nodes = (
(94,-150,l),
(94,275,l),
(70,275,l),
(70,-150,l)
);
},
{
closed = 1;
nodes = (
(94,375,l),
(94,720,l),
(70,720,l),
(70,375,l)
);
}
);
width = 164;
},
{
layerId = m002;
shapes = (
{
closed = 1;
nodes = (
(127,-150,l),
(127,275,l),
(45,275,l),
(45,-150,l)
);
},
{
closed = 1;
nodes = (
(127,375,l),
(127,720,l),
(45,720,l),
(45,375,l)
);
}
);
width = 172;
},
{
layerId = m003;
shapes = (
{
closed = 1;
nodes = (
(205,-150,l),
(205,275,l),
(45,275,l),
(45,-150,l)
);
},
{
closed = 1;
nodes = (
(205,375,l),
(205,720,l),
(45,720,l),
(45,375,l)
);
}
);
width = 250;
}
);
metricLeft = H;
metricRight = H;
unicode = 166;
},
{
glyphname = dagger;
kernLeft = dagger;
kernRight = dagger;
lastChange = "2025-05-21 11:53:24 +0000";
layers = (
{
layerId = m01;
shapes = (
{
closed = 1;
nodes = (
(212,304,l),
(212,720,l),
(188,720,l),
(188,304,l)
);
},
{
closed = 1;
nodes = (
(360,564,l),
(360,586,l),
(40,586,l),
(40,564,l)
);
}
);
width = 400;
},
{
layerId = m002;
shapes = (
{
closed = 1;
nodes = (
(241,304,l),
(241,720,l),
(159,720,l),
(159,304,l)
);
},
{
closed = 1;
nodes = (
(360,535,l),
(360,615,l),
(40,615,l),
(40,535,l)
);
}
);
width = 400;
},
{
layerId = m003;
shapes = (
{
closed = 1;
nodes = (
(282,304,l),
(282,720,l),
(118,720,l),
(118,304,l)
);
},
{
closed = 1;
nodes = (
(360,497,l),
(360,653,l),
(40,653,l),
(40,497,l)
);
}
);
width = 400;
}
);
unicode = 8224;
},
{
glyphname = daggerdbl;
kernLeft = daggerdbl;
kernRight = daggerdbl;
lastChange = "2025-05-21 11:53:24 +0000";
layers = (
{
layerId = m01;
shapes = (
{
closed = 1;
nodes = (
(241,304,l),
(241,691,l),
(159,691,l),
(159,304,l)
);
},
{
closed = 1;
nodes = (
(360,370,l),
(360,450,l),
(40,450,l),
(40,370,l)
);
},
{
closed = 1;
nodes = (
(360,535,l),
(360,615,l),
(40,615,l),
(40,535,l)
);
}
);
width = 400;
},
{
layerId = m002;
shapes = (
{
closed = 1;
nodes = (
(241,304,l),
(241,691,l),
(159,691,l),
(159,304,l)
);
},
{
closed = 1;
nodes = (
(360,370,l),
(360,450,l),
(40,450,l),
(40,370,l)
);
},
{
closed = 1;
nodes = (
(360,535,l),
(360,615,l),
(40,615,l),
(40,535,l)
);
}
);
width = 400;
},
{
layerId = m003;
shapes = (
{
closed = 1;
nodes = (
(241,304,l),
(241,691,l),
(159,691,l),
(159,304,l)
);
},
{
closed = 1;
nodes = (
(360,370,l),
(360,450,l),
(40,450,l),
(40,370,l)
);
},
{
closed = 1;
nodes = (
(360,535,l),
(360,615,l),
(40,615,l),
(40,535,l)
);
}
);
width = 400;
}
);
unicode = 8225;
},
{
glyphname = cent;
kernLeft = o;
kernRight = c;
lastChange = "2025-05-16 17:26:27 +0000";
layers = (
{
layerId = m01;
shapes = (
{
closed = 1;
nodes = (
(308,-68,l),
(308,546,l),
(284,546,l),
(284,-68,l)
);
},
{
pos = (-7,0);
ref = c;
}
);
width = 600;
},
{
layerId = m002;
shapes = (
{
closed = 1;
nodes = (
(307,-68,l),
(307,546,l),
(225,546,l),
(225,-68,l)
);
},
{
pos = (-7,0);
ref = c;
}
);
width = 600;
},
{
layerId = m003;
shapes = (
{
closed = 1;
nodes = (
(329,-68,l),
(329,546,l),
(233,546,l),
(233,-68,l)
);
},
{
pos = (-7,0);
ref = c;
}
);
width = 600;
}
);
unicode = 162;
},
{
glyphname = dollar;
kernLeft = dollar;
kernRight = dollar;
lastChange = "2025-05-17 17:22:32 +0000";
layers = (
{
layerId = m01;
shapes = (
{
closed = 1;
nodes = (
(247,-38,l),
(247,736,l),
(223,736,l),
(223,-38,l)
);
},
{
pos = (1,15);
ref = S;
scale = (0.9563,0.9563);
}
);
width = 480;
},
{
layerId = m002;
shapes = (
{
closed = 1;
nodes = (
(295,-38,l),
(295,736,l),
(213,736,l),
(213,-38,l)
);
},
{
pos = (0,15);
ref = S;
scale = (0.9563,0.9563);
}
);
width = 521;
},
{
layerId = m003;
shapes = (
{
closed = 1;
nodes = (
(343,-38,l),
(343,736,l),
(247,736,l),
(247,-38,l)
);
},
{
pos = (0,15);
ref = S;
scale = (0.9563,0.9563);
}
);
width = 594;
}
);
metricLeft = S;
metricRight = S;
unicode = 36;
},
{
glyphname = euro;
kernLeft = euro;
kernRight = euro;
lastChange = "2025-05-16 18:13:20 +0000";
layers = (
{
layerId = m01;
shapes = (
{
closed = 1;
nodes = (
(537,-16,o),
(592,-7,o),
(629,6,c),
(629,34,l),
(598,19,o),
(544,8,o),
(496,8,cs),
(316,8,o),
(190,149,o),
(190,350,cs),
(190,551,o),
(316,692,o),
(496,692,cs),
(546,692,o),
(600,682,o),
(629,667,c),
(629,694,l),
(592,707,o),
(537,716,o),
(496,716,cs),
(298,716,o),
(160,565,o),
(160,350,cs),
(160,135,o),
(298,-16,o),
(496,-16,cs)
);
},
{
closed = 1;
nodes = (
(508,290,l),
(508,312,l),
(45,312,l),
(45,290,l)
);
},
{
closed = 1;
nodes = (
(508,410,l),
(508,432,l),
(45,432,l),
(45,410,l)
);
}
);
width = 664;
},
{
layerId = m002;
shapes = (
{
closed = 1;
nodes = (
(519,-16,o),
(564,-8,o),
(604,6,c),
(604,96,l),
(565,77,o),
(520,66,o),
(471,66,cs),
(309,66,o),
(195,183,o),
(195,350,cs),
(195,517,o),
(309,634,o),
(471,634,cs),
(520,634,o),
(566,623,o),
(604,603,c),
(604,694,l),
(564,708,o),
(519,716,o),
(471,716,cs),
(256,716,o),
(105,565,o),
(105,350,cs),
(105,135,o),
(256,-16,o),
(471,-16,cs)
);
},
{
closed = 1;
nodes = (
(483,267,l),
(483,335,l),
(20,335,l),
(20,267,l)
);
},
{
closed = 1;
nodes = (
(483,387,l),
(483,455,l),
(20,455,l),
(20,387,l)
);
}
);
width = 627;
},
{
layerId = m003;
shapes = (
{
closed = 1;
nodes = (
(501,-16,o),
(556,-7,o),
(593,6,c),
(593,166,l),
(557,148,o),
(502,136,o),
(460,136,cs),
(320,136,o),
(222,224,o),
(222,350,cs),
(222,476,o),
(320,564,o),
(460,564,cs),
(504,564,o),
(558,551,o),
(593,533,c),
(593,694,l),
(556,707,o),
(501,716,o),
(460,716,cs),
(222,716,o),
(56,565,o),
(56,350,cs),
(56,135,o),
(222,-16,o),
(460,-16,cs)
);
},
{
closed = 1;
nodes = (
(473,217,l),
(473,325,l),
(10,325,l),
(10,217,l)
);
},
{
closed = 1;
nodes = (
(473,367,l),
(473,475,l),
(10,475,l),
(10,367,l)
);
}
);
width = 616;
}
);
metricLeft = O;
metricRight = C;
unicode = 8364;
},
{
glyphname = naira;
kernLeft = naira;
kernRight = naira;
lastChange = "2025-05-16 17:26:40 +0000";
layers = (
{
layerId = m01;
shapes = (
{
closed = 1;
nodes = (
(799,390,l),
(799,414,l),
(85,414,l),
(85,390,l)
);
},
{
closed = 1;
nodes = (
(799,270,l),
(799,294,l),
(85,294,l),
(85,270,l)
);
},
{
pos = (115,0);
ref = N;
}
);
width = 884;
},
{
layerId = m002;
shapes = (
{
closed = 1;
nodes = (
(774,369,l),
(774,447,l),
(60,447,l),
(60,369,l)
);
},
{
closed = 1;
nodes = (
(774,225,l),
(774,303,l),
(60,303,l),
(60,225,l)
);
},
{
pos = (63,0);
ref = N;
}
);
width = 834;
},
{
layerId = m003;
shapes = (
{
closed = 1;
nodes = (
(824,361,l),
(824,451,l),
(60,451,l),
(60,361,l)
);
},
{
closed = 1;
nodes = (
(824,247,l),
(824,337,l),
(60,337,l),
(60,247,l)
);
},
{
pos = (80,0);
ref = N;
}
);
width = 884;
}
);
metricLeft = "=N+20";
metricRight = "=N+20";
unicode = 8358;
},
{
glyphname = ruble;
kernLeft = ruble;
kernRight = ruble;
lastChange = "2025-05-21 11:53:24 +0000";
layers = (
{
layerId = m01;
shapes = (
{
closed = 1;
nodes = (
(416,304,ls),
(531,304,o),
(622,392,o),
(622,502,cs),
(622,613,o),
(531,701,o),
(416,700,c),
(182,700,l),
(182,618,l),
(416,618,ls),
(481,618,o),
(532,567,o),
(532,502,cs),
(532,437,o),
(481,386,o),
(416,386,cs),
(80,386,l),
(80,304,l)
);
},
{
closed = 1;
nodes = (
(456,174,l),
(456,256,l),
(80,256,l),
(80,174,l)
);
},
{
closed = 1;
nodes = (
(228,0,l),
(228,700,l),
(140,700,l),
(140,0,l)
);
}
);
width = 667;
},
{
layerId = m002;
shapes = (
{
closed = 1;
nodes = (
(391,304,ls),
(506,304,o),
(597,392,o),
(597,502,cs),
(597,613,o),
(506,701,o),
(391,700,c),
(157,700,l),
(157,618,l),
(391,618,ls),
(456,618,o),
(507,567,o),
(507,502,cs),
(507,437,o),
(456,386,o),
(391,386,cs),
(55,386,l),
(55,304,l)
);
},
{
closed = 1;
nodes = (
(431,174,l),
(431,256,l),
(55,256,l),
(55,174,l)
);
},
{
closed = 1;
nodes = (
(203,0,l),
(203,700,l),
(115,700,l),
(115,0,l)
);
}
);
width = 617;
},
{
layerId = m003;
shapes = (
{
closed = 1;
nodes = (
(391,304,ls),
(506,304,o),
(597,392,o),
(597,502,cs),
(597,613,o),
(506,701,o),
(391,700,c),
(157,700,l),
(157,618,l),
(391,618,ls),
(456,618,o),
(507,567,o),
(507,502,cs),
(507,437,o),
(456,386,o),
(391,386,cs),
(55,386,l),
(55,304,l)
);
},
{
closed = 1;
nodes = (
(431,174,l),
(431,256,l),
(55,256,l),
(55,174,l)
);
},
{
closed = 1;
nodes = (
(203,0,l),
(203,700,l),
(115,700,l),
(115,0,l)
);
}
);
width = 607;
}
);
metricLeft = "=P+10";
metricRight = P;
unicode = 8381;
},
{
glyphname = rupeeIndian;
kernLeft = rupeeIndian;
kernRight = rupeeIndian;
lastChange = "2025-05-21 11:53:24 +0000";
layers = (
{
layerId = m01;
shapes = (
{
closed = 1;
nodes = (
(315,304,ls),
(430,304,o),
(521,392,o),
(521,502,cs),
(521,613,o),
(430,701,o),
(315,700,c),
(70,700,l),
(70,618,l),
(315,618,ls),
(380,618,o),
(431,567,o),
(431,502,cs),
(431,437,o),
(380,386,o),
(315,386,cs),
(70,386,l),
(70,304,l)
);
},
{
closed = 1;
nodes = (
(432,0,l),
(179,304,l),
(70,304,l),
(323,0,l)
);
},
{
closed = 1;
nodes = (
(595,461,l),
(595,543,l),
(70,543,l),
(70,461,l)
);
},
{
closed = 1;
nodes = (
(595,618,l),
(595,700,l),
(290,700,l),
(290,618,l)
);
}
);
width = 615;
},
{
layerId = m002;
shapes = (
{
closed = 1;
nodes = (
(290,304,ls),
(405,304,o),
(496,392,o),
(496,502,cs),
(496,613,o),
(405,701,o),
(290,700,c),
(45,700,l),
(45,618,l),
(290,618,ls),
(355,618,o),
(406,567,o),
(406,502,cs),
(406,437,o),
(355,386,o),
(290,386,cs),
(45,386,l),
(45,304,l)
);
},
{
closed = 1;
nodes = (
(407,0,l),
(154,304,l),
(45,304,l),
(298,0,l)
);
},
{
closed = 1;
nodes = (
(570,461,l),
(570,543,l),
(45,543,l),
(45,461,l)
);
},
{
closed = 1;
nodes = (
(570,618,l),
(570,700,l),
(265,700,l),
(265,618,l)
);
}
);
width = 590;
},
{
layerId = m003;
shapes = (
{
closed = 1;
nodes = (
(290,304,ls),
(405,304,o),
(496,392,o),
(496,502,cs),
(496,613,o),
(405,701,o),
(290,700,c),
(45,700,l),
(45,618,l),
(290,618,ls),
(355,618,o),
(406,567,o),
(406,502,cs),
(406,437,o),
(355,386,o),
(290,386,cs),
(45,386,l),
(45,304,l)
);
},
{
closed = 1;
nodes = (
(407,0,l),
(154,304,l),
(45,304,l),
(298,0,l)
);
},
{
closed = 1;
nodes = (
(570,461,l),
(570,543,l),
(45,543,l),
(45,461,l)
);
},
{
closed = 1;
nodes = (
(570,618,l),
(570,700,l),
(265,700,l),
(265,618,l)
);
}
);
width = 590;
}
);
metricLeft = R;
metricRight = "=R+10";
unicode = 8377;
},
{
glyphname = sterling;
kernLeft = sterling;
kernRight = sterling;
lastChange = "2025-05-17 17:33:41 +0000";
layers = (
{
layerId = m01;
shapes = (
{
closed = 1;
nodes = (
(186,525,l),
(186,624,o),
(251,694,o),
(345,694,cs),
(436,694,o),
(506,628,o),
(515,533,c),
(543,533,l),
(535,642,o),
(455,718,o),
(350,718,cs),
(237,718,o),
(158,639,o),
(158,525,c)
);
},
{
closed = 1;
nodes = (
(128,8,o),
(186,124,o),
(186,290,c),
(158,290,l),
(158,136,o),
(112,28,o),
(45,28,c),
(45,8,l)
);
},
{
closed = 1;
nodes = (
(555,0,l),
(555,24,l),
(45,24,l),
(45,0,l)
);
},
{
closed = 1;
nodes = (
(357,335,l),
(357,359,l),
(85,359,l),
(85,335,l)
);
},
{
closed = 1;
nodes = (
(186,290,l),
(186,525,l),
(158,525,l),
(158,290,l)
);
}
);
width = 590;
},
{
layerId = m002;
shapes = (
{
closed = 1;
nodes = (
(191,525,l),
(191,587,o),
(243,636,o),
(310,636,cs),
(369,636,o),
(421,591,o),
(427,533,c),
(518,533,l),
(510,637,o),
(421,718,o),
(315,718,cs),
(196,718,o),
(103,633,o),
(103,525,c)
);
},
{
closed = 1;
nodes = (
(209,37,o),
(191,207,o),
(191,320,c),
(103,320,l),
(103,235,o),
(114,84,o),
(20,84,c),
(20,37,l)
);
},
{
closed = 1;
nodes = (
(530,0,l),
(530,80,l),
(20,80,l),
(20,0,l)
);
},
{
closed = 1;
nodes = (
(332,308,l),
(332,386,l),
(60,386,l),
(60,308,l)
);
},
{
closed = 1;
nodes = (
(191,320,l),
(191,525,l),
(103,525,l),
(103,320,l)
);
}
);
width = 553;
},
{
layerId = m003;
shapes = (
{
closed = 1;
nodes = (
(226,485,l),
(226,528,o),
(259,562,o),
(300,562,cs),
(337,562,o),
(370,532,o),
(374,493,c),
(540,493,l),
(530,619,o),
(427,718,o),
(305,718,cs),
(168,718,o),
(60,615,o),
(60,485,c)
);
},
{
closed = 1;
nodes = (
(131,43,o),
(226,174,o),
(226,340,c),
(60,340,l),
(60,239,o),
(38,160,o),
(10,160,c),
(10,43,l)
);
},
{
closed = 1;
nodes = (
(520,0,l),
(520,156,l),
(10,156,l),
(10,0,l)
);
},
{
closed = 1;
nodes = (
(322,289,l),
(322,405,l),
(17,405,l),
(17,289,l)
);
},
{
closed = 1;
nodes = (
(226,340,l),
(226,485,l),
(60,485,l),
(60,340,l)
);
}
);
width = 563;
}
);
metricLeft = O;
metricRight = E;
unicode = 163;
},
{
glyphname = won;
kernLeft = won;
kernRight = won;
lastChange = "2025-05-21 11:53:24 +0000";
layers = (
{
layerId = m01;
shapes = (
{
closed = 1;
nodes = (
(980,446,l),
(980,468,l),
(25,468,l),
(25,446,l)
);
},
{
closed = 1;
nodes = (
(980,256,l),
(980,278,l),
(25,278,l),
(25,256,l)
);
},
{
pos = (53,0);
ref = W;
}
);
width = 1005;
},
{
layerId = m002;
shapes = (
{
closed = 1;
nodes = (
(995,426,l),
(995,508,l),
(40,508,l),
(40,426,l)
);
},
{
closed = 1;
nodes = (
(995,236,l),
(995,318,l),
(40,318,l),
(40,236,l)
);
},
{
pos = (15,0);
ref = W;
}
);
width = 1036;
},
{
layerId = m003;
shapes = (
{
closed = 1;
nodes = (
(1077,413,l),
(1077,521,l),
(27,521,l),
(27,413,l)
);
},
{
closed = 1;
nodes = (
(1077,253,l),
(1077,361,l),
(27,361,l),
(27,253,l)
);
},
{
pos = (15,0);
ref = W;
}
);
width = 1103;
}
);
metricLeft = "=W+15";
metricRight = "=W+15";
unicode = 8361;
},
{
glyphname = yen;
kernLeft = yen;
kernRight = yen;
lastChange = "2025-05-21 11:53:24 +0000";
layers = (
{
layerId = m01;
shapes = (
{
closed = 1;
nodes = (
(481,286,l),
(481,308,l),
(116,308,l),
(116,286,l)
);
},
{
closed = 1;
nodes = (
(481,126,l),
(481,148,l),
(116,148,l),
(116,126,l)
);
},
{
ref = Y;
}
);
width = 596;
},
{
layerId = m002;
shapes = (
{
closed = 1;
nodes = (
(511,246,l),
(511,328,l),
(146,328,l),
(146,246,l)
);
},
{
closed = 1;
nodes = (
(511,96,l),
(511,178,l),
(146,178,l),
(146,96,l)
);
},
{
ref = Y;
}
);
width = 656;
},
{
layerId = m003;
shapes = (
{
closed = 1;
nodes = (
(541,243,l),
(541,351,l),
(176,351,l),
(176,243,l)
);
},
{
closed = 1;
nodes = (
(541,83,l),
(541,191,l),
(176,191,l),
(176,83,l)
);
},
{
ref = Y;
}
);
width = 716;
}
);
unicode = 165;
},
{
glyphname = multiply;
kernLeft = multiply;
kernRight = multiply;
lastChange = "2025-05-16 18:06:36 +0000";
layers = (
{
layerId = m01;
shapes = (
{
closed = 1;
nodes = (
(346,131,l),
(49,480,l),
(21,480,l),
(318,131,l)
);
},
{
closed = 1;
nodes = (
(30,131,l),
(176,304,l),
(165,325,l),
(5,131,l)
);
},
{
closed = 1;
nodes = (
(329,480,l),
(304,480,l),
(172,324,l),
(183,303,l)
);
}
);
width = 351;
},
{
layerId = m002;
shapes = (
{
closed = 1;
nodes = (
(415,131,l),
(118,480,l),
(30,480,l),
(327,131,l)
);
},
{
closed = 1;
nodes = (
(92,131,l),
(223,279,l),
(174,329,l),
(5,131,l)
);
},
{
closed = 1;
nodes = (
(409,480,l),
(322,480,l),
(196,329,l),
(245,279,l)
);
}
);
width = 420;
},
{
layerId = m003;
shapes = (
{
closed = 1;
nodes = (
(492,131,l),
(185,480,l),
(31,480,l),
(338,131,l)
);
},
{
closed = 1;
nodes = (
(158,131,l),
(262,247,l),
(175,329,l),
(5,131,l)
);
},
{
closed = 1;
nodes = (
(476,480,l),
(325,480,l),
(226,361,l),
(312,279,l)
);
}
);
width = 497;
}
);
metricLeft = x;
metricRight = x;
unicode = 215;
},
{
glyphname = divide;
kernLeft = divide;
kernRight = divide;
lastChange = "2025-05-17 16:16:21 +0000";
layers = (
{
layerId = m01;
shapes = (
{
closed = 1;
nodes = (
(370,260,l),
(370,284,l),
(20,284,l),
(20,260,l)
);
},
{
closed = 1;
nodes = (
(207,82,o),
(216,91,o),
(216,103,cs),
(216,114,o),
(207,124,o),
(195,124,cs),
(183,124,o),
(174,114,o),
(174,103,cs),
(174,91,o),
(183,82,o),
(195,82,cs)
);
},
{
closed = 1;
nodes = (
(207,420,o),
(216,429,o),
(216,441,cs),
(216,452,o),
(207,462,o),
(195,462,cs),
(183,462,o),
(174,452,o),
(174,441,cs),
(174,429,o),
(183,420,o),
(195,420,cs)
);
}
);
width = 390;
},
{
layerId = m002;
shapes = (
{
closed = 1;
nodes = (
(390,232,l),
(390,312,l),
(40,312,l),
(40,232,l)
);
},
{
closed = 1;
nodes = (
(246,48,o),
(270,72,o),
(270,103,cs),
(270,133,o),
(246,158,o),
(215,158,cs),
(184,158,o),
(160,133,o),
(160,103,cs),
(160,72,o),
(184,48,o),
(215,48,cs)
);
},
{
closed = 1;
nodes = (
(246,386,o),
(270,410,o),
(270,441,cs),
(270,471,o),
(246,496,o),
(215,496,cs),
(184,496,o),
(160,471,o),
(160,441,cs),
(160,410,o),
(184,386,o),
(215,386,cs)
);
}
);
width = 430;
},
{
layerId = m003;
shapes = (
{
closed = 1;
nodes = (
(450,214,l),
(450,330,l),
(30,330,l),
(30,214,l)
);
},
{
closed = 1;
nodes = (
(279,34,o),
(309,64,o),
(309,103,cs),
(309,141,o),
(279,172,o),
(240,172,cs),
(201,172,o),
(171,141,o),
(171,103,cs),
(171,64,o),
(201,34,o),
(240,34,cs)
);
},
{
closed = 1;
nodes = (
(279,372,o),
(309,402,o),
(309,441,cs),
(309,479,o),
(279,510,o),
(240,510,cs),
(201,510,o),
(171,479,o),
(171,441,cs),
(171,402,o),
(201,372,o),
(240,372,cs)
);
}
);
width = 480;
}
);
metricLeft = hyphen;
metricRight = hyphen;
unicode = 247;
},
{
glyphname = notequal;
kernLeft = notequal;
kernRight = notequal;
lastChange = "2025-05-17 16:16:21 +0000";
layers = (
{
layerId = m01;
shapes = (
{
closed = 1;
nodes = (
(100,53,l),
(290,480,l),
(268,480,l),
(78,53,l)
);
},
{
pos = (0,2);
ref = equal;
}
);
width = 360;
},
{
layerId = m002;
shapes = (
{
closed = 1;
nodes = (
(140,53,l),
(330,480,l),
(247,480,l),
(57,53,l)
);
},
{
pos = (0,2);
ref = equal;
}
);
width = 400;
},
{
layerId = m003;
shapes = (
{
closed = 1;
nodes = (
(227,53,l),
(417,480,l),
(274,480,l),
(84,53,l)
);
},
{
pos = (-8,2);
ref = equal;
scale = (1.25,1);
}
);
width = 459;
}
);
metricLeft = hyphen;
metricRight = hyphen;
unicode = 8800;
},
{
glyphname = less;
kernLeft = less;
kernRight = less;
lastChange = "2025-05-16 17:38:00 +0000";
layers = (
{
layerId = m01;
shapes = (
{
closed = 1;
nodes = (
(396,155,l),
(89,307,l),
(396,459,l),
(396,483,l),
(60,320,l),
(60,294,l),
(396,131,l)
);
}
);
width = 456;
},
{
layerId = m002;
shapes = (
{
closed = 1;
nodes = (
(396,206,l),
(141,307,l),
(396,408,l),
(396,493,l),
(60,360,l),
(60,254,l),
(396,121,l)
);
}
);
width = 456;
},
{
layerId = m003;
shapes = (
{
closed = 1;
nodes = (
(396,266,l),
(221,307,l),
(396,348,l),
(396,493,l),
(60,400,l),
(60,214,l),
(396,121,l)
);
}
);
width = 456;
}
);
unicode = 60;
},
{
glyphname = greaterequal;
kernLeft = greaterequal;
kernRight = greaterequal;
lastChange = "2025-05-16 17:36:52 +0000";
layers = (
{
layerId = m01;
shapes = (
{
closed = 1;
nodes = (
(396,294,l),
(396,320,l),
(60,433,l),
(60,409,l),
(369,307,l),
(60,205,l),
(60,181,l)
);
},
{
closed = 1;
nodes = (
(395,85,l),
(395,109,l),
(62,109,l),
(62,85,l)
);
}
);
width = 416;
},
{
layerId = m002;
shapes = (
{
closed = 1;
nodes = (
(366,241,l),
(366,347,l),
(50,440,l),
(50,365,l),
(305,294,l),
(50,223,l),
(50,148,l)
);
},
{
closed = 1;
nodes = (
(365,54,l),
(365,120,l),
(52,120,l),
(52,54,l)
);
}
);
width = 416;
},
{
layerId = m003;
shapes = (
{
closed = 1;
nodes = (
(366,251,l),
(366,397,l),
(50,490,l),
(50,365,l),
(205,324,l),
(50,283,l),
(50,158,l)
);
},
{
closed = 1;
nodes = (
(365,23,l),
(365,131,l),
(52,131,l),
(52,23,l)
);
}
);
width = 416;
}
);
unicode = 8805;
},
{
glyphname = plusminus;
kernLeft = plusminus;
kernRight = plusminus;
lastChange = "2025-05-16 17:04:35 +0000";
layers = (
{
layerId = m01;
shapes = (
{
closed = 1;
nodes = (
(218,164,l),
(218,520,l),
(194,520,l),
(194,164,l)
);
},
{
pos = (-10,-232);
ref = hyphen;
scale = (1.2,1);
},
{
pos = (-10,42);
ref = hyphen;
scale = (1.2,1);
}
);
width = 464;
},
{
layerId = m002;
shapes = (
{
closed = 1;
nodes = (
(274,164,l),
(274,520,l),
(186,520,l),
(186,164,l)
);
},
{
pos = (-10,-232);
ref = hyphen;
scale = (1.2,1);
},
{
pos = (-10,44);
ref = hyphen;
scale = (1.2,1);
}
);
width = 464;
},
{
layerId = m003;
shapes = (
{
closed = 1;
nodes = (
(308,164,l),
(308,520,l),
(152,520,l),
(152,164,l)
);
},
{
pos = (-10,-232);
ref = hyphen;
scale = (1.2,1);
},
{
pos = (-10,42);
ref = hyphen;
scale = (1.2,1);
}
);
width = 464;
}
);
unicode = 177;
},
{
glyphname = logicalnot;
kernLeft = logicalnot;
kernRight = logicalnot;
lastChange = "2025-05-21 11:53:24 +0000";
layers = (
{
layerId = m01;
shapes = (
{
closed = 1;
nodes = (
(424,228,l),
(424,308,l),
(40,308,l),
(40,228,l)
);
},
{
closed = 1;
nodes = (
(424,94,l),
(424,290,l),
(336,290,l),
(336,94,l)
);
}
);
width = 464;
},
{
layerId = m002;
shapes = (
{
closed = 1;
nodes = (
(424,228,l),
(424,308,l),
(40,308,l),
(40,228,l)
);
},
{
closed = 1;
nodes = (
(424,94,l),
(424,290,l),
(336,290,l),
(336,94,l)
);
}
);
width = 464;
},
{
layerId = m003;
shapes = (
{
closed = 1;
nodes = (
(424,228,l),
(424,308,l),
(40,308,l),
(40,228,l)
);
},
{
closed = 1;
nodes = (
(424,94,l),
(424,290,l),
(336,290,l),
(336,94,l)
);
}
);
width = 464;
}
);
unicode = 172;
},
{
glyphname = asciicircum;
kernLeft = asciicircum;
kernRight = asciicircum;
lastChange = "2025-05-17 16:16:21 +0000";
layers = (
{
layerId = m01;
shapes = (
{
closed = 1;
nodes = (
(47,464,l),
(156,690,l),
(266,464,l),
(293,464,l),
(169,720,l),
(143,720,l),
(20,464,l)
);
}
);
width = 313;
},
{
layerId = m002;
shapes = (
{
closed = 1;
nodes = (
(120,464,l),
(210,670,l),
(300,464,l),
(380,464,l),
(263,720,l),
(157,720,l),
(40,464,l)
);
}
);
width = 420;
},
{
layerId = m003;
shapes = (
{
closed = 1;
nodes = (
(180,464,l),
(246,630,l),
(312,464,l),
(462,464,l),
(349,720,l),
(143,720,l),
(30,464,l)
);
}
);
width = 492;
}
);
metricLeft = period;
metricRight = period;
unicode = 94;
},
{
glyphname = integral;
lastChange = "2025-05-20 09:59:45 +0000";
layers = (
{
layerId = m01;
shapes = (
{
closed = 1;
nodes = (
(250,-55,l),
(341,582,l),
(313,583,l),
(222,-54,l)
);
},
{
closed = 1;
nodes = (
(118,-207,l),
(94,-207,l),
(169,-207,o),
(237,-140,o),
(250,-55,c),
(222,-54,l),
(212,-127,o),
(157,-185,o),
(96,-185,cs),
(20,-185,l),
(20,-207,l)
);
},
{
closed = 1;
nodes = (
(341,582,l),
(351,656,o),
(402,714,o),
(457,714,cs),
(523,714,l),
(523,736,l),
(435,736,l),
(459,736,l),
(389,736,o),
(325,669,o),
(313,583,c)
);
}
);
width = 563;
},
{
layerId = m002;
shapes = (
{
closed = 1;
nodes = (
(280,-25,l),
(361,552,l),
(273,553,l),
(192,-24,l)
);
},
{
closed = 1;
nodes = (
(78,-207,l),
(84,-207,l),
(174,-207,o),
(265,-127,o),
(280,-25,c),
(192,-24,l),
(184,-81,o),
(137,-125,o),
(96,-125,cs),
(0,-125,l),
(0,-207,l)
);
},
{
closed = 1;
nodes = (
(361,552,l),
(369,609,o),
(416,654,o),
(457,654,cs),
(543,654,l),
(543,736,l),
(475,736,l),
(469,736,l),
(379,736,o),
(287,655,o),
(273,553,c)
);
}
);
width = 600;
},
{
layerId = m003;
shapes = (
{
closed = 1;
nodes = (
(329,15,l),
(390,512,l),
(225,513,l),
(164,16,l)
);
},
{
closed = 1;
nodes = (
(78,-207,l),
(123,-207,l),
(220,-207,o),
(311,-109,o),
(329,15,c),
(164,16,l),
(158,-24,o),
(120,-55,o),
(78,-55,cs),
(0,-55,l),
(0,-207,l)
);
},
{
closed = 1;
nodes = (
(390,512,l),
(396,552,o),
(434,584,o),
(476,584,cs),
(543,584,l),
(543,736,l),
(475,736,l),
(431,736,l),
(333,736,o),
(242,638,o),
(225,513,c)
);
}
);
width = 600;
}
);
unicode = 8747;
},
{
glyphname = upArrow;
lastChange = "2025-05-21 11:53:24 +0000";
layers = (
{
layerId = m01;
shapes = (
{
closed = 1;
nodes = (
(291,0,l),
(319,0,l),
(319,700,l),
(291,700,l)
);
},
{
closed = 1;
nodes = (
(-2,407,l),
(19,387,l),
(325,695,l),
(305,714,l)
);
},
{
closed = 1;
nodes = (
(286,694,l),
(593,387,l),
(612,407,l),
(305,714,l)
);
}
);
width = 600;
},
{
layerId = m002;
shapes = (
{
closed = 1;
nodes = (
(261,0,l),
(349,0,l),
(349,700,l),
(261,700,l)
);
},
{
closed = 1;
nodes = (
(-24,419,l),
(39,356,l),
(367,682,l),
(305,743,l)
);
},
{
closed = 1;
nodes = (
(249,673,l),
(572,356,l),
(633,418,l),
(312,736,l)
);
}
);
width = 600;
},
{
layerId = m003;
shapes = (
{
closed = 1;
nodes = (
(223,0,l),
(387,0,l),
(387,600,l),
(223,600,l)
);
},
{
closed = 1;
nodes = (
(-18,398,l),
(97,283,l),
(426,608,l),
(313,720,l)
);
},
{
closed = 1;
nodes = (
(200,606,l),
(525,291,l),
(636,403,l),
(313,720,l)
);
}
);
width = 600;
}
);
unicode = 8593;
},
{
glyphname = northEastArrow;
lastChange = "2025-05-21 11:53:24 +0000";
layers = (
{
layerId = m01;
shapes = (
{
closed = 1;
nodes = (
(557,590,l),
(538,609,l),
(43,114,l),
(62,95,l)
);
},
{
closed = 1;
nodes = (
(557,175,l),
(557,609,l),
(530,609,l),
(530,175,l)
);
},
{
closed = 1;
nodes = (
(556,609,l),
(123,613,l),
(123,584,l),
(556,582,l)
);
}
);
width = 600;
},
{
layerId = m002;
shapes = (
{
closed = 1;
nodes = (
(568,572,l),
(506,635,l),
(11,140,l),
(73,77,l)
);
},
{
closed = 1;
nodes = (
(570,172,l),
(570,624,l),
(478,624,l),
(478,171,l)
);
},
{
closed = 1;
nodes = (
(570,636,l),
(106,636,l),
(106,547,l),
(570,549,l)
);
}
);
width = 600;
},
{
layerId = m003;
shapes = (
{
closed = 1;
nodes = (
(534,475,l),
(418,591,l),
(-6,166,l),
(110,50,l)
);
},
{
closed = 1;
nodes = (
(567,159,l),
(567,612,l),
(406,611,l),
(413,158,l)
);
},
{
closed = 1;
nodes = (
(567,613,l),
(105,613,l),
(105,455,l),
(567,453,l)
);
}
);
width = 600;
}
);
unicode = 8599;
},
{
glyphname = gravecomb;
kernLeft = gravecomb;
kernRight = gravecomb;
lastChange = "2025-05-21 11:54:43 +0000";
layers = (
{
anchors = (
{
name = _top;
pos = (68,480);
},
{
name = top;
pos = (68,700);
}
);
layerId = m01;
shapes = (
{
closed = 1;
nodes = (
(53,700,l),
(20,700,l),
(95,542,l),
(116,542,l)
);
}
);
width = 136;
},
{
anchors = (
{
name = _top;
pos = (117,480);
},
{
name = top;
pos = (117,675);
}
);
layerId = m002;
shapes = (
{
closed = 1;
nodes = (
(193,517,l),
(134,675,l),
(40,675,l),
(131,517,l)
);
}
);
width = 233;
},
{
anchors = (
{
name = _top;
pos = (107,480);
},
{
name = top;
pos = (107,700);
}
);
layerId = m003;
shapes = (
{
closed = 1;
nodes = (
(183,542,l),
(124,700,l),
(30,700,l),
(121,542,l)
);
}
);
width = 213;
}
);
metricLeft = period;
metricRight = period;
unicode = 768;
},
{
glyphname = acutecomb;
kernLeft = acutecomb;
kernRight = acutecomb;
lastChange = "2025-05-21 11:54:43 +0000";
layers = (
{
anchors = (
{
name = _top;
pos = (68,480);
},
{
name = top;
pos = (68,700);
}
);
layerId = m01;
shapes = (
{
closed = 1;
nodes = (
(41,542,l),
(116,700,l),
(83,700,l),
(20,542,l)
);
}
);
width = 136;
},
{
anchors = (
{
name = _top;
pos = (117,480);
},
{
name = top;
pos = (117,700);
}
);
layerId = m002;
shapes = (
{
closed = 1;
nodes = (
(102,542,l),
(193,700,l),
(99,700,l),
(40,542,l)
);
}
);
width = 233;
},
{
anchors = (
{
name = _top;
pos = (107,480);
},
{
name = top;
pos = (107,700);
}
);
layerId = m003;
shapes = (
{
closed = 1;
nodes = (
(92,542,l),
(183,700,l),
(89,700,l),
(30,542,l)
);
}
);
width = 213;
}
);
metricLeft = period;
metricRight = period;
unicode = 769;
},
{
glyphname = hungarumlautcomb;
kernLeft = hungarumlautcomb;
kernRight = hungarumlautcomb;
lastChange = "2025-05-21 11:54:43 +0000";
layers = (
{
anchors = (
{
name = _top;
pos = (118,480);
},
{
name = top;
pos = (118,700);
}
);
layerId = m01;
shapes = (
{
closed = 1;
nodes = (
(141,542,l),
(216,700,l),
(183,700,l),
(120,542,l)
);
},
{
closed = 1;
nodes = (
(41,542,l),
(116,700,l),
(83,700,l),
(20,542,l)
);
}
);
width = 236;
},
{
anchors = (
{
name = _top;
pos = (172,480);
},
{
name = top;
pos = (172,700);
}
);
layerId = m002;
shapes = (
{
closed = 1;
nodes = (
(212,542,l),
(303,700,l),
(219,700,l),
(160,542,l)
);
},
{
closed = 1;
nodes = (
(92,542,l),
(183,700,l),
(99,700,l),
(40,542,l)
);
}
);
width = 343;
},
{
anchors = (
{
name = _top;
pos = (162,480);
},
{
name = top;
pos = (162,700);
}
);
layerId = m003;
shapes = (
{
closed = 1;
nodes = (
(202,542,l),
(293,700,l),
(209,700,l),
(150,542,l)
);
},
{
closed = 1;
nodes = (
(82,542,l),
(173,700,l),
(89,700,l),
(30,542,l)
);
}
);
width = 323;
}
);
metricLeft = period;
metricRight = period;
unicode = 779;
},
{
glyphname = caroncomb.alt;
kernLeft = caroncomb.alt;
kernRight = caroncomb.alt;
lastChange = "2025-05-21 11:54:43 +0000";
layers = (
{
anchors = (
{
name = _topright;
pos = (0,720);
}
);
layerId = m01;
shapes = (
{
closed = 1;
nodes = (
(37,542,l),
(63,700,l),
(29,700,l),
(20,542,l)
);
}
);
width = 83;
},
{
anchors = (
{
name = _topright;
pos = (20,720);
}
);
layerId = m002;
shapes = (
{
closed = 1;
nodes = (
(92,542,l),
(133,700,l),
(49,700,l),
(40,542,l)
);
}
);
width = 173;
},
{
anchors = (
{
name = _topright;
pos = (10,720);
}
);
layerId = m003;
shapes = (
{
closed = 1;
nodes = (
(82,542,l),
(123,700,l),
(39,700,l),
(30,542,l)
);
}
);
width = 153;
}
);
metricLeft = period;
metricRight = period;
},
{
glyphname = circumflexcomb;
kernLeft = circumflexcomb;
kernRight = circumflexcomb;
lastChange = "2025-05-21 11:54:43 +0000";
layers = (
{
anchors = (
{
name = _top;
pos = (145,480);
},
{
name = top;
pos = (145,700);
}
);
layerId = m01;
shapes = (
{
closed = 1;
nodes = (
(47,542,l),
(145,679,l),
(243,542,l),
(270,542,l),
(156,700,l),
(134,700,l),
(20,542,l)
);
}
);
width = 290;
},
{
anchors = (
{
name = _top;
pos = (200,480);
},
{
name = top;
pos = (200,700);
}
);
layerId = m002;
shapes = (
{
closed = 1;
nodes = (
(122,542,l),
(200,639,l),
(278,542,l),
(360,542,l),
(241,700,l),
(159,700,l),
(40,542,l)
);
}
);
width = 400;
},
{
anchors = (
{
name = _top;
pos = (190,480);
},
{
name = top;
pos = (190,700);
}
);
layerId = m003;
shapes = (
{
closed = 1;
nodes = (
(112,542,l),
(190,639,l),
(268,542,l),
(350,542,l),
(231,700,l),
(149,700,l),
(30,542,l)
);
}
);
width = 380;
}
);
metricLeft = period;
metricRight = period;
unicode = 770;
},
{
glyphname = circumflexcomb.narrow;
kernLeft = circumflexcomb;
kernRight = circumflexcomb;
lastChange = "2025-05-21 11:53:24 +0000";
layers = (
{
anchors = (
{
name = _top;
pos = (115,480);
},
{
name = top;
pos = (115,700);
}
);
layerId = m01;
shapes = (
{
closed = 1;
nodes = (
(47,542,l),
(115,679,l),
(183,542,l),
(210,542,l),
(126,700,l),
(104,700,l),
(20,542,l)
);
}
);
width = 230;
},
{
anchors = (
{
name = _top;
pos = (180,480);
},
{
name = top;
pos = (180,700);
}
);
layerId = m002;
shapes = (
{
closed = 1;
nodes = (
(122,542,l),
(180,639,l),
(238,542,l),
(320,542,l),
(221,700,l),
(139,700,l),
(40,542,l)
);
}
);
width = 360;
},
{
anchors = (
{
name = _top;
pos = (180,480);
},
{
name = top;
pos = (180,700);
}
);
layerId = m003;
shapes = (
{
closed = 1;
nodes = (
(122,542,l),
(180,639,l),
(238,542,l),
(320,542,l),
(221,700,l),
(139,700,l),
(40,542,l)
);
}
);
width = 360;
}
);
metricLeft = period;
metricRight = period;
},
{
glyphname = caroncomb;
kernLeft = caroncomb;
kernRight = caroncomb;
lastChange = "2025-05-21 11:54:43 +0000";
layers = (
{
anchors = (
{
name = _top;
pos = (145,480);
},
{
name = top;
pos = (145,700);
}
);
layerId = m01;
shapes = (
{
closed = 1;
nodes = (
(156,542,l),
(270,700,l),
(243,700,l),
(145,563,l),
(47,700,l),
(20,700,l),
(134,542,l)
);
}
);
width = 290;
},
{
anchors = (
{
name = _top;
pos = (200,480);
},
{
name = top;
pos = (200,700);
}
);
layerId = m002;
shapes = (
{
closed = 1;
nodes = (
(241,542,l),
(360,700,l),
(278,700,l),
(200,603,l),
(122,700,l),
(40,700,l),
(159,542,l)
);
}
);
width = 400;
},
{
anchors = (
{
name = _top;
pos = (190,480);
},
{
name = top;
pos = (190,700);
}
);
layerId = m003;
shapes = (
{
closed = 1;
nodes = (
(231,542,l),
(350,700,l),
(268,700,l),
(190,603,l),
(112,700,l),
(30,700,l),
(149,542,l)
);
}
);
width = 380;
}
);
metricLeft = period;
metricRight = period;
unicode = 780;
},
{
glyphname = caroncomb.narrow;
kernLeft = caroncomb;
kernRight = caroncomb;
lastChange = "2025-05-21 11:53:24 +0000";
layers = (
{
anchors = (
{
name = _top;
pos = (115,480);
},
{
name = top;
pos = (115,700);
}
);
layerId = m01;
shapes = (
{
closed = 1;
nodes = (
(126,542,l),
(210,700,l),
(183,700,l),
(115,563,l),
(47,700,l),
(20,700,l),
(104,542,l)
);
}
);
width = 230;
},
{
anchors = (
{
name = _top;
pos = (180,480);
},
{
name = top;
pos = (180,700);
}
);
layerId = m002;
shapes = (
{
closed = 1;
nodes = (
(221,542,l),
(320,700,l),
(238,700,l),
(180,603,l),
(122,700,l),
(40,700,l),
(139,542,l)
);
}
);
width = 360;
},
{
anchors = (
{
name = _top;
pos = (180,480);
},
{
name = top;
pos = (180,700);
}
);
layerId = m003;
shapes = (
{
closed = 1;
nodes = (
(221,542,l),
(320,700,l),
(238,700,l),
(180,603,l),
(122,700,l),
(40,700,l),
(139,542,l)
);
}
);
width = 360;
}
);
metricLeft = period;
metricRight = period;
},
{
glyphname = brevecomb;
kernLeft = brevecomb;
kernRight = brevecomb;
lastChange = "2025-05-21 11:53:24 +0000";
layers = (
{
anchors = (
{
name = _top;
pos = (281,480);
},
{
name = top;
pos = (281,680);
}
);
layerId = m01;
shapes = (
{
closed = 1;
nodes = (
(364,534,o),
(430,598,o),
(430,680,c),
(404,680,l),
(404,612,o),
(350,558,o),
(281,558,cs),
(212,558,o),
(158,612,o),
(158,680,c),
(132,680,l),
(132,598,o),
(198,534,o),
(281,534,cs)
);
}
);
width = 562;
},
{
anchors = (
{
name = _top;
pos = (281,480);
},
{
name = top;
pos = (281,680);
}
);
layerId = m002;
shapes = (
{
closed = 1;
nodes = (
(378,514,o),
(455,587,o),
(455,680,c),
(379,680,l),
(379,625,o),
(336,582,o),
(281,582,cs),
(226,582,o),
(183,625,o),
(183,680,c),
(107,680,l),
(107,587,o),
(184,514,o),
(281,514,cs)
);
}
);
width = 562;
},
{
anchors = (
{
name = _top;
pos = (281,480);
},
{
name = top;
pos = (281,680);
}
);
layerId = m003;
shapes = (
{
closed = 1;
nodes = (
(378,514,o),
(455,587,o),
(455,680,c),
(379,680,l),
(379,625,o),
(336,582,o),
(281,582,cs),
(226,582,o),
(183,625,o),
(183,680,c),
(107,680,l),
(107,587,o),
(184,514,o),
(281,514,cs)
);
}
);
width = 562;
}
);
unicode = 774;
},
{
glyphname = ringcomb;
kernLeft = ringcomb;
kernRight = ringcomb;
lastChange = "2025-05-21 11:53:24 +0000";
layers = (
{
anchors = (
{
name = _top;
pos = (140,480);
},
{
name = top;
pos = (140,700);
}
);
layerId = m01;
shapes = (
{
closed = 1;
nodes = (
(190,527,o),
(230,565,o),
(230,614,cs),
(230,662,o),
(190,700,o),
(140,700,cs),
(90,700,o),
(50,662,o),
(50,614,cs),
(50,565,o),
(90,527,o),
(140,527,cs)
);
},
{
closed = 1;
nodes = (
(102,547,o),
(73,576,o),
(73,614,cs),
(73,651,o),
(102,680,o),
(140,680,cs),
(178,680,o),
(207,651,o),
(207,614,cs),
(207,576,o),
(178,547,o),
(140,547,cs)
);
}
);
width = 280;
},
{
anchors = (
{
name = _top;
pos = (115,480);
},
{
name = top;
pos = (115,700);
}
);
layerId = m002;
shapes = (
{
closed = 1;
nodes = (
(165,527,o),
(205,565,o),
(205,614,cs),
(205,662,o),
(165,700,o),
(115,700,cs),
(65,700,o),
(25,662,o),
(25,614,cs),
(25,565,o),
(65,527,o),
(115,527,cs)
);
},
{
closed = 1;
nodes = (
(94,577,o),
(78,593,o),
(78,614,cs),
(78,635,o),
(94,651,o),
(115,651,cs),
(136,651,o),
(152,635,o),
(152,614,cs),
(152,593,o),
(136,577,o),
(115,577,cs)
);
}
);
width = 230;
},
{
anchors = (
{
name = _top;
pos = (115,480);
},
{
name = top;
pos = (115,700);
}
);
layerId = m003;
shapes = (
{
closed = 1;
nodes = (
(165,527,o),
(205,565,o),
(205,614,cs),
(205,662,o),
(165,700,o),
(115,700,cs),
(65,700,o),
(25,662,o),
(25,614,cs),
(25,565,o),
(65,527,o),
(115,527,cs)
);
},
{
closed = 1;
nodes = (
(94,577,o),
(78,593,o),
(78,614,cs),
(78,635,o),
(94,651,o),
(115,651,cs),
(136,651,o),
(152,635,o),
(152,614,cs),
(152,593,o),
(136,577,o),
(115,577,cs)
);
}
);
width = 230;
}
);
metricLeft = o;
metricRight = o;
unicode = 778;
},
{
glyphname = tildecomb;
kernLeft = tildecomb;
kernRight = tildecomb;
lastChange = "2025-05-21 11:54:43 +0000";
layers = (
{
anchors = (
{
name = _top;
pos = (213,480);
},
{
name = top;
pos = (213,683);
}
);
layerId = m01;
shapes = (
{
closed = 1;
nodes = (
(366,537,o),
(406,591,o),
(406,677,c),
(384,677,l),
(384,603,o),
(353,557,o),
(302,557,cs),
(215,557,o),
(213,683,o),
(114,683,cs),
(56,683,o),
(20,629,o),
(20,543,c),
(42,543,l),
(42,617,o),
(70,663,o),
(114,663,cs),
(200,663,o),
(200,537,o),
(302,537,cs)
);
}
);
width = 426;
},
{
anchors = (
{
name = _top;
pos = (254,480);
},
{
name = top;
pos = (254,683);
}
);
layerId = m002;
shapes = (
{
closed = 1;
nodes = (
(427,537,o),
(468,582,o),
(468,677,c),
(404,677,l),
(404,621,o),
(384,595,o),
(343,595,cs),
(266,595,o),
(264,683,o),
(165,683,cs),
(81,683,o),
(40,638,o),
(40,543,c),
(104,543,l),
(104,599,o),
(124,625,o),
(165,625,cs),
(231,625,o),
(231,537,o),
(343,537,cs)
);
}
);
width = 508;
},
{
anchors = (
{
name = _top;
pos = (244,480);
},
{
name = top;
pos = (244,683);
}
);
layerId = m003;
shapes = (
{
closed = 1;
nodes = (
(417,537,o),
(458,582,o),
(458,677,c),
(394,677,l),
(394,621,o),
(374,595,o),
(333,595,cs),
(256,595,o),
(254,683,o),
(155,683,cs),
(71,683,o),
(30,638,o),
(30,543,c),
(94,543,l),
(94,599,o),
(114,625,o),
(155,625,cs),
(221,625,o),
(221,537,o),
(333,537,cs)
);
}
);
width = 488;
}
);
metricLeft = period;
metricRight = period;
unicode = 771;
},
{
glyphname = tildecomb.narrow;
kernLeft = tildecomb;
kernRight = tildecomb;
lastChange = "2025-05-21 11:53:24 +0000";
layers = (
{
anchors = (
{
name = _top;
pos = (143,480);
},
{
name = top;
pos = (143,683);
}
);
layerId = m01;
shapes = (
{
closed = 1;
nodes = (
(236,537,o),
(261,591,o),
(261,677,c),
(239,677,l),
(239,603,o),
(223,557,o),
(197,557,cs),
(138,557,o),
(169,683,o),
(89,683,cs),
(50,683,o),
(25,629,o),
(25,543,c),
(47,543,l),
(47,617,o),
(63,663,o),
(89,663,cs),
(151,663,o),
(115,537,o),
(197,537,cs)
);
}
);
width = 286;
},
{
anchors = (
{
name = _top;
pos = (184,480);
},
{
name = top;
pos = (184,683);
}
);
layerId = m002;
shapes = (
{
closed = 1;
nodes = (
(299,537,o),
(328,583,o),
(328,677,c),
(264,677,l),
(264,622,o),
(256,595,o),
(238,595,cs),
(196,595,o),
(217,683,o),
(130,683,cs),
(69,683,o),
(40,637,o),
(40,543,c),
(104,543,l),
(104,598,o),
(112,625,o),
(130,625,cs),
(172,625,o),
(151,537,o),
(238,537,cs)
);
}
);
width = 368;
},
{
anchors = (
{
name = _top;
pos = (184,480);
},
{
name = top;
pos = (184,683);
}
);
layerId = m003;
shapes = (
{
closed = 1;
nodes = (
(299,537,o),
(328,583,o),
(328,677,c),
(264,677,l),
(264,622,o),
(256,595,o),
(238,595,cs),
(196,595,o),
(217,683,o),
(130,683,cs),
(69,683,o),
(40,637,o),
(40,543,c),
(104,543,l),
(104,598,o),
(112,625,o),
(130,625,cs),
(172,625,o),
(151,537,o),
(238,537,cs)
);
}
);
width = 368;
}
);
metricLeft = period;
metricRight = period;
},
{
glyphname = macroncomb;
kernLeft = macroncomb;
kernRight = macroncomb;
lastChange = "2025-05-21 11:54:43 +0000";
layers = (
{
anchors = (
{
name = _top;
pos = (170,480);
},
{
name = top;
pos = (170,579);
}
);
layerId = m01;
shapes = (
{
closed = 1;
nodes = (
(320,555,l),
(320,579,l),
(20,579,l),
(20,555,l)
);
}
);
width = 340;
},
{
anchors = (
{
name = _top;
pos = (215,480);
},
{
name = top;
pos = (215,622);
}
);
layerId = m002;
shapes = (
{
closed = 1;
nodes = (
(390,554,l),
(390,622,l),
(40,622,l),
(40,554,l)
);
}
);
width = 430;
},
{
anchors = (
{
name = _top;
pos = (205,480);
},
{
name = top;
pos = (205,622);
}
);
layerId = m003;
shapes = (
{
closed = 1;
nodes = (
(380,554,l),
(380,622,l),
(30,622,l),
(30,554,l)
);
}
);
width = 410;
}
);
metricLeft = hyphen;
metricRight = hyphen;
unicode = 772;
},
{
glyphname = macroncomb.narrow;
kernLeft = macroncomb;
kernRight = macroncomb;
lastChange = "2025-05-21 11:53:24 +0000";
layers = (
{
anchors = (
{
name = _top;
pos = (130,480);
},
{
name = top;
pos = (130,600);
}
);
layerId = m01;
shapes = (
{
closed = 1;
nodes = (
(235,576,l),
(235,600,l),
(25,600,l),
(25,576,l)
);
}
);
width = 260;
},
{
anchors = (
{
name = _top;
pos = (145,480);
},
{
name = top;
pos = (145,622);
}
);
layerId = m002;
shapes = (
{
closed = 1;
nodes = (
(250,554,l),
(250,622,l),
(40,622,l),
(40,554,l)
);
}
);
width = 290;
},
{
anchors = (
{
name = _top;
pos = (145,480);
},
{
name = top;
pos = (145,622);
}
);
layerId = m003;
shapes = (
{
closed = 1;
nodes = (
(250,554,l),
(250,622,l),
(40,622,l),
(40,554,l)
);
}
);
width = 290;
}
);
metricLeft = hyphen;
metricRight = hyphen;
},
{
glyphname = hookabovecomb;
lastChange = "2025-05-23 17:25:11 +0000";
layers = (
{
layerId = m01;
shapes = (
{
closed = 1;
nodes = (
(108,666,l),
(159,632,l),
(99,583,l),
(129,554,l),
(220,642,l),
(202,708,l),
(108,721,l)
);
}
);
width = 300;
},
{
layerId = m002;
width = 300;
},
{
layerId = m003;
width = 300;
}
);
unicode = 777;
},
